<svg width="150" height="17" viewBox="0 0 150 17" fill="none" xmlns="http://www.w3.org/2000/svg">
<g clip-path="url(#clip0_504_463)">
<path d="M11.0237 17.9457L3.90359 4.86107V17.9457H0V1.0022H6.115L12.6928 12.9839L19.2719 1.0022H25.3048V17.9457H21.3742V4.86107L14.276 17.9457H11.0237Z" fill="white"/>
<path d="M37.6661 17.9444H33.6523V1.00098H37.6661V17.9444Z" fill="white"/>
<path d="M45.5007 10.0429H57.5935C59.9408 10.0429 61.2792 9.02291 61.2792 7.25853C61.2792 5.46695 59.9408 4.44688 57.5935 4.44688H45.5007V1.00098H57.8076C62.2573 1.00098 65.261 3.1511 65.261 7.23131C65.261 10.263 63.5136 12.2798 60.7292 13.0475L65.7289 17.9444H61.1138L56.4986 13.4332H49.5106V17.9444H45.498L45.5007 10.0429Z" fill="white"/>
<path d="M82.19 4.99865L74.3559 17.9435H70.0703L79.9517 1H84.4553L94.3367 17.9435H89.9959L82.19 4.99865Z" fill="white"/>
<path d="M120.052 17.9444H116.504L103.701 6.15562V17.9444H99.8252V1.00098H103.92L116.149 12.1335V1.00098H120.052V17.9444Z" fill="white"/>
<path d="M137.853 4.99865L130.018 17.9435H125.732L135.614 1H140.117L150 17.9435H145.66L137.853 4.99865Z" fill="white"/>
</g>
<defs>
<clipPath id="clip0_504_463">
<rect width="150" height="17" fill="white"/>
</clipPath>
</defs>
</svg>
