<svg width="120" height="40" viewBox="0 0 120 40" fill="none" xmlns="http://www.w3.org/2000/svg">
<path d="M85.5283 30.8374V0H91.7268V30.8374H85.5283Z" fill="white"/>
<path d="M13.2883 39.9978H0V9.1604H12.754C18.9525 9.1604 22.5642 12.5386 22.5642 17.8228C22.5642 21.2434 20.2446 23.4538 18.6391 24.1898C20.5555 25.0556 23.0086 27.0042 23.0086 31.1207C23.0086 36.8792 18.9525 39.9978 13.2883 39.9978ZM12.2633 14.5319H6.19845V21.6349H12.2633C14.8939 21.6349 16.3657 20.2054 16.3657 18.0823C16.3657 15.9615 14.8939 14.5319 12.2633 14.5319ZM12.6641 27.049H6.19845V34.6285H12.6641C15.4743 34.6285 16.8101 32.8971 16.8101 30.8164C16.8101 28.7381 15.4718 27.049 12.6641 27.049Z" fill="white"/>
<path d="M41.9145 27.3509V39.9978H35.7598V27.3509L26.2168 9.1604H32.9496L38.8809 21.5901L44.7224 9.1604H51.4552L41.9145 27.3509Z" fill="white"/>
<path d="M69.0286 39.9978H55.7402V9.1604H68.4942C74.6927 9.1604 78.3044 12.5386 78.3044 17.8228C78.3044 21.2434 75.9848 23.4538 74.3793 24.1898C76.2957 25.0556 78.749 27.0042 78.749 31.1207C78.749 36.8792 74.6927 39.9978 69.0286 39.9978ZM68.0036 14.5319H61.9387V21.6349H68.0036C70.6341 21.6349 72.106 20.2054 72.106 18.0823C72.106 15.9615 70.6341 14.5319 68.0036 14.5319ZM68.4043 27.049H61.9387V34.6285H68.4043C71.2145 34.6285 72.5504 32.8971 72.5504 30.8164C72.5504 28.7381 71.2145 27.049 68.4043 27.049Z" fill="white"/>
<path d="M111.704 14.5319V40.0001H105.506V14.5319H97.2109V9.1604H119.999V14.5319H111.704Z" fill="white"/>
</svg>
