<svg width="135" height="47" viewBox="0 0 135 47" fill="none" xmlns="http://www.w3.org/2000/svg">
<path d="M13.5397 32.4081V0.320801L0.0185547 23.7978L13.5397 32.4081Z" fill="white"/>
<path d="M13.5459 0.320801L27.0669 23.7978L13.5459 32.4081V0.320801Z" fill="white"/>
<path d="M0.0185547 26.5784L13.5621 35.2114V46.3333" fill="white"/>
<path d="M27.0669 26.5784L13.5459 35.2114V46.3333" fill="white"/>
<path d="M13.5435 16.1069L0 23.7981L13.5435 32.4086V16.1069Z" fill="white"/>
<path d="M13.5459 16.1069L27.0669 23.7979L13.5459 32.4082V16.1069Z" fill="white"/>
<path d="M35.8341 15.322C35.8787 16.9813 37.0898 17.766 38.4575 17.766C39.332 17.766 40.2064 17.4073 40.5653 16.6001H42.8524C42.3368 18.7527 40.3859 19.8738 38.3455 19.8738C35.9013 19.8738 33.4571 18.2146 33.4571 14.6044C33.4571 11.1065 35.7667 9.31259 38.3678 9.31259C40.8343 9.31259 42.9421 10.9495 42.9421 14.313V15.322H35.8341ZM35.9013 13.5057H40.5205C40.5205 12.1603 39.5786 11.398 38.3229 11.398C37.2018 11.4204 36.1031 12.0258 35.9013 13.5057ZM50.7004 19.6498H49.0861C47.1577 19.6498 45.9692 19.0442 45.9692 16.3311V11.6894H44.1306V9.492H45.9918V7.20484L48.4357 6.53214V9.492H50.4538V11.6894H48.4357V16.2637C48.4357 16.959 48.6375 17.4745 49.6465 17.4745H50.6781L50.7004 19.6498ZM62.0018 13.1021V19.6498H59.5576V13.3039C59.5576 12.1603 58.8626 11.4876 57.6518 11.4876C56.1941 11.4876 55.4093 12.4967 55.4093 14.156V19.6498H52.9652V5.61279H55.4319V10.9943C55.9923 10.0301 56.7996 9.31259 58.5262 9.31259C60.8133 9.29019 62.0018 10.6804 62.0018 13.1021ZM66.733 15.322C66.7778 16.9813 67.9886 17.766 69.3566 17.766C70.231 17.766 71.1055 17.4073 71.4644 16.6001H73.7514C73.2356 18.7527 71.285 19.8738 69.2443 19.8738C66.8004 19.8738 64.3562 18.2146 64.3562 14.6044C64.3562 11.1065 66.6658 9.31259 69.2669 9.31259C71.7333 9.31259 73.8412 10.9495 73.8412 14.313V15.322H66.733ZM66.8004 13.5057H71.4195C71.4195 12.1603 70.4777 11.398 69.222 11.398C68.1009 11.4204 67.0245 12.0258 66.8004 13.5057ZM82.0705 11.7567H81.4201C79.716 11.7567 78.7741 12.6985 78.7741 14.6941V19.6498H76.3302V9.492H78.7741V10.9943C79.2899 9.87318 80.2318 9.37989 81.4201 9.37989H82.0928L82.0705 11.7567ZM85.6132 15.322C85.658 16.9813 86.8689 17.766 88.2368 17.766C89.1113 17.766 89.9857 17.4073 90.3446 16.6001H92.6317C92.1159 18.7527 90.1652 19.8738 88.1245 19.8738C85.6806 19.8738 83.2364 18.2146 83.2364 14.6044C83.2364 11.1065 85.546 9.31259 88.1471 9.31259C90.6136 9.31259 92.7214 10.9495 92.7214 14.313V15.322H85.6132ZM85.6806 13.5057H90.2998C90.2998 12.1603 89.3579 11.398 88.1022 11.398C86.9811 11.4204 85.8824 12.0258 85.6806 13.5057ZM103.955 19.6498H101.556V18.1921C100.951 19.134 100.121 19.7393 98.7308 19.7393C96.6007 19.7393 95.0758 18.3715 95.0758 15.7705V9.46956H97.52V15.6135C97.52 16.9813 98.2376 17.5868 99.2912 17.5868C100.435 17.5868 101.489 16.7346 101.489 14.4027V9.46956H103.933L103.955 19.6498ZM121.625 12.8106V19.6721H119.181V13.2815C119.181 12.0706 118.62 11.5101 117.566 11.5101C116.4 11.5101 115.615 12.2052 115.615 13.9542V19.6721H113.171V13.2815C113.171 12.0706 112.543 11.5101 111.534 11.5101C110.391 11.5101 109.583 12.2276 109.583 13.9318V19.6721H107.139V9.492H109.561V10.9943C109.875 10.1871 110.682 9.31259 112.229 9.31259C113.597 9.31259 114.584 9.94045 115.077 10.9943C115.458 10.2768 116.243 9.31259 118.082 9.31259C120.234 9.29019 121.625 10.6132 121.625 12.8106ZM37.9643 26.8475C37.0898 26.8475 36.9327 27.2958 36.9327 27.8788V28.5515H38.7939V30.7491H36.9327V38.7092H34.4887V30.7491H32.9639V28.5515H34.4887V28.0134C34.4887 25.2777 35.6995 24.6948 37.583 24.6948H39.063V26.8698L37.9643 26.8475ZM50.2744 33.6416C50.2744 36.9603 48.1891 38.9335 45.2068 38.9335C42.2471 38.9335 40.1616 36.9603 40.1616 33.6416C40.1616 30.3455 42.2471 28.3723 45.2068 28.3723C48.1891 28.3498 50.2744 30.323 50.2744 33.6416ZM42.6731 33.6416C42.6731 35.682 43.7717 36.6688 45.2517 36.6688C46.8437 36.6688 47.763 35.5477 47.763 33.6416C47.763 31.6235 46.6643 30.637 45.1845 30.637C43.5925 30.637 42.6731 31.7358 42.6731 33.6416ZM61.5085 38.7092H59.1315V37.2517C58.5262 38.1936 57.6966 38.7989 56.3063 38.7989C54.176 38.7989 52.6514 37.4312 52.6514 34.8301V28.5292H55.0955V34.6732C55.0955 36.0409 55.8129 36.6462 56.8668 36.6462C58.0104 36.6462 59.0643 35.7943 59.0643 33.4622V28.5292H61.5085V38.7092ZM73.7066 32.1393V38.7092H71.2624V32.3636C71.2624 31.22 70.5674 30.5473 69.3566 30.5473C67.8989 30.5473 67.1142 31.5564 67.1142 33.2156V38.7092H64.67V28.5741H67.1142V30.0541C67.6748 29.1122 68.527 28.3946 70.2085 28.3946C72.5181 28.3498 73.7066 29.74 73.7066 32.1393ZM86.2859 38.7092H83.8642V37.162C83.3261 38.328 82.0479 38.9335 80.6353 38.9335C78.1463 38.9335 76.061 37.1846 76.061 33.6193C76.061 30.0989 78.1463 28.3723 80.6353 28.3723C81.9582 28.3723 83.2141 28.9104 83.8194 29.8969V24.6725H86.2636L86.2859 38.7092ZM83.8866 33.6193C83.8866 31.5115 82.5414 30.5248 81.2183 30.5248C79.7832 30.5248 78.5724 31.5338 78.5724 33.6193C78.5724 35.6597 79.7832 36.6911 81.2183 36.6911C82.5414 36.6911 83.8866 35.7046 83.8866 33.6193ZM97.6095 31.8927V38.7317H95.2104V37.2517C94.4254 38.5523 93.1026 38.9558 92.0264 38.9558C90.4118 38.9558 88.7526 38.0813 88.7526 35.9289C88.7526 33.395 91.0622 32.9466 92.0038 32.812L94.1116 32.5205C94.56 32.4757 95.3225 32.2514 95.3225 31.4218C95.3225 30.6145 94.6049 30.3007 93.6633 30.3007C92.2953 30.3007 91.6452 30.9285 91.5329 31.803H89.1784C89.4476 29.4485 91.4657 28.3723 93.7753 28.3723C96.1521 28.3498 97.6095 29.4934 97.6095 31.8927ZM95.2327 34.4489V33.9108C94.9189 34.0452 94.5826 34.1126 94.0219 34.2023L92.8111 34.3592C92.1833 34.4264 91.1742 34.7179 91.1742 35.7269C91.1742 36.5119 91.7795 36.8931 92.6542 36.8931C94.0891 36.8931 95.2327 35.8615 95.2327 34.4489ZM105.884 38.7092H104.269C102.341 38.7092 101.152 38.1039 101.152 35.3906V30.7491H99.2912V28.5515H101.152V26.2645L103.597 25.5918V28.5515H105.615V30.7491H103.597V35.3234C103.597 36.0184 103.798 36.5342 104.807 36.5342H105.839L105.884 38.7092ZM108.014 24.4033H110.615V27.1838H108.014V24.4033ZM108.081 38.7092H110.525V28.5515H108.081V38.7092ZM123.037 33.6416C123.037 36.9603 120.952 38.9335 117.97 38.9335C115.01 38.9335 112.925 36.9603 112.925 33.6416C112.925 30.3455 115.01 28.3723 117.97 28.3723C120.975 28.3498 123.037 30.323 123.037 33.6416ZM115.458 33.6416C115.458 35.682 116.557 36.6688 118.037 36.6688C119.629 36.6688 120.548 35.5477 120.548 33.6416C120.548 31.6235 119.45 30.637 117.97 30.637C116.378 30.637 115.458 31.7358 115.458 33.6416ZM134.54 32.1393V38.7092H132.096V32.3636C132.096 31.22 131.401 30.5473 130.19 30.5473C128.733 30.5473 127.948 31.5564 127.948 33.2156V38.7092H125.504V28.5741H127.948V30.0541C128.509 29.1122 129.361 28.3946 131.042 28.3946C133.352 28.3498 134.563 29.74 134.54 32.1393Z" fill="white"/>
</svg>
