<svg width="200" height="23" viewBox="0 0 200 23" fill="none" xmlns="http://www.w3.org/2000/svg">
<path d="M199.975 19.858C198.015 19.1696 196.177 18.5273 194.342 17.8776C191.328 16.8108 188.323 15.7255 185.3 14.6827C184.665 14.463 184.377 14.1825 184.409 13.459C184.475 12.0064 184.445 10.5501 184.418 9.09568C184.41 8.65271 184.554 8.44045 184.973 8.29095C189.876 6.54306 194.77 4.77671 199.669 3.01959C199.737 2.99559 199.822 3.0159 199.975 3.0159C199.975 4.3725 200.007 5.71618 199.942 7.05432C199.933 7.25919 199.516 7.53051 199.237 7.62649C196.465 8.58257 193.683 9.50543 190.904 10.4412C190.082 10.7181 189.263 11.0023 188.213 11.3622C188.659 11.5689 188.908 11.7148 189.176 11.8052C192.484 12.9071 195.791 14.0145 199.11 15.0832C199.758 15.2917 200.044 15.5686 199.994 16.2977C199.918 17.4272 199.973 18.5679 199.973 19.8562L199.975 19.858Z" fill="white"/>
<path d="M156.368 19.7233C156.368 18.4055 156.342 17.0655 156.397 15.731C156.404 15.5372 156.783 15.277 157.038 15.1902C159.941 14.2028 162.853 13.2449 165.762 12.2759C166.48 12.0359 167.191 11.783 167.918 11.3327C167.667 11.2349 167.42 11.126 167.165 11.0411C163.834 9.91518 160.508 8.77822 157.165 7.68371C156.524 7.4733 156.31 7.15768 156.345 6.49138C156.405 5.3415 156.362 4.18608 156.362 2.91992C158.103 3.54377 159.712 4.11964 161.321 4.69735C164.607 5.87307 167.889 7.05986 171.181 8.21528C171.705 8.39985 171.925 8.63795 171.905 9.22673C171.857 10.7347 171.91 12.2445 171.868 13.7524C171.861 14.0127 171.633 14.4206 171.412 14.4999C166.489 16.2792 161.554 18.0216 156.62 19.7676C156.578 19.7824 156.521 19.7528 156.366 19.7233H156.368Z" fill="white"/>
<path d="M180.301 22.8001H176.145V0H180.301V22.8001Z" fill="white"/>
<path d="M89.7941 20.1238H86.8262V2.69475C87.3651 2.69475 87.8672 2.69475 88.371 2.69475C89.5541 2.69475 90.7391 2.70767 91.9222 2.68552C92.2655 2.67998 92.4316 2.77965 92.5663 3.1045C93.9045 6.3548 95.2611 9.59772 96.6158 12.8425C97.2489 14.3578 97.8949 15.8676 98.5114 17.3903C98.6295 17.6838 98.7753 17.7742 99.1149 17.6764V2.72982H102.05V20.1478C101.298 20.1478 100.566 20.1478 99.8311 20.1478C98.9691 20.1478 98.109 20.1331 97.2489 20.1552C96.9241 20.1644 96.7672 20.0611 96.638 19.7602C95.3534 16.7868 94.0503 13.8207 92.7528 10.8528C91.972 9.06616 91.1913 7.28135 90.4179 5.49285C90.3035 5.22891 90.1872 5.0185 89.7941 5.15693V20.1238Z" fill="white"/>
<path d="M65.6945 20.5963H63.1364V16.9751C62.8835 17.1246 62.6473 17.1799 62.5956 17.3073C61.8407 19.1954 60.3936 20.218 58.4667 20.6111C54.6738 21.3826 51.2555 19.6015 49.8103 16.0024C48.6106 13.0123 48.5792 9.95765 49.9026 6.98789C51.2924 3.87233 54.3342 2.09121 57.7432 2.30162C61.1781 2.51388 63.4778 4.3153 64.8104 7.4364C64.851 7.53238 64.875 7.63574 64.9212 7.77601C63.9669 7.9532 63.033 8.1267 62.0788 8.30389C61.92 7.99565 61.7798 7.69111 61.6118 7.40318C59.8104 4.30607 55.3936 4.53125 53.4242 6.88638C51.3293 9.38917 51.4419 14.081 53.7011 16.4306C54.4615 17.2224 55.3788 17.7373 56.466 17.8795C58.4058 18.1305 60.2478 17.8998 61.7964 16.5579C62.7894 15.6997 63.153 14.5867 63.0533 13.2522H55.3235V10.6553H65.6964V20.5963H65.6945Z" fill="white"/>
<path d="M67.5918 11.4914C67.6195 9.70659 67.9517 8.00485 68.8321 6.43599C70.1149 4.15099 72.0806 2.83131 74.6498 2.42894C76.9902 2.06164 79.2253 2.3588 81.2298 3.71171C83.2324 5.06278 84.3177 7.0137 84.72 9.35222C85.163 11.9196 84.9618 14.4206 83.644 16.7277C82.2708 19.1327 80.139 20.4062 77.4128 20.7107C75.4047 20.9341 73.4796 20.6517 71.7225 19.6107C69.3212 18.1877 68.1455 15.971 67.7431 13.2854C67.6546 12.6948 67.6398 12.0931 67.5918 11.4951V11.4914ZM82.0474 11.5043C81.8924 10.6627 81.8112 9.79888 81.5694 8.98307C80.9049 6.74053 79.0242 5.24919 76.8038 5.11261C74.2142 4.95388 72.1987 6.08899 71.2149 8.34077C70.3936 10.2197 70.3548 12.1762 70.9787 14.1086C72.5235 18.8927 78.1659 18.8041 80.3235 16.294C81.514 14.9097 81.9404 13.2947 82.0474 11.5043Z" fill="white"/>
<path d="M19.9208 20.1239H16.9658V2.74276C17.0636 2.72799 17.1652 2.69661 17.2648 2.69661C20.1091 2.69661 22.9533 2.67262 25.7976 2.71692C27.4956 2.7446 29.0091 3.31493 30.0852 4.69737C31.1686 6.08904 31.4085 7.68004 30.7718 9.30796C30.1553 10.8842 28.8375 11.6262 27.204 11.8514C27.0084 11.879 26.8109 11.9067 26.5931 11.9363V12.2962C27.2944 12.4475 27.9977 12.538 28.6584 12.7558C29.7603 13.1194 30.3971 13.9573 30.4488 15.0924C30.5226 16.748 30.4672 18.4092 30.4672 20.1054H27.5861C27.5787 19.9559 27.5658 19.7953 27.5658 19.6329C27.5658 18.3409 27.5695 17.0507 27.5639 15.7587C27.5584 14.5941 27.1228 14.0478 25.9858 13.7709C25.7625 13.7155 25.5355 13.6657 25.3066 13.6491C24.8009 13.6103 24.2952 13.5789 23.7876 13.5753C22.5159 13.5642 21.2423 13.5716 19.919 13.5716V20.122L19.9208 20.1239ZM19.9356 10.7476C21.7868 10.7476 23.5827 10.7605 25.3786 10.7439C26.9456 10.7292 28.0696 9.6365 28.1232 8.11009C28.1748 6.6649 27.1874 5.57777 25.6001 5.51686C23.7451 5.44673 21.8847 5.5021 20.0279 5.50394C20.002 5.50394 19.978 5.53532 19.9153 5.57777C19.9153 7.13187 19.9153 8.7118 19.9153 10.2917C19.9153 10.4265 19.9263 10.5612 19.9356 10.7476Z" fill="white"/>
<path d="M0 20.0925V2.72428C0.108897 2.71321 0.197491 2.69844 0.286086 2.69844C2.57662 2.69844 4.86715 2.67445 7.15584 2.70951C11.3733 2.77227 14.4796 5.63313 14.954 9.83213C15.1644 11.6945 15.0703 13.518 14.3117 15.2567C13.0529 18.1397 10.7808 19.7584 7.71324 20.0223C5.19569 20.2401 2.64675 20.1146 0.112589 20.1404C0.0849029 20.1404 0.0572172 20.1183 0 20.0943L0 20.0925ZM2.95868 17.311C4.43894 17.311 5.88414 17.3534 7.3238 17.2999C9.15659 17.2316 10.4874 16.2958 11.3382 14.6993C12.106 13.2615 12.2168 11.7092 11.9861 10.1237C11.6575 7.85906 10.0315 6.02811 7.78338 5.68296C6.30681 5.45594 4.78225 5.54269 3.27984 5.49101C3.17832 5.48731 3.07496 5.515 2.95868 5.52977V17.311Z" fill="white"/>
<path d="M32.0449 20.1478C32.5267 18.7322 32.9844 17.3811 33.4421 16.0319C34.9187 11.6852 36.3953 7.33855 37.8848 2.99743C37.9291 2.87008 38.1229 2.71134 38.2484 2.7095C39.6308 2.68366 41.0133 2.69104 42.3975 2.67812C42.6892 2.67443 42.8165 2.7944 42.9088 3.06941C44.7914 8.62317 46.6833 14.1751 48.5733 19.727C48.6158 19.8543 48.649 19.9854 48.6914 20.1367H45.5906C45.0646 18.5808 44.5386 17.0267 44.007 15.4505C43.2521 15.4505 42.5157 15.4505 41.7792 15.4505C40.2251 15.4505 38.6729 15.4579 37.1188 15.4431C36.8419 15.4412 36.7164 15.5298 36.6315 15.7901C36.1978 17.119 35.7364 18.4368 35.31 19.7676C35.2122 20.0721 35.0701 20.1644 34.7544 20.157C33.8796 20.133 33.0028 20.1497 32.0468 20.1497L32.0449 20.1478ZM43.0546 12.8332C43.0546 12.7539 43.062 12.7207 43.0546 12.6948C42.2702 10.3711 41.4858 8.04731 40.6884 5.72724C40.6515 5.62019 40.4706 5.47992 40.382 5.49468C40.2584 5.51683 40.1015 5.65157 40.059 5.77339C39.2838 8.01962 38.5215 10.2695 37.7611 12.5213C37.7297 12.6136 37.7297 12.7188 37.7131 12.8351H43.0565L43.0546 12.8332Z" fill="white"/>
<path d="M107.173 20.1275H104.213V2.72241H116.528V5.47622H107.188V9.53125H115.599V12.1817H107.173V20.1275Z" fill="white"/>
<path d="M144.097 2.69474C143.98 2.91807 143.906 3.06573 143.825 3.20969C141.935 6.53567 140.04 9.85611 138.163 13.1895C138.006 13.4663 137.919 13.8207 137.915 14.14C137.891 15.9544 137.904 17.7687 137.904 19.583V20.122H134.933V19.6218C134.933 17.7613 134.942 15.9008 134.923 14.0403C134.922 13.7653 134.844 13.4589 134.709 13.2208C132.823 9.87641 130.92 6.54121 129.021 3.20231C128.94 3.06019 128.868 2.91069 128.757 2.69659C129.859 2.69659 130.898 2.68367 131.935 2.7132C132.059 2.71689 132.214 2.91807 132.291 3.06204C133.524 5.34519 134.744 7.63756 135.979 9.91887C136.075 10.0961 136.274 10.3268 136.429 10.3286C136.579 10.3305 136.78 10.0961 136.876 9.92071C138.111 7.63756 139.335 5.34888 140.547 3.05465C140.688 2.79072 140.839 2.67997 141.149 2.68736C142.101 2.70951 143.054 2.69474 144.095 2.69474H144.097Z" fill="white"/>
<path d="M121.642 17.5417H131.066V20.1276H118.715V2.73169H121.642V17.5417Z" fill="white"/>
</svg>
