<svg width="104" height="48" viewBox="0 0 104 48" fill="none" xmlns="http://www.w3.org/2000/svg">
<g clip-path="url(#clip0_494_189)">
<path d="M5.50358 8.59277H0V33.1787H5.50358V8.59277Z" fill="white"/>
<path d="M21.0368 8.59277H15.5332V33.1787H34.8599V8.59277H21.0368ZM29.3522 27.6752H21.0368V14.0964H29.3522V27.6752Z" fill="white"/>
<path d="M85.3117 33.1787H90.8194V27.6752V23.6375V18.134H85.3117H81.154V23.6375H85.3117V27.6752H76.9963V14.0964H90.8194V8.59277H76.9963H71.4927V14.0964V27.6752V33.1787H76.9963H85.3117Z" fill="white"/>
<path d="M62.1336 27.6752V23.6375V18.134H56.63H48.3146V14.0964H62.1336V8.59277H48.3146H42.811V14.0964V18.134V23.6375H48.3146H56.63V27.6752H42.811V33.1787H56.63H62.1336V27.6752Z" fill="white"/>
<path d="M10.9492 0.335449H8.19531V3.08931H10.9492V0.335449Z" fill="white"/>
<path d="M42.811 3.30054H40.0571V6.0544H42.811V3.30054Z" fill="white"/>
<path d="M49.8427 0H47.0889V2.75386H49.8427V0Z" fill="white"/>
<path d="M60.9741 1.77246H58.2202V4.52632H60.9741V1.77246Z" fill="white"/>
<path d="M97.4863 16.7551H94.7324V19.509H97.4863V16.7551Z" fill="white"/>
<path d="M103.724 25.1658H100.97V27.9196H103.724V25.1658Z" fill="white"/>
<path d="M96.7539 29.9363H94V32.6901H96.7539V29.9363Z" fill="white"/>
<path d="M50.0662 37.3821H48.6665V46.6003H50.0662V37.3821Z" fill="white"/>
<path d="M31.2202 43.4323H30.0234V44.6291H31.2202V48H32.6199V37.3821H31.2202V43.4323Z" fill="white"/>
<path d="M56.2327 37.3821H54.833V46.6003H56.2327V37.3821Z" fill="white"/>
<path d="M61.761 38.7818H66.5316V37.3821H61.761H60.3613V48H61.761V43.2087H63.0903V44.4055H64.2871V43.2087H66.5316V41.809H61.761V38.7818Z" fill="white"/>
<path d="M72.9297 37.3821V48H74.3294H80.0152V46.6003H74.3294V43.2087H80.0152V41.809H74.3294V38.7818H80.0152V37.3821H74.3294H72.9297Z" fill="white"/>
<path d="M67.9314 38.7817H66.5317V41.8089H67.9314V38.7817Z" fill="white"/>
<path d="M85.8167 38.7817H84.417V41.8089H85.8167V38.7817Z" fill="white"/>
<path d="M92.219 43.2087H90.8193V46.2359H92.219V43.2087Z" fill="white"/>
<path d="M54.837 46.6003H50.0664V48.0001H54.837V46.6003Z" fill="white"/>
<path d="M39.8876 37.3821H36.4712V38.7818H39.8876V48H41.2873V38.7818H44.7038V37.3821H41.2873H39.8876Z" fill="white"/>
<path d="M91.2092 37.3821H85.8174V38.7818H91.2092V37.3821Z" fill="white"/>
<path d="M90.8195 46.2358H85.4277V47.6355H90.8195V46.2358Z" fill="white"/>
<path d="M90.8157 41.8091H85.8174V43.2088H90.8157V41.8091Z" fill="white"/>
<path d="M13.2808 37.3821V48H14.6763H20.3663V46.6003H14.6763V43.2087H20.3663V41.809H14.6763V38.7818H20.3663V37.3821H14.6763H13.2808Z" fill="white"/>
<path d="M65.4839 44.4055H64.2871V45.6023H65.4839V44.4055Z" fill="white"/>
<path d="M66.6851 45.6023H65.4883V46.7991H66.6851V45.6023Z" fill="white"/>
<path d="M67.8818 46.8032H66.6851V48H67.8818V46.8032Z" fill="white"/>
<path d="M26.429 39.8378V37.3821H25.0293V48H26.429V41.0346H27.6258V39.8378H26.429Z" fill="white"/>
<path d="M28.8223 41.0347H27.6255V42.2315H28.8223V41.0347Z" fill="white"/>
<path d="M30.0191 42.2314H28.8223V43.4282H30.0191V42.2314Z" fill="white"/>
<path d="M4.49309 45.859L1.5653 37.3821H0.0869141L3.75597 48H5.23436L8.90341 37.3821H7.42502L4.49309 45.859Z" fill="white"/>
</g>
<defs>
<clipPath id="clip0_494_189">
<rect width="104" height="48" fill="white"/>
</clipPath>
</defs>
</svg>
