<svg width="145" height="33" viewBox="0 0 145 33" fill="none" xmlns="http://www.w3.org/2000/svg">
<g clip-path="url(#clip0_504_363)">
<path d="M45.3677 12.3896C44.0316 12.399 42.6968 12.395 41.3608 12.399C40.7552 12.4009 40.452 12.1107 40.4511 11.5285C40.4511 9.32151 40.4498 7.11592 40.4511 4.90898C40.4511 4.08983 40.4565 3.26934 40.4592 2.4502C40.4592 2.0738 40.2473 1.9533 39.9059 1.9885C39.5159 2.02912 39.1258 2.03318 38.7344 2.01016C38.4659 1.99527 38.1933 2.00068 37.926 2.02776C37.6507 2.0562 37.4793 2.14014 37.4955 2.51383C37.536 3.45754 37.5009 4.40395 37.5009 5.35036C37.5023 8.42113 37.5185 11.4933 37.4564 14.564C37.4483 14.9824 37.5873 15.1015 37.9989 15.1218C39.3067 15.1855 40.6144 15.1273 41.6104 15.1367C43.014 15.1367 44.1072 15.1394 45.2003 15.1354C45.6835 15.134 45.8792 14.9269 45.8684 14.434C45.8562 13.8938 45.8239 13.3536 45.8185 12.8147C45.8158 12.4992 45.674 12.3896 45.3704 12.3909L45.3677 12.3896Z" fill="white"/>
<path d="M103.423 1.3357C103.007 1.32622 102.912 1.44266 102.914 1.86374C102.926 3.60899 102.925 5.35424 102.936 7.10084C102.938 7.42579 102.812 7.57201 102.48 7.56118C101.913 7.54493 101.346 7.54493 100.781 7.54493C99.0395 7.54493 97.2999 7.549 95.5589 7.55441C95.2566 7.55441 95.0353 7.51244 95.0393 7.11844C95.0596 5.48151 95.0636 3.84322 95.069 2.20629C95.0717 1.28831 95.0677 1.31133 94.1365 1.33435C93.7113 1.34518 93.6155 1.51849 93.6182 1.90165C93.6304 4.09371 93.6236 6.28711 93.6236 8.47916H93.6344C93.6344 10.5643 93.6331 12.648 93.6344 14.7331C93.6344 15.7228 93.5872 15.6538 94.5575 15.6714C94.9233 15.6781 95.0744 15.5509 95.0731 15.1812C95.0623 13.2992 95.065 11.4186 95.0569 9.5366C95.0542 8.97742 95.0947 8.93274 95.6453 8.93409C97.9261 8.93815 100.206 8.94492 102.486 8.93409C102.841 8.93274 102.933 9.0925 102.933 9.39985C102.932 11.1871 102.937 12.9729 102.933 14.7602C102.932 15.67 102.926 15.67 103.821 15.6727C104.213 15.6727 104.357 15.5306 104.357 15.1366C104.357 14.6356 104.354 14.136 104.354 13.635C104.354 9.88592 104.357 6.13682 104.358 2.38637C104.358 1.70037 104.047 1.3506 103.424 1.33706L103.423 1.3357Z" fill="white"/>
<path d="M141.069 9.50551C141.058 11.3861 141.049 13.2654 141.036 15.1461C141.034 15.4859 141.157 15.6741 141.536 15.6701C142.595 15.6579 142.539 15.7554 142.534 14.6587C142.52 10.5183 142.522 6.37787 142.522 2.23748C142.522 1.36689 142.53 1.36689 141.628 1.33575C141.123 1.3195 141.04 1.41969 141.046 1.90982C141.065 3.65507 141.067 5.39896 141.081 7.14421C141.084 7.45968 140.934 7.58289 140.632 7.568C140.349 7.5531 140.066 7.54092 139.783 7.54227C137.76 7.54633 135.737 7.54904 133.714 7.56394C133.361 7.56664 133.206 7.46645 133.212 7.07651C133.234 5.30419 133.228 3.53186 133.24 1.75954C133.241 1.46573 133.095 1.28971 132.832 1.3371C132.484 1.39938 132.018 1.1137 131.805 1.63768C131.79 1.67288 131.803 1.71756 131.803 1.75818C131.803 4.00304 131.803 6.24789 131.803 8.4941C131.812 8.4941 131.821 8.4941 131.83 8.4941C131.83 10.5778 131.855 12.6616 131.82 14.7453C131.801 15.8907 131.944 15.6173 132.786 15.6701C133.102 15.6904 133.256 15.5496 133.253 15.2138C133.237 13.3331 133.23 11.4525 133.22 9.5732C133.216 8.98965 133.28 8.93278 133.863 8.93278C136.075 8.93549 138.287 8.93414 140.499 8.92872C141.024 8.92872 141.076 8.96934 141.073 9.50551H141.069Z" fill="white"/>
<path d="M126.095 15.8408C127.947 15.4833 129.161 14.0901 129.306 12.3083C129.416 10.9381 129.056 9.76963 127.875 8.94507C127.272 8.524 126.59 8.28028 125.905 8.05011C125.306 7.84837 124.67 7.76172 124.092 7.49228C123.594 7.2594 123.057 7.06443 122.674 6.65689C121.563 5.47489 121.814 3.75131 123.193 2.81843C124.249 2.1049 126.341 1.98034 127.503 3.27201C127.666 3.45344 127.828 3.74048 128.082 3.57936C128.42 3.36272 128.832 3.19348 129.003 2.77917C129.057 2.64919 128.948 2.56525 128.859 2.47318C127.844 1.41438 126.598 0.951333 125.045 1.00955C124.361 0.954041 123.619 1.1463 122.901 1.43469C122.226 1.70548 121.656 2.14146 121.226 2.72907C120.562 3.63351 120.46 4.67741 120.6 5.74568C120.662 6.22092 120.849 6.67856 121.119 7.0888C121.749 8.04876 122.724 8.49827 123.753 8.85436C124.783 9.21045 125.852 9.46093 126.805 10.0201C127.291 10.3044 127.635 10.716 127.787 11.2549C128.16 12.5601 127.546 13.6704 126.195 14.3622C124.937 15.0054 122.617 14.6371 121.763 13.206C121.604 12.9392 121.397 12.9013 121.156 13.0787C120.927 13.2452 120.709 13.4172 120.446 13.5363C120.189 13.6528 120.182 13.8816 120.366 14.0698C120.714 14.4245 121.037 14.8077 121.466 15.0798C122.903 15.9924 124.48 16.1549 126.096 15.8421L126.095 15.8408Z" fill="white"/>
<path d="M116.779 9.02362C115.811 6.7395 114.815 4.46621 113.912 2.15636C113.648 1.47803 113.283 1.28036 112.632 1.31691C112.25 1.33722 111.982 1.44689 111.86 1.82871C111.544 2.80626 111.043 3.70529 110.644 4.64899C109.819 6.60004 108.944 8.52942 108.089 10.4656C107.391 12.0429 106.691 13.6189 105.99 15.1949C105.92 15.3534 105.87 15.5036 106.063 15.6147C106.541 15.8882 107.384 15.6106 107.598 15.1069C108.357 13.3211 109.117 11.5338 109.874 9.74663C110.764 7.648 111.65 5.54802 112.537 3.44939C112.58 3.34784 112.61 3.23005 112.745 3.23817C112.873 3.2463 112.908 3.36409 112.949 3.46293C113.177 4.02482 113.399 4.58942 113.632 5.14996C114.246 6.63254 114.869 8.11105 115.479 9.59634C116.221 11.4039 116.973 13.2073 117.682 15.0284C117.884 15.551 118.168 15.7785 118.621 15.6675C119.464 15.6675 119.566 15.5727 119.346 15.0555C118.491 13.0449 117.629 11.0369 116.777 9.02497L116.779 9.02362Z" fill="white"/>
<path d="M73.2424 26.3582C73.2424 26.3582 73.2329 26.3582 73.2289 26.3582C73.2289 25.0191 73.2316 23.6787 73.2262 22.3396C73.2248 21.9592 73.0629 21.8319 72.6566 21.8495C72.2288 21.8684 72.0669 22.0241 72.0696 22.3924C72.0804 24.4613 72.0885 26.5315 72.0979 28.6017C72.0979 28.7059 72.1303 28.8386 72.0048 28.886C71.8766 28.9347 71.8172 28.8142 71.7578 28.7276C71.2787 28.0425 70.7996 27.356 70.3219 26.6709C69.3582 25.2872 68.3879 23.9061 67.4351 22.5143C67.1206 22.0566 66.7603 21.7791 66.1638 21.8495C65.7063 21.9036 65.6118 21.9578 65.6104 22.4412C65.6064 25.0936 65.6023 27.7446 65.5942 30.397C65.5942 30.5784 65.6361 30.7125 65.8075 30.7924C66.3406 31.0415 66.7832 30.7423 66.7427 30.1628C66.7292 29.961 66.7279 29.7566 66.7265 29.5548C66.7198 27.7432 66.7144 25.9317 66.709 24.1201C66.709 24.005 66.6631 23.8479 66.8156 23.806C66.9573 23.7667 67.0167 23.9088 67.0855 24.0077C67.3905 24.4531 67.6929 24.8999 68.0046 25.3413C69.1599 26.9823 70.3219 28.6193 71.4758 30.2616C71.859 30.8072 72.295 30.986 72.9428 30.8289C73.1573 30.7775 73.2491 30.638 73.2478 30.4146C73.2437 29.062 73.2464 27.7094 73.2464 26.3568L73.2424 26.3582Z" fill="white"/>
<path d="M115.371 29.2463C114.925 28.5381 114.483 27.8273 114.043 27.1151C113.891 26.8674 113.864 26.7171 114.231 26.5966C114.844 26.3975 115.374 26.0712 115.726 25.462C116.363 24.3612 115.922 22.4237 114.232 22.0838C113.014 21.8388 111.787 21.9606 110.567 21.8686C110.261 21.8456 110.126 22.0107 110.13 22.3479C110.147 23.6734 110.136 25.0003 110.136 26.3258H110.127C110.127 27.6784 110.127 29.0323 110.127 30.3849C110.127 30.6327 110.15 30.8493 110.49 30.8358C111.173 30.8101 111.234 30.7776 111.232 30.3755C111.232 29.3478 111.242 28.3188 111.227 27.2912C111.221 26.9459 111.338 26.7821 111.692 26.8078C111.867 26.82 112.043 26.7983 112.219 26.8024C112.452 26.8078 112.61 26.9148 112.736 27.126C113.355 28.1699 114.033 29.1826 114.6 30.2536C114.914 30.848 115.353 30.8615 115.876 30.7979C116.195 30.76 116.285 30.5731 116.071 30.3294C115.78 29.9991 115.6 29.6064 115.37 29.2422L115.371 29.2463ZM111.516 25.772C111.257 25.7774 111.209 25.5581 111.212 25.3347C111.216 25.0111 111.212 24.6875 111.212 24.3639C111.217 24.3639 111.223 24.3639 111.227 24.3639C111.227 23.9997 111.23 23.6355 111.227 23.2713C111.224 23.0465 111.297 22.9098 111.552 22.9192C112.184 22.9409 112.815 22.8894 113.446 22.9693C114.374 23.0871 114.88 23.7343 114.765 24.6482C114.698 25.1844 114.308 25.4389 113.873 25.5919C113.112 25.8614 112.305 25.7544 111.516 25.772V25.772Z" fill="white"/>
<path d="M88.9408 12.3569C89.0042 10.9123 88.9246 9.46488 88.9948 8.01886C89.0204 7.48811 88.6506 7.17806 88.1202 7.27013C86.911 7.47999 85.7018 7.35678 84.4925 7.3121C83.9649 7.29314 83.8245 7.35949 83.7921 7.90784C83.7584 8.48327 83.8002 9.06547 83.8231 9.64361C83.8326 9.8819 83.9932 9.95095 84.2145 9.9496C84.6464 9.94418 85.0783 9.94689 85.5088 9.96179C85.9838 9.97668 86.2497 10.2962 86.1404 10.7647C86.0648 11.0896 86.0486 11.4132 86.0851 11.7314C86.1363 12.1755 85.9595 12.3542 85.5358 12.3745C85.3792 12.3813 85.2146 12.4355 85.0715 12.5045C84.506 12.7794 83.9082 12.7956 83.2955 12.801C82.7327 12.8064 82.2657 12.4747 81.7367 12.4097C80.9688 12.3163 80.4991 11.7219 80.1563 11.2237C79.1806 9.8115 79.0631 8.20706 79.6839 6.59044C79.8203 6.233 80.0105 5.83223 80.298 5.61559C80.6206 5.37188 80.9256 5.11328 81.2265 4.84655C81.348 4.73823 81.4681 4.6245 81.6355 4.59607C82.2198 4.49994 82.8069 4.31851 83.3899 4.33205C84.4075 4.35371 85.4197 4.50264 86.2457 5.20399C86.4036 5.33803 86.6249 5.50592 86.7815 5.34074C87.1054 5.00225 87.517 4.73417 87.7775 4.36996C87.9961 4.06532 88.1945 3.75391 88.4765 3.50343C88.6223 3.37345 88.6048 3.22857 88.4765 3.1189C88.2417 2.91987 88.0096 2.69106 87.7356 2.56649C86.3995 1.96398 85.0283 1.4901 83.9824 1.59164C82.2401 1.63768 80.985 1.73516 79.8446 2.47442C79.5355 2.67481 79.1333 2.76823 78.8405 3.02954C78.3546 3.46552 77.8391 3.86629 77.4666 4.42412C77.0253 5.08485 76.7769 5.81869 76.5259 6.56065C76.117 7.76973 76.1683 8.99506 76.4328 10.2069C76.5839 10.9001 76.7688 11.638 77.1481 12.2175C77.5597 12.8484 78.0536 13.4482 78.6974 13.9275C79.5841 14.5882 80.5463 15.0269 81.6044 15.2354C83.0485 15.5184 84.5074 15.3938 85.9555 15.2246C86.9421 15.1095 87.8395 14.7074 88.7249 14.2823C88.8639 14.2159 88.8976 14.1022 88.9422 13.9668C89.1203 13.4279 88.9192 12.8944 88.9422 12.3569H88.9408ZM88.7573 10.2028C88.7573 10.7444 88.7573 11.286 88.7573 11.8262C88.7573 11.2846 88.7573 10.743 88.7573 10.2028C88.7573 9.63413 88.7573 9.06547 88.7573 8.49816C88.7573 9.06682 88.7573 9.63548 88.7573 10.2028Z" fill="white"/>
<path d="M129.262 29.7499C128.035 29.7621 126.809 29.7635 125.582 29.7635C125.385 29.7635 125.134 29.7811 125.13 29.4886C125.12 28.6789 125.126 27.8693 125.135 27.0596C125.138 26.8213 125.266 26.6846 125.517 26.6859C126.582 26.69 127.647 26.6846 128.711 26.7035C129.187 26.7116 129.38 26.5803 129.375 26.1701C129.371 25.7463 129.184 25.6271 128.716 25.6353C127.652 25.6542 126.587 25.6393 125.522 25.6366C125.251 25.6366 125.135 25.4863 125.136 25.2264C125.14 24.6049 125.146 23.9821 125.147 23.3606C125.147 23.0357 125.302 22.9084 125.625 22.9138C126.784 22.9355 127.944 22.9395 129.103 22.9544C129.412 22.9585 129.679 22.9273 129.691 22.5252C129.706 22.0107 129.586 21.8618 129.112 21.874C127.589 21.9119 126.066 21.9146 124.543 21.8821C124.167 21.874 124.026 22.0067 124.032 22.4047C124.055 23.7167 124.042 25.0287 124.042 26.3407H124.032C124.032 27.7068 124.032 29.0729 124.032 30.4391C124.032 30.6652 124.072 30.8358 124.36 30.8344C126.058 30.8317 127.756 30.8371 129.455 30.8399C129.748 30.8399 129.9 30.7099 129.918 30.4039C129.948 29.8785 129.81 29.7472 129.259 29.7526L129.262 29.7499Z" fill="white"/>
<path d="M57.1969 29.7538C55.9445 29.7673 54.6907 29.7768 53.4383 29.7795C53.1535 29.7795 53.001 29.6563 53.0145 29.3287C53.0429 28.6273 53.0415 27.9233 53.0402 27.2219C53.0402 26.7358 53.1117 26.6641 53.5935 26.6709C54.6853 26.6857 55.7771 26.6871 56.8676 26.7006C57.12 26.7033 57.2347 26.5828 57.2738 26.3486C57.3642 25.8084 57.1955 25.6378 56.653 25.6459C55.5747 25.6608 54.4964 25.6486 53.418 25.6473C53.1603 25.6473 53.0186 25.543 53.0226 25.2587C53.0321 24.6237 53.0388 23.9873 53.0213 23.3523C53.0118 23.0287 53.1481 22.9123 53.4504 22.9231C53.6934 22.9312 53.9349 22.9204 54.1779 22.9231C55.1077 22.9326 56.0376 22.9475 56.9675 22.9529C57.4533 22.9556 57.595 22.8283 57.5869 22.4303C57.5788 21.9659 57.4641 21.863 56.9621 21.8738C56.6787 21.8806 56.3966 21.8941 56.1132 21.8941C54.8999 21.8928 53.6866 21.8819 52.4733 21.8833C51.9848 21.8833 51.9254 21.9523 51.9254 22.4492C51.9254 23.7477 51.9254 25.0461 51.9254 26.3446H51.9173C51.9173 27.6565 51.924 28.9685 51.9132 30.2805C51.9092 30.7287 51.9794 30.8275 52.4355 30.8288C54.0942 30.8316 55.7515 30.8302 57.4101 30.8343C57.5734 30.8343 57.6935 30.8018 57.7637 30.6339C57.9689 30.1451 57.7124 29.7484 57.1955 29.7552L57.1969 29.7538Z" fill="white"/>
<path d="M74.7606 2.54623C74.7606 1.98705 74.4178 1.7474 73.8051 1.91664C73.322 2.04933 72.8442 2.03443 72.3638 1.94372C71.9602 1.8679 71.8415 1.94372 71.8145 2.3648C71.7902 2.74255 71.77 3.12166 71.7754 3.49941C71.8118 5.74427 71.8293 7.98777 71.778 10.2326C71.7753 10.3504 71.828 10.4939 71.6849 10.5576C71.5284 10.6266 71.4258 10.4994 71.3489 10.3978C71.1721 10.1636 70.9939 9.92528 70.8549 9.66802C70.6066 9.20497 70.4136 8.73786 70.0681 8.30189C69.4446 7.51524 69.033 6.56476 68.4513 5.72802C67.9547 5.01313 67.6186 4.18993 67.1058 3.47504C66.8709 3.14738 66.6226 2.81837 66.4539 2.45551C66.2582 2.03308 65.9384 1.91122 65.524 1.88821C64.5712 1.83676 63.6265 2.12786 62.6656 1.94237C62.3619 1.88415 62.1973 2.08588 62.1852 2.40136C62.1541 3.27466 62.1811 4.1466 62.1852 5.01855C62.2013 8.18274 62.1852 11.3456 62.1838 14.5098C62.1838 15.0527 62.3633 15.2409 62.8896 15.1922C63.389 15.1461 63.8829 15.1637 64.3823 15.1881C64.9194 15.2138 65.0989 15.0013 65.1219 14.4583C65.1718 13.2939 65.0949 12.1322 65.0976 10.9692C65.1003 9.46764 65.0895 7.96611 65.0881 6.46457C65.0881 6.31022 65.0436 6.10171 65.2393 6.0462C65.4417 5.98798 65.4485 6.20461 65.5132 6.32647C65.5524 6.39823 65.5929 6.46863 65.6873 6.47676C65.7616 6.59049 65.8371 6.70287 65.9114 6.8166C66.103 7.83613 66.9317 8.49415 67.3649 9.37557C67.5133 9.6775 67.6429 10.0038 67.8548 10.2556C68.7239 11.2887 69.2071 12.5641 70.0114 13.6365C70.311 14.0359 70.4743 14.522 70.7861 14.9187C70.8711 15.027 70.9345 15.1394 71.0952 15.1421C72.1303 15.1624 73.1668 15.1976 74.2019 15.203C74.6392 15.2057 74.7849 15.0107 74.7768 14.5572C74.7647 13.9221 74.7417 13.2858 74.7417 12.6508C74.7444 9.2835 74.7539 5.91487 74.7593 2.54758L74.7606 2.54623Z" fill="white"/>
<path d="M101.23 21.8645C100.942 21.8794 100.597 21.8375 100.603 22.2951C100.605 22.5794 100.612 22.8637 100.603 23.1481C100.551 24.8365 100.742 26.533 100.5 28.2146C100.242 30.0018 98.3746 30.343 97.191 29.712C96.388 29.2842 96.1478 28.5043 96.1194 27.6581C96.0911 26.7929 96.1127 25.9264 96.1127 25.0599H96.1086C96.1086 24.1527 96.11 23.2456 96.1086 22.3398C96.1086 21.9783 95.9507 21.8442 95.5283 21.8645C95.2408 21.8781 94.9709 21.8889 94.9777 22.3235C95.0006 23.6084 94.9898 24.8947 94.9898 26.1809C94.9898 26.9107 94.9628 27.6405 95.0667 28.3662C95.1572 28.9972 95.4244 29.5509 95.8293 30.0356C96.3569 30.6693 97.083 30.9211 97.8644 30.9915C98.9252 31.0863 99.9428 30.9577 100.754 30.1589C101.43 29.4927 101.695 28.6329 101.716 27.7272C101.761 25.9142 101.73 24.0999 101.735 22.287C101.735 21.9282 101.512 21.8523 101.228 21.8659L101.23 21.8645Z" fill="white"/>
<path d="M141.643 26.2607C140.861 25.8938 140.016 25.6921 139.233 25.3265C138.543 25.0042 138.263 24.1851 138.634 23.5163C139.121 22.6402 140.686 22.4182 141.543 23.106C141.868 23.366 142.188 23.3538 142.503 23.0695C142.788 22.8122 142.772 22.5617 142.469 22.3437C141.568 21.6911 140.56 21.553 139.503 21.7764C137.912 22.1136 137.076 23.1805 137.368 24.8296C137.419 25.1193 137.501 25.3928 137.698 25.6433C138.113 26.1714 138.682 26.4218 139.276 26.6466C139.904 26.8849 140.569 27.0135 141.151 27.3804C141.955 27.8882 142.039 28.8806 141.307 29.4926C140.427 30.2278 139.116 30.1669 138.302 29.3288C138.057 29.0769 137.852 29.0756 137.613 29.3017C137.545 29.3667 137.469 29.4249 137.399 29.4872C137.08 29.7675 137.097 29.8771 137.399 30.1628C138.094 30.8195 138.954 30.9792 139.95 31.0402C141.059 30.9319 142.199 30.703 142.766 29.4493C143.313 28.2388 142.896 26.8497 141.645 26.2634L141.643 26.2607Z" fill="white"/>
<path d="M44.4786 21.8821C44.0346 21.7074 43.5312 21.9295 43.3598 22.383C43.0872 23.1006 42.8227 23.8209 42.5447 24.5372C42.0318 25.8573 41.5136 27.176 40.9967 28.4948C40.9441 28.6302 40.9238 28.8265 40.7538 28.8333C40.5351 28.8428 40.5581 28.6112 40.5054 28.4731C40.2814 27.8801 40.0736 27.2789 39.8509 26.6859C39.3246 25.2859 38.782 23.89 38.2665 22.4859C38.0667 21.9417 38.0208 21.878 37.4365 21.8631C36.8723 21.8496 36.7657 21.9945 37.0087 22.5496C37.6187 23.9469 38.1194 25.3875 38.6713 26.8078C39.1302 27.9871 39.5823 29.1704 40.0196 30.3578C40.1087 30.6002 40.1626 30.8236 40.4825 30.8195C40.8212 30.8155 41.1951 30.9441 41.3732 30.4865C41.6067 29.8826 41.8645 29.2882 42.1007 28.6843C42.8078 26.8768 43.5096 25.0666 44.2168 23.2577C44.345 22.9314 44.4854 22.6092 44.6109 22.2815C44.673 22.1204 44.6932 21.9647 44.4813 21.8807L44.4786 21.8821Z" fill="white"/>
<path d="M60.3201 6.32109C60.1433 5.86887 59.9544 5.42071 59.7978 4.96172C59.7398 4.79113 59.6507 4.6625 59.5495 4.51763C59.1972 4.01531 58.7141 3.6511 58.2957 3.22054C57.7964 2.70739 57.1486 2.4014 56.5372 2.14279C55.1768 1.56872 53.7058 1.53216 52.2415 1.6486C52.0552 1.66349 51.8555 1.67974 51.6881 1.75556C50.6908 2.20643 49.5976 2.41088 48.7096 3.15149C48.1104 3.6511 47.6596 4.26173 47.2223 4.85882C46.8431 5.37739 46.6191 6.07061 46.5259 6.73811C46.2425 8.78258 46.2236 10.7729 47.5381 12.5669C48.0928 13.3251 48.7055 13.9317 49.5153 14.4137C50.7569 15.1529 52.0836 15.4048 53.4912 15.3939C54.9244 15.3831 56.2821 15.1421 57.54 14.3582C58.4658 13.7814 59.2836 13.1003 59.7546 12.1444C60.3255 10.9828 60.7628 9.74524 60.6035 8.5673C60.617 7.68859 60.5806 6.98724 60.3201 6.31839V6.32109ZM53.8502 12.7632C52.8812 12.95 52.0188 12.5398 51.1604 12.2176C50.7245 12.0537 50.4978 11.5609 50.2265 11.1818C49.6259 10.3464 49.2953 9.36884 49.3587 8.36827C49.4262 7.29729 49.7528 6.25069 50.5666 5.4505C50.7394 5.28126 50.8919 5.08087 51.0889 4.94818C51.8258 4.45399 52.6517 4.26038 53.5303 4.31453C53.892 4.3362 54.2496 4.43097 54.6113 4.45941C55.2268 4.5068 55.6627 4.88861 56.1323 5.22168C57.2984 6.04895 57.4509 7.3 57.5534 8.57407C57.5939 9.38509 57.3456 10.1095 56.9853 10.8216C56.328 12.1174 55.1417 12.5168 53.8515 12.7659L53.8502 12.7632Z" fill="white"/>
<path d="M86.9499 21.8686C85.2926 21.9119 83.634 21.9119 81.9753 21.8821C81.6271 21.8753 81.2735 21.8591 80.9307 21.9051C80.4975 21.9634 80.5974 22.333 80.6068 22.6146C80.6149 22.8827 80.7904 22.9707 81.0508 22.9612C81.6838 22.9396 82.3168 22.9436 82.9497 22.9247C83.4261 22.9098 83.5273 22.9815 83.53 23.4649C83.5368 24.6144 83.53 25.7639 83.5273 26.9134C83.5233 28.0616 83.5192 29.2111 83.5085 30.3592C83.5058 30.5907 83.5692 30.7925 83.8081 30.8114C84.0901 30.8345 84.4086 30.9116 84.634 30.6381C84.6704 30.5935 84.6691 30.5109 84.6691 30.4459C84.6704 29.23 84.6704 28.0142 84.6704 26.7983H84.6381C84.6381 25.6894 84.6381 24.5792 84.6381 23.4703C84.6381 23.0045 84.7163 22.9247 85.1738 22.9233C85.8203 22.9233 86.4681 22.926 87.1146 22.9355C87.3521 22.9382 87.5505 22.8908 87.6018 22.6214C87.7016 22.092 87.4884 21.8537 86.9499 21.8686Z" fill="white"/>
<path d="M31.1875 16.9673C30.4601 16.5232 29.6881 16.163 28.9715 15.7013C28.8797 15.6417 28.7677 15.5889 28.7677 15.4698C28.7677 15.3371 28.8972 15.31 28.9957 15.2748C29.1887 15.2044 29.3831 15.134 29.4748 14.9323C29.7799 14.2607 29.7016 13.5702 29.5626 12.8797C29.5572 12.8553 29.4951 12.8431 29.4587 12.8255C29.402 12.8237 29.402 12.8237 29.4587 12.8255C29.4546 12.6685 29.3115 12.6536 29.2171 12.5926C28.854 12.3611 28.4114 12.2582 28.1388 11.8764C28.0173 11.7072 27.935 11.4932 27.7244 11.3998C27.9215 10.9841 28.3331 10.976 28.7015 10.8772C28.989 10.8 29.3264 10.8041 29.4614 10.4493C29.7961 9.8387 29.6503 9.18204 29.6422 8.53891C29.5612 8.27624 29.3601 8.107 29.1415 7.98108C28.2238 7.45304 27.2966 6.94124 26.3721 6.42403C26.0212 6.22906 25.7189 6.03409 25.7783 5.53178C25.8256 5.13372 25.7689 4.72347 25.7567 4.31864C25.7432 3.8786 25.6339 3.51709 25.0981 3.50356L25.0806 3.48054L25.0536 3.48866C25.0198 3.46835 24.9861 3.44669 24.951 3.42638L24.947 3.4169C24.9173 3.23276 24.7432 3.22464 24.6231 3.15424C23.9618 2.767 23.2775 2.41362 22.6432 1.98713C21.9576 1.52678 21.2086 1.3088 20.4083 1.2939C19.6228 1.28036 18.8779 1.57823 18.1288 1.76508C17.2435 1.98577 16.3649 2.27552 15.4742 2.46372C13.8655 2.80356 12.3067 3.32348 10.698 3.65249C10.3579 3.72154 10.1838 3.91922 10.1487 4.25771C10.1298 4.44591 10.0907 4.63275 10.0853 4.82095C10.0502 6.24125 10.0745 7.66155 10.0394 9.08184C10.0016 10.5807 10.0569 12.0822 10.0731 13.5824C10.0745 13.7611 10.0866 13.9493 9.90578 14.0509C9.73438 14.147 9.64531 13.9669 9.51844 13.9073C9.05553 13.6907 8.67765 13.3157 8.1702 13.1857C8.1648 13.164 8.14996 13.1545 8.12836 13.1572C8.07978 13.0097 7.94347 12.969 7.82336 12.9135C7.57233 12.7957 7.48326 12.6062 7.48596 12.3286C7.5008 11.152 7.49136 9.97681 7.5089 8.80022C7.51295 8.47257 7.38744 8.32363 7.06624 8.33175C7.06084 8.30332 7.04329 8.28843 7.0136 8.28707L7.0082 8.25864C7.0082 8.25864 6.98256 8.26541 6.98121 8.26541C6.96502 8.24375 6.95017 8.22208 6.93398 8.20042C6.83411 7.96619 6.62897 7.92151 6.40764 7.90255L6.37929 7.89037C6.38469 7.84162 6.3658 7.82808 6.32126 7.84975C6.31856 7.82673 6.30642 7.8159 6.28347 7.81725C6.14312 7.52886 5.857 7.48282 5.59248 7.40159H5.58978C5.5466 7.29192 5.47102 7.23505 5.34956 7.2513L5.33606 7.24318C4.8745 6.92093 4.44263 6.54995 3.8812 6.40372C3.85016 6.38612 3.81912 6.36717 3.78808 6.34957C3.58159 6.12346 3.38185 6.18845 3.18346 6.3604C3.15377 6.37394 3.12408 6.38748 3.09439 6.40102C3.0566 6.36717 3.03636 6.38477 3.02421 6.42539H3.02286C2.08759 6.42539 1.24275 6.81939 0.360117 7.04821C0.0888489 7.11861 -0.07985 7.30817 0.045662 7.63311C0.0726538 7.70352 0.0564587 7.79288 0.0551091 7.87412C0.0362148 8.95457 -0.0434111 10.0337 0.068605 11.1141C0.0821009 11.2455 0.136085 11.3348 0.226507 11.4269C0.930994 12.1499 2.01067 12.2623 2.72325 12.9731C2.76239 13.0124 2.85956 12.988 2.91759 13.0164C3.51276 13.3224 3.8947 13.5932 3.8731 14.258C3.82857 15.6499 3.87985 17.0444 3.8812 18.4377C3.8812 18.7112 3.97162 18.9237 4.2132 19.0361C4.82456 19.3204 5.35765 19.7348 5.94203 20.0611C6.12152 20.1612 6.19035 20.2709 6.1863 20.474C6.17146 21.5558 6.16606 22.639 6.16201 23.7208C6.16201 24.0024 6.24838 24.3098 6.49401 24.4127C7.10807 24.6699 7.62227 25.091 8.20394 25.3916C8.60747 25.5987 8.98536 25.8722 9.43477 25.9792C9.98675 26.1105 10.0812 26.2283 10.0839 26.801C10.0853 27.1246 9.9962 27.4523 10.0286 27.7623C10.0866 28.3134 10.1163 28.8807 10.8572 29.0865C11.3188 29.2151 11.7075 29.5942 12.1407 29.8407C12.8749 30.259 13.6347 30.6354 14.354 31.0782C15.0396 31.4993 15.7859 31.8161 16.4432 32.2751C16.9398 32.6217 17.504 32.8383 18.0006 33.1958C18.3772 33.4665 18.8576 33.8172 19.4069 33.4571C19.4595 33.4219 19.5378 33.4259 19.6026 33.4083C20.4029 33.1836 21.2396 33.1105 22.0265 32.818C22.2451 32.7368 22.3841 32.6515 22.3935 32.4105C22.4178 31.7755 22.3719 31.1445 22.3099 30.5136C22.3045 30.4648 22.2748 30.3998 22.2356 30.3755C21.8267 30.1155 21.4731 29.7202 20.9144 29.8136C21.0359 29.9472 21.0359 29.9472 20.9144 29.8136C20.882 29.7797 20.8483 29.7459 20.8159 29.7107C20.8213 29.6552 20.7916 29.6416 20.743 29.6511L20.7362 29.6484C20.6998 29.5536 20.6121 29.5225 20.5325 29.4792C20.5527 29.2855 20.6863 29.2097 20.8537 29.1799C21.1668 29.1231 21.4745 29.0256 21.7984 29.0527C21.8861 29.2341 22.048 29.3262 22.2208 29.4088C23.2546 29.8975 24.148 30.6314 25.1845 31.1174C25.3411 31.1906 25.4949 31.2935 25.615 31.4167C25.8768 31.6875 26.1764 31.7064 26.5071 31.6062C27.4221 31.3287 28.3844 31.2501 29.2927 30.9347C29.5464 30.8466 29.6543 30.7437 29.6584 30.4987C29.6651 29.9991 29.6813 29.4981 29.6732 28.9985C29.6638 28.3906 29.5423 28.2389 28.958 28.0209C28.7812 27.9546 28.6071 27.8856 28.4316 27.8179C28.4208 27.8206 28.4127 27.8246 28.406 27.8314C28.4127 27.8246 28.4208 27.8206 28.4316 27.8179C28.3628 27.6554 28.2184 27.5796 28.0726 27.5105C27.7636 27.3643 27.6111 27.0705 27.6516 26.7848C27.7217 26.2933 27.6381 25.8181 27.6354 25.3361C27.63 24.3937 27.6354 23.45 27.6569 22.5076C27.6664 22.0541 27.7001 21.7603 28.1684 21.6479C28.2967 21.6953 28.3925 21.786 28.5004 21.8632C28.8014 22.0757 29.0916 22.3844 29.4924 22.3249C30.0093 22.249 30.5208 22.1164 31.0255 21.9783C31.5438 21.8361 31.672 21.6574 31.6895 21.1144C31.7233 20.0651 31.672 19.0144 31.7354 17.9638C31.7611 17.5454 31.5978 17.215 31.1902 16.9659L31.1875 16.9673ZM13.9438 6.2575C13.9438 6.2575 13.9411 6.2575 13.9397 6.25614C13.9411 6.25614 13.9424 6.25614 13.9438 6.2575ZM12.9235 7.99733C12.8195 8.10158 12.694 8.18688 12.5942 8.2952C12.4646 8.43601 12.3539 8.58088 12.4794 8.79751C12.5888 8.98707 12.5307 9.1712 12.3512 9.29441C12.165 9.42304 12.0678 9.24703 11.9369 9.16037C11.582 8.92343 11.4538 8.56599 11.3687 8.19094C11.4497 7.83485 11.4551 7.43408 11.8114 7.26078C12.1852 7.07935 12.5537 7.23505 12.8776 7.45168C13.1016 7.60197 13.1178 7.79965 12.9235 7.99597V7.99733ZM27.5989 20.8667C27.5476 21.1889 27.6961 21.4529 27.9889 21.5897C27.6947 21.4529 27.5463 21.1889 27.5989 20.8667Z" fill="white"/>
</g>
<defs>
<clipPath id="clip0_504_363">
<rect width="144.692" height="33" fill="white"/>
</clipPath>
</defs>
</svg>
