<svg width="186" height="55" viewBox="0 0 186 55" fill="none" xmlns="http://www.w3.org/2000/svg">
<path d="M64.2705 15.6768H68.5816C69.6789 15.6768 70.3844 15.9119 70.9331 16.4606C71.2466 16.7742 71.4818 17.2445 71.4818 17.7931C71.4818 18.8121 70.9331 19.3608 70.1492 19.6743C71.1682 19.9879 71.7953 20.6149 71.7953 21.7123C71.7953 23.2016 70.6195 24.0638 68.5816 24.0638H64.2705V15.6768ZM68.0329 19.0473C68.7384 19.0473 69.1303 18.8121 69.1303 18.3418C69.1303 17.8715 68.7384 17.6364 68.0329 17.6364H66.5436V19.1257H68.0329V19.0473ZM68.3464 22.261C69.0519 22.261 69.4438 21.9475 69.4438 21.4772C69.4438 21.0069 69.0519 20.6933 68.2681 20.6933H66.4652V22.261H68.3464V22.261ZM77.2821 15.6768H79.6336V22.1042H83.7095V24.1422H77.2821V15.6768ZM88.3342 19.9095C88.3342 17.4796 90.2937 15.4417 92.8804 15.4417C95.467 15.4417 97.4266 17.4012 97.4266 19.8311C97.4266 22.261 95.467 24.2206 92.8804 24.2206C90.2937 24.299 88.3342 22.3394 88.3342 19.9095ZM95.0751 19.9095C95.0751 18.6554 94.2129 17.558 92.8804 17.558C91.6263 17.558 90.764 18.577 90.764 19.8311C90.764 21.0852 91.6263 22.1042 92.9588 22.1042C94.2129 22.1826 95.0751 21.1636 95.0751 19.9095V19.9095ZM102.757 19.9095C102.757 17.4012 104.638 15.4417 107.225 15.4417C108.949 15.4417 110.046 16.1471 110.83 17.2445L109.027 18.577C108.557 17.9499 108.008 17.558 107.146 17.558C105.97 17.558 105.108 18.577 105.108 19.8311C105.108 21.0852 105.97 22.1042 107.146 22.1042C108.008 22.1042 108.557 21.7123 109.027 21.0852L110.83 22.3394C110.046 23.4367 108.949 24.2206 107.068 24.2206C104.716 24.299 102.757 22.4961 102.757 19.9095V19.9095ZM116.317 15.6768H118.668V19.1257L121.569 15.6768H124.39L121.177 19.3608L124.469 24.2206H121.647L119.531 21.0852L118.668 22.0258V24.2206H116.317V15.6768ZM128.545 19.9095C128.545 17.4012 130.426 15.4417 133.013 15.4417C134.737 15.4417 135.834 16.1471 136.618 17.2445L134.815 18.577C134.345 17.9499 133.796 17.558 132.934 17.558C131.758 17.558 130.896 18.577 130.896 19.8311C130.896 21.0852 131.758 22.1042 132.934 22.1042C133.796 22.1042 134.345 21.7123 134.815 21.0852L136.618 22.3394C135.834 23.4367 134.737 24.2206 132.856 24.2206C130.504 24.299 128.545 22.4961 128.545 19.9095V19.9095ZM142.027 15.6768H144.378V18.8121H147.357V15.6768H149.708V24.1422H147.357V20.9285H144.378V24.1422H142.027V15.6768ZM158.566 15.5984H160.839L164.444 24.1422H161.936L161.309 22.6529H158.017L157.39 24.1422H154.882L158.566 15.5984ZM160.603 20.7717L159.663 18.3418L158.722 20.7717H160.603V20.7717ZM169.618 15.6768H171.969V24.1422H169.618V15.6768ZM177.926 15.6768H180.121L183.648 20.1446V15.6768H186V24.1422H183.962L180.356 19.5176V24.1422H178.005V15.6768H177.926ZM64.3489 35.9781C64.3489 33.5482 66.1517 31.5886 68.66 31.5886C70.2276 31.5886 71.0899 32.1373 71.9521 32.9211L71.325 33.6266C70.5412 32.9211 69.7573 32.4508 68.66 32.4508C66.7788 32.4508 65.3679 33.9401 65.3679 35.8997C65.3679 37.8592 66.7788 39.4269 68.66 39.4269C69.8357 39.4269 70.6195 38.9566 71.4034 38.1728L72.0304 38.7998C71.1682 39.6621 70.1492 40.2891 68.66 40.2891C66.1517 40.3675 64.3489 38.4079 64.3489 35.9781V35.9781ZM81.2013 31.667H82.0635L85.9043 40.2107H84.8853L83.8663 37.9376H79.2417L78.2227 40.2107H77.2037L81.2013 31.667ZM83.5528 37.0754L81.5932 32.7643L79.6336 37.0754H83.5528ZM91.9398 31.7454H95.0751C96.9563 31.7454 98.2104 32.7643 98.2104 34.4104C98.2104 36.2132 96.7212 37.1538 94.84 37.1538H92.802V40.1324H91.8614V31.7454H91.9398ZM94.9967 36.37C96.4076 36.37 97.3482 35.5861 97.3482 34.4888C97.3482 33.313 96.4076 32.686 95.0751 32.686H92.9588V36.4484H94.9967V36.37ZM104.481 31.7454H105.422V40.2107H104.481V31.7454ZM114.514 32.6076H111.692V31.7454H118.355V32.6076H115.533V40.2107H114.593V32.6076H114.514ZM126.585 31.667H127.447L131.288 40.2107H130.269L129.25 37.9376H124.626L123.607 40.2107H122.588L126.585 31.667V31.667ZM128.937 37.0754L126.977 32.7643L125.018 37.0754H128.937ZM137.324 31.7454H138.264V39.3485H143.046V40.2107H137.324V31.7454V31.7454Z" fill="white"/>
<path d="M31.6703 34.8017C32.7092 34.8017 33.5515 33.9595 33.5515 32.9205C33.5515 31.8815 32.7092 31.0393 31.6703 31.0393C30.6313 31.0393 29.7891 31.8815 29.7891 32.9205C29.7891 33.9595 30.6313 34.8017 31.6703 34.8017Z" fill="white"/>
<path opacity="0.9" d="M34.7987 38.4078C35.751 38.4078 36.5231 37.6358 36.5231 36.6834C36.5231 35.731 35.751 34.959 34.7987 34.959C33.8463 34.959 33.0742 35.731 33.0742 36.6834C33.0742 37.6358 33.8463 38.4078 34.7987 38.4078Z" fill="white"/>
<path opacity="0.8" d="M37.4729 41.8568C38.3387 41.8568 39.0406 41.1549 39.0406 40.2891C39.0406 39.4233 38.3387 38.7214 37.4729 38.7214C36.6071 38.7214 35.9053 39.4233 35.9053 40.2891C35.9053 41.1549 36.6071 41.8568 37.4729 41.8568Z" fill="white"/>
<path opacity="0.7" d="M39.5051 45.0708C40.1977 45.0708 40.7592 44.5093 40.7592 43.8166C40.7592 43.124 40.1977 42.5625 39.5051 42.5625C38.8125 42.5625 38.251 43.124 38.251 43.8166C38.251 44.5093 38.8125 45.0708 39.5051 45.0708Z" fill="white"/>
<path opacity="0.6" d="M41.1469 48.2059C41.7097 48.2059 42.1659 47.7497 42.1659 47.1869C42.1659 46.6242 41.7097 46.168 41.1469 46.168C40.5841 46.168 40.1279 46.6242 40.1279 47.1869C40.1279 47.7497 40.5841 48.2059 41.1469 48.2059Z" fill="white"/>
<path opacity="0.5" d="M42.2492 51.4974C42.7687 51.4974 43.1898 51.0763 43.1898 50.5568C43.1898 50.0373 42.7687 49.6162 42.2492 49.6162C41.7297 49.6162 41.3086 50.0373 41.3086 50.5568C41.3086 51.0763 41.7297 51.4974 42.2492 51.4974Z" fill="white"/>
<path opacity="0.4" d="M42.8773 54.398C43.2669 54.398 43.5828 54.0821 43.5828 53.6925C43.5828 53.3029 43.2669 52.9871 42.8773 52.9871C42.4877 52.9871 42.1719 53.3029 42.1719 53.6925C42.1719 54.0821 42.4877 54.398 42.8773 54.398Z" fill="white"/>
<path d="M32.14 28.4528C33.1789 28.4528 34.0212 27.6106 34.0212 26.5716C34.0212 25.5327 33.1789 24.6904 32.14 24.6904C31.101 24.6904 30.2588 25.5327 30.2588 26.5716C30.2588 27.6106 31.101 28.4528 32.14 28.4528Z" fill="white"/>
<path opacity="0.9" d="M36.6756 26.494C37.628 26.494 38.4 25.722 38.4 24.7696C38.4 23.8172 37.628 23.0452 36.6756 23.0452C35.7232 23.0452 34.9512 23.8172 34.9512 24.7696C34.9512 25.722 35.7232 26.494 36.6756 26.494Z" fill="white"/>
<path opacity="0.8" d="M40.9085 24.8475C41.7743 24.8475 42.4761 24.1456 42.4761 23.2798C42.4761 22.414 41.7743 21.7122 40.9085 21.7122C40.0427 21.7122 39.3408 22.414 39.3408 23.2798C39.3408 24.1456 40.0427 24.8475 40.9085 24.8475Z" fill="white"/>
<path opacity="0.7" d="M44.8332 23.6716C45.5259 23.6716 46.0874 23.1101 46.0874 22.4175C46.0874 21.7248 45.5259 21.1633 44.8332 21.1633C44.1406 21.1633 43.5791 21.7248 43.5791 22.4175C43.5791 23.1101 44.1406 23.6716 44.8332 23.6716Z" fill="white"/>
<path opacity="0.6" d="M48.5942 22.9667C49.1569 22.9667 49.6132 22.5105 49.6132 21.9477C49.6132 21.3849 49.1569 20.9287 48.5942 20.9287C48.0314 20.9287 47.5752 21.3849 47.5752 21.9477C47.5752 22.5105 48.0314 22.9667 48.5942 22.9667Z" fill="white"/>
<path opacity="0.5" d="M52.1203 22.8875C52.6398 22.8875 53.0609 22.4664 53.0609 21.9469C53.0609 21.4275 52.6398 21.0063 52.1203 21.0063C51.6008 21.0063 51.1797 21.4275 51.1797 21.9469C51.1797 22.4664 51.6008 22.8875 52.1203 22.8875Z" fill="white"/>
<path opacity="0.4" d="M55.3363 22.9661C55.7259 22.9661 56.0418 22.6502 56.0418 22.2606C56.0418 21.871 55.7259 21.5552 55.3363 21.5552C54.9467 21.5552 54.6309 21.871 54.6309 22.2606C54.6309 22.6502 54.9467 22.9661 55.3363 22.9661Z" fill="white"/>
<path d="M26.1751 26.0231C27.2141 26.0231 28.0563 25.1809 28.0563 24.1419C28.0563 23.103 27.2141 22.2607 26.1751 22.2607C25.1362 22.2607 24.2939 23.103 24.2939 24.1419C24.2939 25.1809 25.1362 26.0231 26.1751 26.0231Z" fill="white"/>
<path opacity="0.9" d="M25.868 20.9281C26.8204 20.9281 27.5924 20.1561 27.5924 19.2037C27.5924 18.2513 26.8204 17.4792 25.868 17.4792C24.9156 17.4792 24.1436 18.2513 24.1436 19.2037C24.1436 20.1561 24.9156 20.9281 25.868 20.9281Z" fill="white"/>
<path opacity="0.8" d="M25.7864 16.3035C26.6522 16.3035 27.3541 15.6017 27.3541 14.7359C27.3541 13.8701 26.6522 13.1682 25.7864 13.1682C24.9206 13.1682 24.2188 13.8701 24.2188 14.7359C24.2188 15.6017 24.9206 16.3035 25.7864 16.3035Z" fill="white"/>
<path opacity="0.7" d="M26.1848 11.9926C26.8774 11.9926 27.4389 11.4311 27.4389 10.7385C27.4389 10.0459 26.8774 9.48438 26.1848 9.48438C25.4922 9.48438 24.9307 10.0459 24.9307 10.7385C24.9307 11.4311 25.4922 11.9926 26.1848 11.9926Z" fill="white"/>
<path opacity="0.6" d="M26.8881 8.07385C27.4509 8.07385 27.9071 7.61764 27.9071 7.05487C27.9071 6.4921 27.4509 6.03589 26.8881 6.03589C26.3254 6.03589 25.8691 6.4921 25.8691 7.05487C25.8691 7.61764 26.3254 8.07385 26.8881 8.07385Z" fill="white"/>
<path opacity="0.5" d="M27.8996 4.62485C28.4191 4.62485 28.8402 4.20373 28.8402 3.68425C28.8402 3.16477 28.4191 2.74365 27.8996 2.74365C27.3801 2.74365 26.959 3.16477 26.959 3.68425C26.959 4.20373 27.3801 4.62485 27.8996 4.62485Z" fill="white"/>
<path opacity="0.4" d="M29.2387 1.4109C29.6283 1.4109 29.9441 1.09506 29.9441 0.705449C29.9441 0.31584 29.6283 0 29.2387 0C28.849 0 28.5332 0.31584 28.5332 0.705449C28.5332 1.09506 28.849 1.4109 29.2387 1.4109Z" fill="white"/>
<path d="M22.0287 30.9616C23.0676 30.9616 23.9099 30.1194 23.9099 29.0804C23.9099 28.0415 23.0676 27.1992 22.0287 27.1992C20.9897 27.1992 20.1475 28.0415 20.1475 29.0804C20.1475 30.1194 20.9897 30.9616 22.0287 30.9616Z" fill="white"/>
<path opacity="0.9" d="M17.2391 29.5507C18.1915 29.5507 18.9635 28.7786 18.9635 27.8262C18.9635 26.8739 18.1915 26.1018 17.2391 26.1018C16.2867 26.1018 15.5146 26.8739 15.5146 27.8262C15.5146 28.7786 16.2867 29.5507 17.2391 29.5507Z" fill="white"/>
<path opacity="0.8" d="M13.011 28.0611C13.8768 28.0611 14.5787 27.3592 14.5787 26.4934C14.5787 25.6276 13.8768 24.9258 13.011 24.9258C12.1452 24.9258 11.4434 25.6276 11.4434 26.4934C11.4434 27.3592 12.1452 28.0611 13.011 28.0611Z" fill="white"/>
<path opacity="0.7" d="M9.32151 26.101C10.0142 26.101 10.5756 25.5395 10.5756 24.8469C10.5756 24.1543 10.0142 23.5928 9.32151 23.5928C8.62888 23.5928 8.06738 24.1543 8.06738 24.8469C8.06738 25.5395 8.62888 26.101 9.32151 26.101Z" fill="white"/>
<path opacity="0.6" d="M5.95355 24.0631C6.51632 24.0631 6.97253 23.6069 6.97253 23.0441C6.97253 22.4814 6.51632 22.0251 5.95355 22.0251C5.39078 22.0251 4.93457 22.4814 4.93457 23.0441C4.93457 23.6069 5.39078 24.0631 5.95355 24.0631Z" fill="white"/>
<path opacity="0.5" d="M3.13591 21.9471C3.65539 21.9471 4.07651 21.526 4.07651 21.0065C4.07651 20.487 3.65539 20.0659 3.13591 20.0659C2.61643 20.0659 2.19531 20.487 2.19531 21.0065C2.19531 21.526 2.61643 21.9471 3.13591 21.9471Z" fill="white"/>
<path opacity="0.4" d="M0.705449 19.5962C1.09506 19.5962 1.4109 19.2804 1.4109 18.8908C1.4109 18.5011 1.09506 18.1853 0.705449 18.1853C0.31584 18.1853 0 18.5011 0 18.8908C0 19.2804 0.31584 19.5962 0.705449 19.5962Z" fill="white"/>
<path d="M25.389 36.3693C26.428 36.3693 27.2702 35.5271 27.2702 34.4881C27.2702 33.4492 26.428 32.6069 25.389 32.6069C24.3501 32.6069 23.5078 33.4492 23.5078 34.4881C23.5078 35.5271 24.3501 36.3693 25.389 36.3693Z" fill="white"/>
<path opacity="0.9" d="M22.8104 40.3671C23.7627 40.3671 24.5348 39.595 24.5348 38.6426C24.5348 37.6903 23.7627 36.9182 22.8104 36.9182C21.858 36.9182 21.0859 37.6903 21.0859 38.6426C21.0859 39.595 21.858 40.3671 22.8104 40.3671Z" fill="white"/>
<path opacity="0.8" d="M20.2171 43.8946C21.0829 43.8946 21.7847 43.1927 21.7847 42.3269C21.7847 41.4611 21.0829 40.7593 20.2171 40.7593C19.3513 40.7593 18.6494 41.4611 18.6494 42.3269C18.6494 43.1927 19.3513 43.8946 20.2171 43.8946Z" fill="white"/>
<path opacity="0.7" d="M17.4807 46.5595C18.1733 46.5595 18.7348 45.998 18.7348 45.3054C18.7348 44.6128 18.1733 44.0513 17.4807 44.0513C16.7881 44.0513 16.2266 44.6128 16.2266 45.3054C16.2266 45.998 16.7881 46.5595 17.4807 46.5595Z" fill="white"/>
<path opacity="0.6" d="M14.808 48.9115C15.3708 48.9115 15.827 48.4553 15.827 47.8925C15.827 47.3297 15.3708 46.8735 14.808 46.8735C14.2453 46.8735 13.7891 47.3297 13.7891 47.8925C13.7891 48.4553 14.2453 48.9115 14.808 48.9115Z" fill="white"/>
<path opacity="0.5" d="M11.9904 50.9488C12.5099 50.9488 12.931 50.5277 12.931 50.0082C12.931 49.4887 12.5099 49.0676 11.9904 49.0676C11.4709 49.0676 11.0498 49.4887 11.0498 50.0082C11.0498 50.5277 11.4709 50.9488 11.9904 50.9488Z" fill="white"/>
<path opacity="0.4" d="M9.16736 52.2815C9.55697 52.2815 9.87281 51.9657 9.87281 51.5761C9.87281 51.1864 9.55697 50.8706 9.16736 50.8706C8.77775 50.8706 8.46191 51.1864 8.46191 51.5761C8.46191 51.9657 8.77775 52.2815 9.16736 52.2815Z" fill="white"/>
</svg>
