<svg width="150" height="26" viewBox="0 0 150 26" fill="none" xmlns="http://www.w3.org/2000/svg">
<g clip-path="url(#clip0_504_423)">
<path d="M144.706 0H149.858C150 0.400941 150.057 24.1822 149.925 25.1336C149.511 25.2427 146.081 25.2735 145.225 25.1691C145.183 24.6472 145.14 24.111 145.086 23.4373C144.801 23.6698 144.607 23.8169 144.425 23.9758C143.337 24.9272 142.072 25.506 140.605 25.7243C137.387 26.2012 133.89 24.5547 132.455 21.7718C130.607 18.1847 130.946 14.6854 133.274 11.4185C134.853 9.20267 137.23 8.37706 139.987 8.55025C141.621 8.65226 143.09 9.20979 144.357 10.2204C144.427 10.2774 144.512 10.3153 144.701 10.4268C144.706 9.48736 144.701 8.64277 144.704 7.80056C144.704 6.92751 144.704 6.05445 144.704 5.18139V0H144.706ZM145.203 17.1408C145.153 14.7779 143.796 13.2287 141.419 12.9725C139.483 12.7637 137.417 13.5774 136.816 15.8265C136.656 16.4196 136.619 17.0697 136.669 17.6817C136.826 19.6865 138.156 21.0387 140.214 21.3116C142.122 21.563 144.3 20.9059 144.973 18.5358C145.101 18.0827 145.13 17.6058 145.205 17.1408H145.203Z" fill="white"/>
<path d="M72.7579 1.56578H89.2646V6.22524H78.3134C78.1612 6.66414 78.1163 10.2702 78.246 11.1457C78.8971 11.2192 79.5682 11.167 80.2367 11.1765C80.9152 11.186 81.5938 11.1765 82.2723 11.1765H88.389C88.4614 12.7708 88.4065 14.3318 88.4265 15.957C87.718 16.0281 87.0469 15.9831 86.3784 15.9902C85.6999 15.9997 85.0213 15.9902 84.3428 15.9902H78.1113C78.1063 16.7968 78.1013 17.5489 78.0988 18.3009C78.0988 19.0601 78.0988 19.8193 78.0988 20.5785V25.1193C77.6648 25.2522 73.8056 25.2972 72.7853 25.1881C72.6731 24.7872 72.6382 2.33919 72.7554 1.56104L72.7579 1.56578Z" fill="white"/>
<path d="M108.353 25.2023H103.506C103.444 24.6329 103.384 24.0943 103.316 23.4799C103.169 23.589 103.072 23.6412 103.002 23.7171C101.478 25.4087 99.4921 25.9235 97.242 25.7432C96.8079 25.7076 96.3689 25.634 95.9498 25.5225C93.792 24.9508 92.3775 23.3162 92.2279 21.1359C92.1031 19.34 92.0258 17.5393 91.9884 15.7386C91.9485 13.7292 91.9784 11.7174 91.9809 9.70553C91.9809 9.52285 92.0033 9.3378 92.0183 9.11717H97.247C97.247 9.34729 97.247 9.54895 97.247 9.75061C97.247 12.199 97.2395 14.6449 97.262 17.0933C97.2694 17.7908 97.3493 18.493 97.449 19.1858C97.7309 21.1596 99.2751 21.5653 100.789 21.3186C101.775 21.1573 102.438 20.6069 102.753 19.6864C103.032 18.8655 103.154 18.0257 103.159 17.1668C103.172 14.9106 103.184 12.6521 103.194 10.3959C103.194 9.98073 103.194 9.56556 103.194 9.0887C104.938 9.02939 106.604 9.07446 108.238 9.05786C108.286 9.1053 108.298 9.11954 108.313 9.13377C108.325 9.14801 108.35 9.16224 108.35 9.17648C108.363 14.3745 108.373 19.5701 108.383 24.7681C108.383 24.8986 108.368 25.0267 108.358 25.2046L108.353 25.2023Z" fill="white"/>
<path d="M112.367 9.07225H117.187C117.234 9.6535 117.284 10.2229 117.331 10.7946C117.391 10.8279 117.451 10.8634 117.511 10.8967C117.606 10.7543 117.68 10.593 117.798 10.4696C119.257 8.96075 121.103 8.39611 123.204 8.56218C123.929 8.61912 124.673 8.76621 125.349 9.02006C127.12 9.6796 128.123 10.9963 128.357 12.759C128.554 14.2418 128.647 15.7435 128.679 17.2405C128.734 19.7624 128.707 22.2891 128.712 24.8133C128.712 24.9415 128.689 25.0719 128.672 25.2404H123.45C123.45 25.0079 123.45 24.7873 123.45 24.5666C123.428 21.7577 123.418 18.9487 123.368 16.1421C123.358 15.5822 123.261 15.0057 123.089 14.4695C122.839 13.6914 122.248 13.2074 121.39 13.0271C119.354 12.6024 117.798 13.6605 117.611 15.6368C117.531 16.4671 117.506 17.3046 117.501 18.1397C117.486 20.2654 117.493 22.3911 117.493 24.5168C117.493 24.7232 117.493 24.9296 117.493 25.1265C117.039 25.257 113.447 25.2973 112.404 25.1953C112.267 24.8086 112.225 9.82906 112.37 9.077L112.367 9.07225Z" fill="white"/>
<path d="M19.6053 19.8952C20.5058 20.531 21.4263 21.1834 22.3917 21.8643C22.1622 22.111 21.9876 22.3127 21.798 22.5025C19.4082 24.8939 16.4721 26.0256 13.0096 25.9591C11.0338 25.9212 9.118 25.6222 7.30942 24.8417C4.42567 23.5962 2.43498 21.5156 1.23508 18.7635C0.74115 17.6319 0.43182 16.4267 0.0501468 15.25C0.00524404 15.11 0.017717 14.9487 0.017717 14.7992C0.0152224 14.1919 -0.0172073 13.5821 0.0227062 12.9772C0.234747 9.68899 1.33486 6.74005 3.8569 4.39609C5.87752 2.51712 8.35715 1.48274 11.1361 1.10078C13.516 0.773381 15.826 1.02486 18.0511 1.9335C19.5304 2.5361 20.7104 3.51591 21.8903 4.59774C21.7756 4.7045 21.6783 4.81601 21.561 4.90379C20.9773 5.33557 20.3761 5.74126 19.8098 6.19202C19.503 6.43638 19.256 6.47197 18.9068 6.27268C18.1883 5.86225 17.4499 5.48503 16.714 5.10782C15.7412 4.61198 14.7209 4.249 13.6083 4.13986C10.7495 3.85992 8.26734 4.69501 6.39141 6.72107C3.56753 9.77202 2.85657 13.3117 4.25603 17.1764C5.68544 21.1289 9.2577 22.8512 12.6254 22.9248C15.2098 22.9794 17.425 22.111 19.1787 20.2629C19.271 20.1633 19.3608 20.0613 19.4581 19.9664C19.483 19.9426 19.5279 19.9355 19.6103 19.8999L19.6053 19.8952Z" fill="white"/>
<path d="M41.9444 17.4325C41.922 22.232 38.0703 25.8001 32.919 25.755C27.5356 25.7099 24.0931 21.6412 24.1854 17.1573C24.2802 12.5501 28.1518 8.96532 33.151 8.98667C38.1377 9.00802 41.9694 12.6877 41.9444 17.4325V17.4325ZM38.689 17.4064C38.6241 14.2084 36.4713 11.9807 33.2508 11.8454C30.614 11.7339 28.4661 13.2262 27.7751 15.6461C27.5581 16.4053 27.4957 17.1739 27.5531 17.9568C27.7577 20.7777 29.8332 22.7373 32.7967 22.9034C35.3138 23.0433 37.519 21.6578 38.2749 19.4016C38.4894 18.7587 38.5568 18.0731 38.689 17.4064V17.4064Z" fill="white"/>
<path d="M52.9951 9.54664H56.0335V11.4564C56.3578 11.4517 56.4426 11.2287 56.5774 11.0887C58.4408 9.15756 60.7658 8.5692 63.3826 9.12672C65.6677 9.61307 67.0023 11.1006 67.5186 13.2429C67.6559 13.8099 67.7082 14.4078 67.7107 14.9914C67.7282 18.2345 67.7207 21.4776 67.7182 24.7231C67.7182 24.8702 67.6958 25.0173 67.6808 25.2H64.5501C64.5501 24.9888 64.5501 24.7895 64.5501 24.5879C64.5501 21.6864 64.565 18.7825 64.5301 15.881C64.5226 15.2642 64.4054 14.6331 64.2208 14.04C63.904 13.027 63.1431 12.3746 62.0954 12.0424C59.6257 11.2619 57.2259 12.4481 56.4701 14.8111C56.1932 15.6723 56.1009 16.5596 56.0959 17.4516C56.0784 19.8216 56.0759 22.1941 56.071 24.5641C56.071 24.7682 56.071 24.9698 56.071 25.2047H52.9976V9.54664H52.9951Z" fill="white"/>
<path d="M45.3345 25.1904V9.4707H48.2008C48.3156 9.893 48.358 24.2842 48.2457 25.1904H45.332H45.3345Z" fill="white"/>
<path d="M49.0964 3.68213C49.0864 4.96087 48.1808 5.82444 46.8437 5.82918C45.5091 5.83393 44.4564 4.84937 44.4789 3.61808C44.5013 2.40102 45.5416 1.45679 46.8487 1.46391C48.1933 1.46865 49.1063 2.37018 49.0964 3.68213Z" fill="white"/>
</g>
<defs>
<clipPath id="clip0_504_423">
<rect width="150" height="26" fill="white"/>
</clipPath>
</defs>
</svg>
