<svg width="127" height="45" viewBox="0 0 127 45" fill="none" xmlns="http://www.w3.org/2000/svg">
<path d="M0.468767 17.64C2.43062 8.57729 9.8093 1.92782 18.9415 0.955557C20.886 0.747236 21.0249 0.747236 22.9868 0.955557C25.0875 1.1639 26.4938 1.4764 28.2299 2.08408C34.4802 4.34106 39.6018 9.86205 41.3726 16.2686C41.5637 16.9455 41.7198 17.5706 41.7198 17.6575C41.7198 17.7269 41.095 17.779 40.3135 17.7441L38.9072 17.6921L38.4385 16.2858C38.1781 15.522 37.6747 14.3066 37.31 13.6122C35.001 9.04605 30.7301 5.60847 25.6257 4.20217C24.4798 3.88967 23.7855 3.82021 21.1464 3.82021C18.4032 3.80286 17.8476 3.85494 16.5456 4.20217C10.1392 5.9557 5.0175 11.06 3.43758 17.3276C3.21189 18.1957 3.00354 19.2547 2.98619 19.6886L2.91674 20.4701L5.69461 20.5221L8.47245 20.5567L8.48981 22.1714C8.52453 24.984 9.67041 28.057 11.4239 30.0535C11.858 30.5397 12.2052 31.0431 12.2052 31.1648C12.2052 31.4424 10.1218 39.3246 9.96554 39.6024C9.79192 39.915 7.11826 37.849 5.69461 36.321C4.30568 34.8106 2.86466 32.6926 2.04866 30.939C1.33684 29.3938 0.572927 27.102 0.572927 26.5292C0.572927 26.1299 0.625007 26.1125 1.92715 26.1125H3.28134L3.68065 27.3624C4.44457 29.88 6.37169 33.1439 7.89953 34.5849L8.33357 34.967L8.69815 33.6127C8.90649 32.8487 9.08011 32.1195 9.08011 31.9806C9.08011 31.8417 8.66342 31.0779 8.14258 30.2967C7.06616 28.6821 6.19808 26.4597 5.90293 24.5847L5.69461 23.3347H0L0.104161 21.1124C0.156263 19.897 0.312504 18.3346 0.468767 17.64Z" fill="white"/>
<path d="M77.3105 18.6468V3.71582H80.0885L80.1231 8.16039L80.1752 12.6223L84.342 7.89997H85.8004C87.1546 7.88261 87.2415 7.89997 87.0157 8.17774C86.8768 8.35136 86.0087 9.35835 85.0886 10.4174C84.1511 11.4938 83.3871 12.414 83.3871 12.4661C83.3871 12.5355 84.2726 13.855 85.349 15.4002C86.4255 16.9454 87.3804 18.3169 87.4497 18.4212C87.5365 18.5947 87.2415 18.6468 86.1302 18.6468H84.6893L81.5643 13.9939L80.8349 14.7057L80.0885 15.4175V18.6468H77.3105Z" fill="white"/>
<path fill-rule="evenodd" clip-rule="evenodd" d="M50.748 18.647H53.5778C55.123 18.647 56.8418 18.5775 57.3974 18.4734C60.5399 17.9698 62.6407 15.7649 63.0747 12.553C63.6477 8.36891 61.408 4.94866 57.6058 4.2542C57.0502 4.15004 55.2794 4.06323 53.6647 4.06323H50.748V18.647ZM57.8142 6.92789C59.3245 7.57027 60.1406 8.87239 60.2621 10.8516C60.401 13.1954 59.5849 14.8969 57.9877 15.678C57.3628 15.9733 56.9112 16.0427 55.3835 16.0427H53.5258V11.3898C53.5258 8.82031 53.5778 6.66746 53.6647 6.58066C53.8731 6.37231 57.085 6.63274 57.8142 6.92789Z" fill="white"/>
<path d="M121.236 7.88295V4.41064H124.014V7.88295H126.271V9.96634H124.014V12.8136C124.014 15.1748 124.066 15.7131 124.292 15.9386C124.604 16.2513 125.333 16.3033 126.01 16.0429C126.41 15.8866 126.479 15.9214 126.618 16.3207C126.722 16.5637 126.844 17.0499 126.896 17.4144L127 18.0915L126.08 18.404C124.899 18.8035 123.233 18.8207 122.521 18.4388C121.392 17.8311 121.323 17.5533 121.271 13.5602L121.219 9.96634H119.847V7.88295H121.236Z" fill="white"/>
<path fill-rule="evenodd" clip-rule="evenodd" d="M19.6758 8.92862C19.6758 11.5329 19.6411 11.7933 19.3807 11.7933C18.7731 11.8106 16.655 12.6614 15.7869 13.2343C13.7729 14.5711 12.193 16.7587 11.6027 19.0157C11.4638 19.5713 11.3423 20.6998 11.3423 21.5158C11.3423 24.3284 12.193 26.377 14.2417 28.443L15.5263 29.7625L14.1375 34.9709C13.3736 37.8356 12.7312 40.3357 12.6965 40.5267C12.6444 40.8219 12.8875 40.9608 14.2937 41.4468C16.5507 42.2282 18.4432 42.5232 21.1864 42.5232C23.8426 42.5232 26.2211 42.1239 28.2525 41.3253C29.2595 40.9434 29.4678 40.7871 29.433 40.5267C29.3984 40.3357 28.7387 37.8184 27.9746 34.9189C27.2109 32.0368 26.6032 29.641 26.6378 29.6235C27.5059 29.0507 28.5129 28.0091 29.2074 26.9673C31.2386 23.9291 31.4644 20.3699 29.8151 17.0191C28.6172 14.5885 26.0129 12.5398 23.4085 11.9495L22.4537 11.7412V9.01543H22.9571C23.7037 9.01543 25.7003 9.67516 26.9677 10.3349C30.9782 12.4357 33.4263 16.342 33.6867 21.0296L33.7908 22.9047H36.5339C38.7737 22.9047 39.2945 22.9567 39.2945 23.1477C39.2945 23.7379 38.7214 26.2729 38.3395 27.4186C37.5409 29.7625 35.7699 32.6793 34.3116 34.0508L33.8082 34.5196L33.4089 32.9569L32.9922 31.3945L33.7213 30.3701C34.5374 29.207 35.5964 27.0716 35.7527 26.2381L35.8742 25.6825H33.0962L32.3845 27.1062C31.9852 27.9048 31.2734 29.0333 30.7872 29.6235L29.9017 30.7L31.0476 35.0058C31.6902 37.3668 32.2282 39.3287 32.2456 39.3636C32.2804 39.3808 32.9227 38.9468 33.6693 38.3912C38.9472 34.4327 42.0723 28.3041 42.0723 21.9323V20.1269H39.3117C39.0863 20.1269 38.8789 20.1274 38.6875 20.1281H38.6868C37.2982 20.1322 36.765 20.134 36.5284 19.8699C36.3809 19.7054 36.3485 19.4375 36.296 19.0029C36.2841 18.9059 36.2713 18.8002 36.2561 18.6858C36.1172 17.6614 35.4923 15.8212 34.8672 14.5711C33.2874 11.4287 30.9956 9.18904 27.7491 7.60915C25.6482 6.58481 23.4607 6.06396 21.2036 6.06396H19.6758V8.92862ZM22.5232 14.658C25.301 15.2483 27.3498 17.2969 27.9226 20.0921C28.4088 22.4359 27.6968 24.8318 25.9781 26.4985C25.4747 27.0021 24.6587 27.575 24.1899 27.8007C23.4779 28.1132 23.3218 28.2695 23.3739 28.5471C23.4008 28.6948 23.7904 30.1488 24.3026 32.0598L24.3028 32.0606L24.3048 32.0677C24.4547 32.6273 24.6152 33.2259 24.7802 33.8424C25.5093 36.551 26.065 38.8774 26.0301 38.9815C25.9086 39.3113 23.044 39.7455 21.0649 39.7455C19.0509 39.7455 16.2209 39.3113 16.0994 38.9643C16.0473 38.8425 16.6376 36.3946 17.4188 33.4952C18.2 30.6133 18.8077 28.2347 18.7731 28.2172C18.7446 28.189 18.4624 28.0336 18.086 27.8268L18.0827 27.8248C17.9987 27.7785 17.9098 27.7297 17.8181 27.679C16.5681 27.0193 15.4222 25.8042 14.7625 24.4673C14.2417 23.4255 14.2069 23.2171 14.2069 21.5158C14.2069 19.7969 14.2417 19.6233 14.78 18.5123C15.8041 16.4463 17.7487 14.9531 19.8841 14.5885C20.5242 14.4861 20.8497 14.434 21.174 14.4405C21.5094 14.4473 21.8434 14.5167 22.5232 14.658Z" fill="white"/>
<path d="M6.8752 15.9561C8.45509 12.0672 11.91 8.78586 15.9379 7.34485C16.4241 7.17121 16.8234 7.03233 16.858 7.03233C16.8755 7.01497 16.8929 7.65735 16.8929 8.45598V9.897L15.3997 10.6609C12.8997 11.9283 10.6079 14.3589 9.46208 16.9457L9.09747 17.7792H7.70854C6.70158 17.7792 6.30225 17.7097 6.30225 17.5534C6.30225 17.4493 6.56267 16.7202 6.8752 15.9561Z" fill="white"/>
<path fill-rule="evenodd" clip-rule="evenodd" d="M68.3694 7.93474C66.807 8.45559 65.7131 9.37574 64.9665 10.8341C64.6193 11.4939 64.5498 11.8758 64.5498 13.2647C64.5498 14.7231 64.6021 15.0183 65.0186 15.7995C65.5742 16.8411 66.6507 17.8656 67.7445 18.3517C68.3694 18.6468 68.8902 18.7162 70.1055 18.7336C71.4772 18.7336 71.7897 18.6642 72.6577 18.2474C73.6473 17.7615 75.1925 16.2683 74.9321 16.0425C74.8452 15.9731 74.3419 15.7995 73.7688 15.6432L72.7446 15.3655L72.3973 15.817C71.6856 16.7022 70.0361 17.0149 68.8556 16.4593C68.1784 16.1294 67.4144 15.1051 67.4144 14.5322V14.1328H75.6267L75.5398 12.7786C75.4183 10.6258 74.4285 9.15005 72.4842 8.21254C71.5467 7.76112 69.359 7.60489 68.3694 7.93474ZM71.4772 10.1223C72.1195 10.4869 72.5883 11.1119 72.7272 11.8237L72.8487 12.3967H70.1404C68.6472 12.3967 67.3972 12.3446 67.3624 12.2578C67.1889 11.9626 67.6228 11.0425 68.1784 10.5043C69.0986 9.61881 70.3313 9.47993 71.4772 10.1223Z" fill="white"/>
<path d="M92.1199 9.02881C92.606 8.5427 93.3006 8.0392 93.6305 7.93504C94.9673 7.51836 95.0193 7.55308 95.0193 8.99409V10.2615L94.2381 10.3657C93.2137 10.5219 92.1893 11.0428 91.738 11.6851C91.4081 12.1539 91.3733 12.4317 91.3733 15.4179V18.6471H88.769V7.88296H91.1997V9.94897L92.1199 9.02881Z" fill="white"/>
<path fill-rule="evenodd" clip-rule="evenodd" d="M112.711 7.86549C111.982 8.10856 111.461 8.42106 110.871 8.97663L110.298 9.51486V7.88286H107.867V23.0048L110.558 22.9007L110.61 19.8972L110.645 16.8936L111.096 17.4316C111.86 18.3171 112.815 18.7164 114.204 18.7164C115.68 18.7164 116.531 18.3345 117.52 17.2061C118.475 16.1296 118.892 14.8969 118.874 13.1781C118.857 10.1572 116.947 7.93494 114.222 7.77868C113.648 7.74397 112.954 7.77868 112.711 7.86549ZM113.857 10.1572C115.229 10.5218 116.079 11.7371 116.079 13.2823C116.079 14.4282 115.541 15.5394 114.708 16.0427C113.909 16.5463 112.607 16.5115 111.86 15.9561C110.836 15.2094 110.645 14.7407 110.645 13.0566C110.645 11.633 110.68 11.4941 111.131 11.0079C111.392 10.7128 111.912 10.3656 112.294 10.2267C112.318 10.2186 112.34 10.2107 112.362 10.203L112.472 10.1644C112.782 10.0559 112.936 10.0017 113.092 9.99621C113.248 9.99079 113.405 10.0337 113.718 10.1195C113.762 10.1313 113.807 10.1439 113.857 10.1572Z" fill="white"/>
<path d="M97.7285 13.5603C96.6346 10.7651 95.6797 8.35182 95.6102 8.17821C95.5236 7.91778 95.6451 7.88306 96.8951 7.88306H98.3014L98.6312 8.78586C98.7079 9.0084 98.8764 9.49214 99.0927 10.1141C99.3659 10.8993 99.7158 11.9047 100.055 12.8832C100.663 14.6367 101.201 15.9736 101.27 15.8693C101.34 15.7653 101.93 13.9249 102.59 11.7894L103.788 7.88306H105.038C105.732 7.88306 106.305 7.91778 106.305 7.96986C106.305 8.17821 101.774 20.9389 101.548 21.373C100.958 22.5189 99.7077 23.2133 98.2319 23.2307C97.6416 23.2307 97.1034 23.1786 97.0165 23.1266C96.9125 23.0743 96.8776 22.5015 96.8951 21.8764L96.9645 20.7479L97.6937 20.8348C98.5792 20.9563 98.9785 20.6439 99.4472 19.4111L99.7425 18.6299L97.7285 13.5603Z" fill="white"/>
<path d="M88.5789 25.6784C88.5789 25.7305 88.5789 26.3381 88.5615 27.0153V28.2827L91.2006 28.3867V25.5916H89.8984C89.1866 25.5916 88.5964 25.6262 88.5789 25.6784Z" fill="white"/>
<path d="M113.649 39.4982C113.25 38.908 113.25 38.8905 113.25 32.2584V25.5916H116.027L116.027 32.3461C116.026 36.7562 116.026 37.9393 116.52 38.2066C116.702 38.3047 116.949 38.2795 117.288 38.2452L117.29 38.2449L117.294 38.2445C117.339 38.2401 117.386 38.2355 117.434 38.2308L118.25 38.1439L118.371 39.0641C118.423 39.5851 118.441 40.071 118.388 40.1579C118.25 40.3663 116.722 40.6961 115.888 40.6961C115.02 40.6961 114.118 40.21 113.649 39.4982Z" fill="white"/>
<path d="M54.6712 26.1124C51.1469 26.9979 48.7162 30.7478 49.3413 34.307C50.053 38.335 53.5776 41.1127 57.2583 40.5399C58.9596 40.2795 60.3485 39.5849 61.3382 38.4913C61.8242 37.9703 62.2063 37.4669 62.2063 37.3974C62.2063 37.1196 59.8971 35.9217 59.8102 36.1475C59.6541 36.6334 58.8555 37.3974 58.1089 37.7447C56.9804 38.3001 55.2615 38.1961 54.2373 37.5189C53.4213 36.9807 52.5706 35.7482 52.2928 34.7063C51.772 32.8313 52.5532 30.2098 53.9074 29.2375C55.6608 27.9527 58.4039 28.352 59.5152 30.0361L59.8625 30.5743L60.9387 29.8626C61.5464 29.4633 62.0326 29.0986 62.0326 29.0291C62.0326 28.9771 61.6507 28.4909 61.1645 27.9701C60.0014 26.6853 58.6471 26.095 56.7547 26.0081C55.9735 25.9735 55.0533 26.0256 54.6712 26.1124Z" fill="white"/>
<path d="M94.3252 28.144C94.3252 27.2411 94.3773 26.4599 94.4467 26.3904C94.5162 26.321 95.1239 26.3036 95.801 26.321L97.0163 26.373L97.1204 29.7413L99.2733 29.8453V31.9288L98.2317 31.9462L97.1899 31.9808L97.1378 34.8282C97.1032 37.2067 97.1378 37.7275 97.3636 37.9184C97.6586 38.1616 98.1797 38.1962 99.0303 38.0227L99.638 37.8838L99.8636 38.8734C99.9853 39.429 100.02 39.9324 99.933 40.0019C99.6726 40.2623 97.9018 40.6964 97.1204 40.6964C96.1657 40.6964 95.2628 40.2797 94.7768 39.6025C94.4467 39.1512 94.4121 38.8039 94.3252 35.5226L94.2386 31.9462H93.6309L93.0232 31.9288L92.9189 29.7585H94.3252V28.144Z" fill="white"/>
<path fill-rule="evenodd" clip-rule="evenodd" d="M66.7201 29.7759C65.7478 29.9668 64.1854 30.5919 63.9422 30.887C63.8033 31.0433 63.8555 31.3211 64.1505 31.9114C64.3589 32.3627 64.5847 32.6926 64.6367 32.658C66.338 31.6684 67.8138 31.3385 68.8728 31.703C69.6889 31.9808 70.123 32.5537 70.2791 33.5606C70.4008 34.3072 70.4008 34.3247 70.0015 34.2032C69.0291 33.8905 66.7722 33.8905 65.7998 34.1683C63.3519 34.8803 62.3623 37.3456 63.7686 39.2727C64.463 40.2449 65.3138 40.6096 66.8937 40.6096C68.2826 40.5921 69.0812 40.2971 70.175 39.3942C70.6612 38.9603 70.7133 38.9603 70.7133 39.2727C70.7133 40.1754 71.8764 40.8353 73.0745 40.627L73.6648 40.5053V39.429C73.6648 38.561 73.5953 38.2831 73.3175 38.0399C73.0051 37.7795 72.9702 37.5366 72.9702 35.2622C72.9702 32.9184 72.9356 32.7274 72.5189 31.8593C71.9286 30.696 70.9562 30.0363 69.4285 29.7759C68.1959 29.5675 67.8312 29.5675 66.7201 29.7759ZM69.8278 35.6789C70.2791 35.835 70.366 35.9567 70.366 36.4081C70.366 37.554 69.4633 38.4567 68.1264 38.6825C66.9111 38.8734 65.6783 38.0922 65.6783 37.1198C65.6783 36.6685 66.286 35.8524 66.7896 35.6615C67.3104 35.4357 69.1855 35.4531 69.8278 35.6789Z" fill="white"/>
<path fill-rule="evenodd" clip-rule="evenodd" d="M78.3174 31.1992C78.5606 30.7478 79.8626 29.9492 80.6612 29.7408C81.4252 29.5499 82.7967 29.7234 83.6647 30.0881C84.6371 30.522 85.6093 31.529 86.1475 32.6923C86.5294 33.5082 86.5988 33.9075 86.5988 35.2271C86.5988 36.5465 86.5294 36.9458 86.1475 37.7445C85.5398 39.0467 84.9321 39.7236 83.8731 40.2446C82.2584 41.0605 80.3662 40.7829 79.0988 39.5501L78.3522 38.8383V44.8628H75.5742V29.7408L77.9181 29.8449L78.0049 30.713C78.0918 31.5116 78.109 31.5464 78.3174 31.1992ZM83.9079 35.0708C83.9079 34.0464 83.0919 32.7618 82.1369 32.2582C81.0605 31.7025 79.5675 32.0847 78.7341 33.1437C78.4042 33.543 78.3522 33.8554 78.3522 35.0362C78.3522 36.2513 78.4042 36.5291 78.7861 37.0848C79.3764 37.9528 80.5571 38.5085 81.4947 38.3521C82.762 38.1264 83.9079 36.5812 83.9079 35.0708Z" fill="white"/>
<path fill-rule="evenodd" clip-rule="evenodd" d="M104.829 29.7063C103.978 29.828 102.26 30.4355 101.826 30.7656L101.409 31.078L101.808 31.894C102.034 32.3454 102.26 32.6927 102.312 32.6578C105.35 30.9043 107.694 31.2864 107.989 33.5607L108.093 34.3073L107.503 34.1684C107.173 34.0815 106.166 34.0121 105.263 34.0121C103.805 34.0295 103.51 34.0815 102.711 34.4983C101.478 35.1406 100.871 36.0435 100.853 37.276C100.819 40.4705 104.968 41.8596 107.659 39.5678L108.354 38.9602L108.475 39.4463C108.718 40.4185 109.621 40.8698 110.802 40.6094C111.34 40.4879 111.34 40.4879 111.34 39.29C111.34 38.3871 111.288 38.0921 111.097 38.0921C110.732 38.0921 110.645 37.519 110.645 35.1231C110.645 32.7967 110.506 32.085 109.847 31.1995C109.048 30.1405 106.687 29.4287 104.829 29.7063ZM107.503 35.6788C107.972 35.8523 108.041 35.9392 108.041 36.5294C108.041 38.6303 104.447 39.5678 103.562 37.6928C103.006 36.5294 104.1 35.4878 105.871 35.4878C106.461 35.4878 107.19 35.5747 107.503 35.6788Z" fill="white"/>
<path d="M88.562 35.21C88.5271 32.2933 88.5445 29.8626 88.5792 29.828C88.614 29.7932 89.2217 29.7585 89.9334 29.7585H91.2008V40.5228H88.614L88.562 35.21Z" fill="white"/>
</svg>
