<svg width="89" height="34" viewBox="0 0 89 34" fill="none" xmlns="http://www.w3.org/2000/svg">
<path fill-rule="evenodd" clip-rule="evenodd" d="M29.149 22.916H38.0521C38.3065 25.2338 39.324 27.1483 43.2413 27.1483C45.9377 27.1483 47.4639 25.8383 47.4639 23.9237C47.4639 21.9083 46.2429 21.4044 42.2747 20.7998C33.0155 19.6913 29.9121 16.9705 29.9121 10.4707C29.9121 4.62608 34.7452 0.343262 42.5799 0.343262C50.4655 0.343262 54.8917 3.61827 55.5017 10.4707H46.8025C46.4973 8.15301 45.1745 6.9942 42.5799 6.9942C40.0871 6.9942 38.7644 8.1026 38.7644 9.76536C38.7644 11.5792 39.7818 12.3854 43.8518 12.9397C52.1444 13.8466 56.4173 15.9628 56.4173 23.0167C56.4173 28.9623 51.6357 33.7993 43.2413 33.7993C34.1347 33.7489 29.4542 29.9196 29.149 22.916ZM0 19.8926V0.64537H9.41185V19.4896C9.41185 24.0746 10.5311 26.2915 14.5502 26.2915C18.4166 26.2915 19.6885 24.2257 19.6885 19.3384V0.594963H29.1512V19.7415C29.1512 29.1635 23.555 33.5471 14.5502 33.5471C5.29096 33.5974 0 28.962 0 19.8926ZM66.5422 0.872312H56.4184L67.2548 33.2701H77.9385L88.6221 0.872312H79.8209L73.1565 23.6465L66.5422 0.872312Z" fill="white"/>
</svg>
