<svg width="150" height="29" viewBox="0 0 150 29" fill="none" xmlns="http://www.w3.org/2000/svg">
<g clip-path="url(#clip0_504_435)">
<path d="M35.3355 28.9816C35.2168 28.9816 35.0928 28.9816 34.9689 28.9816C33.4509 28.9869 31.9316 28.9934 30.4136 29C29.9388 29.0013 29.7172 28.8571 29.5352 28.4298C28.2625 25.4461 26.9859 22.4638 25.7185 19.4775C23.8325 15.0375 21.9532 10.5935 20.0685 6.15211C19.963 5.90304 19.8457 5.65396 19.7045 5.42324C19.4342 4.97753 19.024 4.74157 18.4965 4.74943C17.9703 4.75861 17.4427 4.7809 16.9178 4.82022C16.4219 4.85824 16.0461 5.11125 15.7955 5.53729C15.7164 5.67232 15.6425 5.8139 15.5884 5.95941C14.4529 8.99941 13.1327 11.9634 11.8495 14.9431C11.6965 15.2983 11.5448 15.6549 11.3919 16.0102C11.351 16.1046 11.3048 16.1963 11.2626 16.2855H5.66016C5.705 16.1649 5.73665 16.0679 5.77753 15.9748C7.99715 10.9265 10.2168 5.87682 12.4377 0.828497C12.4839 0.723624 12.534 0.620061 12.5894 0.519121C12.7701 0.18746 13.047 0.00262182 13.4308 0.00131091C13.9794 -0.00131091 14.5268 0.00786547 15.0754 0.00655456C17.4269 0.00524365 19.7784 0.00393274 22.1312 0C22.9832 0 23.1283 0.0943857 23.4619 0.871757C27.3895 10.0285 31.317 19.1852 35.2471 28.3406C35.3302 28.5346 35.4094 28.726 35.3368 28.9816H35.3355Z" fill="white"/>
<path d="M94.9054 9.19617C95.9842 10.9751 97.0485 12.7278 98.1339 14.5159C98.0126 14.5277 97.9334 14.5421 97.8556 14.5421C97.0116 14.5434 96.1675 14.5355 95.3248 14.5486C95.1138 14.5512 95.0056 14.4765 94.9027 14.3022C94.0152 12.7815 93.1144 11.2687 92.2294 9.74675C92.1028 9.52914 91.9617 9.44786 91.7072 9.4518C90.5677 9.46622 89.4295 9.45835 88.29 9.45835C88.1859 9.45835 88.0817 9.45835 87.9432 9.45835C87.934 9.61304 87.9181 9.74413 87.9181 9.87522C87.9168 11.2989 87.9181 12.7212 87.9168 14.1449C87.9168 14.2668 87.9063 14.3887 87.8997 14.5276H85.1341C85.0642 14.2891 85.0338 0.909893 85.1011 0.219042C85.1842 0.211177 85.2738 0.194135 85.3635 0.194135C87.8733 0.194135 90.3844 0.192824 92.8941 0.204622C93.5707 0.208555 94.2367 0.308184 94.8869 0.506132C95.9829 0.837793 96.6871 1.55093 97.0076 2.6403C97.274 3.54483 97.3083 4.47426 97.2846 5.40763C97.2714 5.96346 97.2028 6.51273 97.0472 7.0489C96.7557 8.05305 96.1266 8.74784 95.1309 9.10572C95.0716 9.12669 95.0148 9.15422 94.9067 9.2001L94.9054 9.19617ZM87.9366 7.64536C88.0289 7.65585 88.0804 7.66765 88.1318 7.66765C89.6616 7.66765 91.1902 7.67289 92.72 7.65978C93.0221 7.65716 93.3294 7.60603 93.6261 7.53787C94.0903 7.43037 94.304 7.15639 94.3066 6.68446C94.3132 5.47056 94.3132 4.25665 94.3066 3.04275C94.304 2.57082 94.0917 2.29553 93.6235 2.19328C93.2858 2.11987 92.9363 2.07267 92.5908 2.07005C91.1348 2.05563 89.6801 2.06218 88.2241 2.0635C88.1331 2.0635 88.0434 2.07792 87.9379 2.08709V7.64536H87.9366Z" fill="white"/>
<path d="M48.3067 9.78991C48.2869 10.3457 48.2988 10.8649 48.2961 11.384C48.2935 11.8965 48.2961 12.4091 48.2961 12.9217V14.4777C48.0521 14.5538 45.971 14.576 45.5055 14.5171C45.4395 14.2968 45.4211 0.626629 45.4896 0.208448C45.5859 0.203204 45.6875 0.191406 45.7903 0.191406C48.1207 0.191406 50.4511 0.192717 52.7815 0.192717C53.4264 0.192717 54.0648 0.255641 54.6965 0.386732C56.1314 0.684309 57.0388 1.51936 57.3381 2.95874C57.6204 4.31685 57.6256 5.67757 57.3289 7.03568C57.2999 7.16808 57.2564 7.29786 57.2155 7.42633C56.8686 8.52225 56.1274 9.21442 55.0222 9.53297C54.4631 9.69421 53.8907 9.78204 53.3077 9.78466C51.7792 9.78991 50.2493 9.78859 48.7208 9.78991C48.5968 9.78991 48.4729 9.78991 48.3067 9.78991V9.78991ZM48.3146 7.9874C48.428 7.99789 48.5006 8.011 48.5731 8.011C49.9434 8.011 51.3123 8.02017 52.6826 8.00444C53.0796 8.00051 53.4832 7.95856 53.8709 7.87597C54.343 7.77634 54.5488 7.50105 54.5514 7.02519C54.5593 5.69724 54.5593 4.37059 54.5514 3.04264C54.5488 2.57071 54.3338 2.29411 53.8683 2.19186C53.532 2.11845 53.1825 2.07125 52.8369 2.06732C51.4244 2.0529 50.0133 2.05946 48.6008 2.06077C48.5111 2.06077 48.4201 2.0765 48.3133 2.08567V7.9874H48.3146Z" fill="white"/>
<path d="M131.972 8.5459V14.4817C131.716 14.5538 129.568 14.5709 129.173 14.5132C129.111 14.2825 129.098 0.576862 129.163 0.208496H138.898C138.797 0.823314 138.698 1.42502 138.594 2.0595H131.992V6.74995C132.638 6.80107 133.267 6.76699 133.895 6.77223C134.538 6.77879 135.181 6.77354 135.824 6.77354H137.737V8.5223C137.611 8.53017 137.49 8.54459 137.367 8.54459C135.723 8.5459 134.078 8.54459 132.432 8.54459C132.298 8.54459 132.162 8.54459 131.971 8.54459L131.972 8.5459Z" fill="white"/>
<path d="M121.973 14.5984C121.669 14.5984 121.418 14.5984 121.167 14.5984C120.661 14.601 120.156 14.6036 119.649 14.6062C119.337 14.6062 119.252 14.5551 119.14 14.2864C118.185 11.9975 117.229 9.70998 116.276 7.42113C115.722 6.08793 115.173 4.75211 114.623 3.41761C114.596 3.34944 114.569 3.28127 114.539 3.21441C114.327 2.74511 114.094 2.60877 113.57 2.64548C113.453 2.65334 113.339 2.66907 113.223 2.66907C112.793 2.66645 112.543 2.89324 112.401 3.27603C112.211 3.78597 112.021 4.29592 111.814 4.798C111.353 5.92014 110.88 7.03835 110.412 8.15786C110.388 8.21423 110.357 8.26798 110.326 8.32828H107.665C107.699 8.22865 107.723 8.14213 107.759 8.05955C108.799 5.63698 109.845 3.21573 110.878 0.790538C111.02 0.457566 111.211 0.308122 111.591 0.313366C112.898 0.333029 114.207 0.322542 115.513 0.322542C115.998 0.322542 116.045 0.351382 116.224 0.78005C118.098 5.24764 119.973 9.71392 121.844 14.1828C121.894 14.3021 121.92 14.4306 121.972 14.5984H121.973Z" fill="white"/>
<path d="M79.0566 14.5997C78.9049 14.5997 78.8034 14.5997 78.7031 14.5997C78.0595 14.601 77.4173 14.6023 76.7737 14.6049C76.3886 14.6076 76.3411 14.5696 76.1921 14.2104C75.2174 11.873 74.2375 9.53827 73.2642 7.20092C72.7446 5.95555 72.2342 4.70625 71.7172 3.45957C71.6579 3.31537 71.5959 3.16986 71.5233 3.0309C71.3756 2.7543 71.133 2.62714 70.823 2.63501C70.6015 2.64025 70.3812 2.66254 70.161 2.67958C69.8972 2.70055 69.7047 2.83296 69.582 3.06106C69.5174 3.18035 69.4725 3.31013 69.4211 3.43598C68.7709 5.02349 68.1194 6.61101 67.4692 8.19852C67.4534 8.23654 67.4323 8.27193 67.4059 8.32306H64.7432C64.7854 8.21032 64.8183 8.10807 64.8605 8.01106C65.6993 6.05911 66.5394 4.10847 67.3795 2.15784C67.5826 1.68722 67.791 1.21791 67.9809 0.742052C68.1009 0.440542 68.2948 0.312073 68.6311 0.316005C69.9697 0.330425 71.3097 0.331736 72.6483 0.317316C72.9846 0.313384 73.1653 0.43792 73.2932 0.742052C75.1686 5.23062 77.0533 9.71656 78.9339 14.2038C78.9801 14.3139 79.0065 14.4332 79.0592 14.601L79.0566 14.5997Z" fill="white"/>
<path d="M9.05255 21.3901C9.00112 21.5238 8.96815 21.6208 8.92858 21.7139C7.99748 23.9005 7.06637 26.0858 6.13527 28.2724C5.88337 28.8623 5.65785 29.0052 5.02744 29.0012C3.47779 28.992 1.92683 28.9881 0.37719 28.9829C0.263769 28.9829 0.150348 28.9829 0 28.9829C0.03429 28.8662 0.0487973 28.7875 0.0804496 28.7168C1.12761 26.3532 2.17873 23.9896 3.22326 21.6247C3.29975 21.4517 3.38416 21.3652 3.59253 21.3665C5.33341 21.3756 7.07297 21.3717 8.81384 21.3717C8.87583 21.3717 8.93781 21.3809 9.05387 21.3901H9.05255Z" fill="white"/>
<path d="M146.632 0.208342H149.35V14.4829C149.134 14.555 147.099 14.5773 146.649 14.5143C146.583 14.2954 146.563 0.638321 146.632 0.207031V0.208342Z" fill="white"/>
<path d="M61.9584 14.4986C62.4938 13.2558 63.0187 12.0393 63.5489 10.8083H66.2578C66.2393 10.8831 66.2327 10.9525 66.2064 11.0142C65.7725 12.0681 65.3346 13.1208 64.9033 14.1761C64.8044 14.4173 64.6501 14.5458 64.3797 14.5431C63.6531 14.5353 62.9251 14.5379 62.1984 14.534C62.1285 14.534 62.0599 14.5143 61.957 14.4986H61.9584Z" fill="white"/>
<path d="M104.945 14.5025C105.486 13.2519 106.011 12.0341 106.542 10.8044H109.255C109.226 10.8988 109.21 10.9775 109.18 11.0509C108.753 12.0852 108.32 13.1169 107.898 14.1525C107.802 14.3885 107.666 14.5432 107.392 14.5419C106.633 14.5379 105.875 14.5366 105.117 14.5327C105.077 14.5327 105.036 14.5196 104.945 14.5025V14.5025Z" fill="white"/>
<path d="M72.5756 27.1596C72.2011 27.1596 71.8542 27.1596 71.5074 27.1596C70.9389 27.1596 70.3692 27.1701 69.8008 27.1544C69.5832 27.1478 69.4803 27.2238 69.4078 27.4218C69.2798 27.7757 69.1229 28.1192 68.9778 28.4653C68.9448 28.5426 68.9158 28.6226 68.871 28.6921C68.8156 28.7786 68.7325 28.8166 68.6257 28.7733C68.5268 28.734 68.4621 28.6685 68.478 28.561C68.4912 28.4692 68.5189 28.3774 68.5545 28.2922C69.2732 26.5526 69.9946 24.8144 70.7147 23.0761C70.7345 23.0276 70.7543 22.9791 70.7767 22.9319C70.8295 22.8192 70.9165 22.7471 71.0458 22.7471C71.1763 22.7471 71.2594 22.8244 71.3109 22.9372C71.3372 22.9935 71.3596 23.0525 71.3834 23.1102C72.0969 24.8288 72.8104 26.5487 73.5239 28.2673C73.5555 28.3447 73.5859 28.4233 73.6122 28.502C73.6597 28.6422 73.5832 28.7196 73.4658 28.772C73.3419 28.8271 73.2588 28.7681 73.2126 28.6606C73.0715 28.3342 72.9357 28.0064 72.7972 27.6787C72.7286 27.5162 72.6574 27.3523 72.5756 27.1596V27.1596ZM71.088 23.5598C71.0603 23.5598 71.0326 23.5598 71.0049 23.5598C70.5789 24.5876 70.1542 25.6153 69.715 26.6746H72.3791C71.9386 25.6114 71.514 24.585 71.088 23.5598V23.5598Z" fill="white"/>
<path d="M128.176 28.5976C128.109 28.6579 128.047 28.747 127.964 28.7746C127.91 28.7929 127.807 28.7379 127.758 28.6867C127.704 28.6291 127.686 28.5386 127.654 28.4613C127.501 28.0942 127.342 27.7298 127.198 27.3601C127.139 27.2093 127.049 27.1582 126.889 27.1595C126.015 27.1648 125.139 27.1661 124.265 27.1595C124.101 27.1595 124.021 27.2224 123.963 27.3693C123.81 27.7586 123.644 28.1427 123.48 28.5281C123.373 28.7785 123.301 28.8296 123.153 28.7759C122.987 28.7156 122.955 28.6002 123.054 28.359C123.79 26.5814 124.527 24.8038 125.266 23.0262C125.289 22.9685 125.313 22.9082 125.351 22.8597C125.466 22.7142 125.673 22.7103 125.787 22.8571C125.843 22.9305 125.878 23.0223 125.913 23.1088C126.631 24.8379 127.347 26.567 128.063 28.2974C128.099 28.3839 128.129 28.4731 128.175 28.6002L128.176 28.5976ZM124.249 26.664C124.779 26.7322 126.649 26.7099 126.892 26.6338C126.466 25.6074 126.04 24.5823 125.615 23.5571C125.59 23.5571 125.564 23.5571 125.539 23.5571C125.113 24.5836 124.687 25.6087 124.249 26.6653V26.664Z" fill="white"/>
<path d="M53.3644 25.7699C53.3644 25.3727 53.3525 24.9742 53.3683 24.577C53.3776 24.3384 53.4119 24.0972 53.4672 23.8651C53.6123 23.2582 54.0291 22.9305 54.6278 22.8072C54.7307 22.7863 54.8362 22.7614 54.9404 22.7614C55.6038 22.7679 56.2711 22.7391 56.9279 22.8046C57.6981 22.8807 58.1623 23.4784 58.1373 24.2414C58.1333 24.3725 58.0951 24.4642 57.9447 24.4773C57.8049 24.4891 57.7232 24.4262 57.6955 24.2938C57.681 24.223 57.6757 24.1496 57.6651 24.0762C57.5913 23.5571 57.3328 23.2647 56.8052 23.2346C56.1537 23.1979 55.4969 23.1926 54.8454 23.2359C54.215 23.2792 53.8866 23.6449 53.8392 24.282C53.8062 24.7199 53.8075 25.1603 53.8075 25.5982C53.8075 26.1422 53.8022 26.6862 53.8378 27.2289C53.8827 27.9316 54.2625 28.2934 54.9747 28.3196C55.5431 28.3406 56.1142 28.3393 56.6826 28.3196C57.313 28.2986 57.586 28.0299 57.6704 27.4007C57.6783 27.3391 57.6876 27.2761 57.7034 27.2158C57.7364 27.0939 57.8247 27.0546 57.9447 27.0651C58.074 27.0756 58.1386 27.1516 58.132 27.2722C58.0951 27.9801 57.8616 28.5648 57.0202 28.7339C56.8145 28.7745 56.6021 28.7916 56.3924 28.7929C55.8979 28.7955 55.3994 28.8125 54.9074 28.768C53.7587 28.6631 53.425 28.0063 53.3683 27.0847C53.3406 26.6469 53.3631 26.2064 53.3631 25.7673H53.3604L53.3644 25.7699Z" fill="white"/>
<path d="M84.5368 26.2825V26.6535C84.5368 27.2277 84.5368 27.8032 84.5368 28.3774C84.5368 28.4613 84.5421 28.5465 84.5263 28.6278C84.5025 28.7471 84.4129 28.8021 84.2942 28.7929C84.19 28.7851 84.1161 28.7313 84.1069 28.6186C84.1003 28.5465 84.0977 28.4731 84.0977 28.3997C84.0977 26.6548 84.0977 24.91 84.0977 23.1639C84.0977 23.1219 84.0977 23.08 84.0977 23.038C84.1122 22.7968 84.1557 22.747 84.4036 22.7444C84.8665 22.7391 85.3308 22.7418 85.7937 22.7418C86.0575 22.7418 86.3212 22.7352 86.5837 22.7457C87.4752 22.7811 87.9724 23.2229 88.0582 24.1038C88.0924 24.4525 88.0713 24.8156 88.0146 25.163C87.9144 25.787 87.466 26.1947 86.829 26.2314C86.1986 26.2681 85.5655 26.2511 84.9338 26.2603C84.8112 26.2616 84.6885 26.2734 84.5368 26.2825V26.2825ZM84.5527 25.7988C85.307 25.7988 86.0219 25.7988 86.7353 25.7975C86.7868 25.7975 86.8382 25.7765 86.8897 25.7647C87.3064 25.6664 87.5464 25.4383 87.59 25.0201C87.6243 24.6898 87.6256 24.3503 87.5939 24.0199C87.5504 23.5624 87.251 23.2897 86.7921 23.2255C86.709 23.2137 86.6232 23.2111 86.5402 23.2111C85.9599 23.2111 85.3809 23.2098 84.8006 23.2111C84.7202 23.2111 84.641 23.2294 84.5527 23.2399V25.7975V25.7988Z" fill="white"/>
<path d="M112.278 23.2072C112.278 23.3789 112.278 23.5008 112.278 23.624C112.278 25.1919 112.278 26.7597 112.278 28.3276C112.278 28.422 112.296 28.5255 112.263 28.6068C112.233 28.6802 112.152 28.7641 112.079 28.7838C111.965 28.8139 111.875 28.7326 111.852 28.6186C111.833 28.5281 111.84 28.4311 111.84 28.3381C111.84 26.7702 111.84 25.2024 111.84 23.6345V23.2321C111.715 23.2229 111.614 23.2098 111.513 23.2098C111.027 23.2072 110.543 23.2098 110.058 23.2098C109.984 23.2098 109.91 23.2137 109.836 23.2045C109.707 23.1875 109.621 23.1233 109.62 22.9817C109.618 22.8414 109.697 22.7706 109.827 22.751C109.889 22.7418 109.954 22.7457 110.017 22.7457C111.377 22.7457 112.735 22.7457 114.095 22.7457C114.169 22.7457 114.244 22.7431 114.315 22.7549C114.435 22.7746 114.497 22.8532 114.5 22.9725C114.503 23.0918 114.443 23.1757 114.325 23.198C114.243 23.2137 114.157 23.2098 114.073 23.2098C113.598 23.2098 113.124 23.2098 112.65 23.2098C112.545 23.2098 112.441 23.2098 112.278 23.2098V23.2072Z" fill="white"/>
<path d="M139.146 28.3328C139.289 28.3328 139.404 28.3328 139.518 28.3328C140.287 28.3328 141.057 28.3328 141.826 28.3328C142.106 28.3328 142.194 28.3905 142.2 28.5596C142.205 28.7352 142.118 28.7968 141.841 28.7982C140.914 28.7995 139.985 28.7995 139.058 28.7982C138.722 28.7982 138.683 28.7575 138.683 28.4127C138.683 26.6456 138.683 24.8785 138.683 23.1114C138.683 23.0695 138.681 23.0275 138.685 22.9856C138.701 22.827 138.785 22.7404 138.918 22.7483C139.063 22.7575 139.116 22.8505 139.121 22.979C139.125 23.0839 139.127 23.1875 139.127 23.2923C139.127 24.8287 139.127 26.3664 139.127 27.9028C139.127 28.0365 139.138 28.1689 139.145 28.3302L139.146 28.3328Z" fill="white"/>
<path d="M98.6005 25.7411C98.6005 24.8942 98.6005 24.0474 98.6005 23.2018C98.6005 23.1075 98.582 23.0039 98.6176 22.9239C98.6493 22.8531 98.7376 22.7745 98.8102 22.7627C98.8643 22.7535 98.9553 22.8335 98.9935 22.8964C99.0278 22.9515 99.0212 23.0367 99.0212 23.1088C99.0212 24.8851 99.0225 26.6627 99.0212 28.4389C99.0212 28.6893 98.9526 28.7942 98.8075 28.7942C98.6638 28.7942 98.6005 28.6933 98.6005 28.4389C98.5992 27.5397 98.6005 26.6417 98.6005 25.7424V25.7411Z" fill="white"/>
</g>
<defs>
<clipPath id="clip0_504_435">
<rect width="150" height="29" fill="white"/>
</clipPath>
</defs>
</svg>
