<svg width="150" height="39" viewBox="0 0 150 39" fill="none" xmlns="http://www.w3.org/2000/svg">
<g clip-path="url(#clip0_494_166)">
<path d="M24.3715 19.4061C25.2026 19.4061 26.0336 19.41 26.8647 19.4061C28.3457 19.3969 29.1321 18.6117 29.1334 17.1452C29.1334 15.4831 29.1295 13.8196 29.1334 12.1575C29.1387 10.6279 30.0472 9.71809 31.5846 9.71021C33.2468 9.70102 34.9102 9.69839 36.5724 9.70627C38.1531 9.71415 39.0288 10.6109 39.0315 12.2061C39.0341 13.8682 39.0354 15.5317 39.0315 17.1938C39.0275 18.7076 38.1439 19.5951 36.6275 19.6017C34.9207 19.6082 33.2153 19.5977 31.5085 19.6069C30.1746 19.6135 29.3382 20.4419 29.3304 21.7706C29.3199 23.4551 29.3343 25.1395 29.3238 26.824C29.3146 28.4546 28.4415 29.3054 26.7912 29.3093C25.1501 29.312 23.5102 29.3054 21.8691 29.3106C20.4446 29.3159 19.6293 30.1141 19.6175 31.5334C19.603 33.2612 19.6175 34.9903 19.6096 36.7181C19.6043 37.9824 18.8717 38.8831 17.6008 38.9356C15.659 39.017 13.708 39.0236 11.7663 38.9487C10.473 38.8988 9.72074 37.9312 9.70892 36.5303C9.69579 34.8236 9.71155 33.1168 9.70498 31.4113C9.69973 30.1142 8.92249 29.3251 7.63321 29.3172C5.94875 29.3067 4.26428 29.3159 2.57982 29.3106C0.908484 29.3054 0.00913973 28.4533 0.00651391 26.7689C-0.00398938 18.6945 -0.00267647 10.6214 0.0104526 2.5496C0.0130785 0.897957 0.880912 0.038001 2.52468 0.0117428C4.1645 -0.0145154 5.80564 0.0117428 7.44678 0.00386536C9.15487 -0.00532501 9.98595 1.1973 9.92293 2.49052C9.84284 4.12772 9.92949 5.77148 9.89667 7.41131C9.87304 8.65463 10.7763 9.7798 12.1693 9.71152C13.8275 9.63144 15.4936 9.69446 17.1557 9.70496C18.7628 9.71546 19.6122 10.5794 19.6135 12.1903C19.6148 13.8314 19.6083 15.4726 19.6148 17.1124C19.6201 18.5789 20.4262 19.3903 21.877 19.4008C22.708 19.4074 23.5391 19.4008 24.3702 19.4008V19.4034L24.3715 19.4061ZM19.4258 24.3452C19.4258 23.4931 19.435 22.6398 19.4231 21.7877C19.4061 20.4117 18.596 19.6148 17.2043 19.6082C15.5435 19.6004 13.8827 19.6043 12.2218 19.6082C10.7986 19.6109 9.94131 20.3907 9.91111 21.7969C9.87435 23.5233 9.87435 25.2511 9.91111 26.9763C9.93868 28.3155 10.8013 29.1137 12.1299 29.1177C13.8787 29.1216 15.6262 29.1308 17.375 29.115C18.5619 29.1045 19.3929 28.2813 19.4205 27.0997C19.4415 26.182 19.4245 25.2643 19.4271 24.3465L19.4258 24.3452Z" fill="white"/>
<path d="M117.084 16.7042C117.084 16.116 117.111 15.621 117.076 15.13C117.042 14.6561 117.239 14.5143 117.684 14.5431C118.141 14.572 118.605 14.5878 119.06 14.5392C119.696 14.4709 119.812 14.7572 119.809 15.3296C119.787 18.9808 119.799 22.632 119.799 26.2832C119.799 26.846 120.088 27.1283 120.665 27.13C121.015 27.1313 121.365 27.1366 121.714 27.1458C121.777 27.1471 121.84 27.172 122.007 27.2101C122.007 27.8574 122.022 28.527 121.99 29.1939C121.986 29.2884 121.759 29.4499 121.633 29.4512C120.151 29.4696 118.667 29.4631 117.128 29.4631V27.3138C116.93 27.562 116.832 27.6841 116.736 27.8062C114.25 30.9913 109.188 30.4333 107.446 26.6981C106.038 23.6823 106.07 20.5523 107.364 17.488C109.162 13.2329 114.971 13.2828 116.892 16.4863C116.922 16.5361 116.969 16.5742 117.085 16.7042H117.084ZM109.381 22.0018C109.381 22.0018 109.391 22.0018 109.398 22.0018C109.398 22.8985 109.315 23.8057 109.427 24.688C109.5 25.2617 109.742 25.8946 110.108 26.3344C111.261 27.7169 112.832 27.814 114.426 27.3847C115.962 26.9698 116.761 25.7895 116.942 24.2705C117.086 23.0613 117.127 21.8245 117.059 20.6101C116.895 17.6915 115.356 16.2985 112.561 16.46C110.833 16.5598 109.38 17.8215 109.381 19.5755C109.381 20.3843 109.381 21.1943 109.381 22.0031V22.0018Z" fill="white"/>
<path d="M83.2938 27.1339V29.463C81.8838 29.463 80.5105 29.4761 79.1398 29.442C79.0085 29.4394 78.7866 29.1492 78.7761 28.9825C78.7341 28.3076 78.759 27.6289 78.759 26.786C78.5529 27.1562 78.4321 27.3978 78.2903 27.6262C77.1586 29.4354 75.4256 29.9882 73.4312 29.807C71.4671 29.6284 70.0242 28.6595 69.3835 26.698C68.4448 23.8241 70.426 21.0814 73.5927 20.8464C75.0514 20.7387 76.5074 20.5943 77.9608 20.4315C78.117 20.4144 78.356 20.1663 78.3678 20.0114C78.4085 19.4914 78.4019 18.9597 78.3441 18.4398C78.2365 17.4827 77.6247 16.758 76.6623 16.5912C75.9428 16.4665 75.1774 16.4192 74.4579 16.5203C73.3774 16.6726 72.6146 17.2818 72.4715 18.4621C72.4479 18.6525 72.3888 18.8376 72.3389 19.0529H69.7275C69.6094 17.9593 70.0203 17.0613 70.6584 16.2735C72.0199 14.5943 73.8947 14.0941 75.9389 14.2411C76.8527 14.3068 77.7927 14.568 78.633 14.9396C80.2229 15.6407 80.9805 17.0166 81.0448 18.7024C81.1406 21.256 81.1512 23.8122 81.1564 26.3685C81.1564 26.9658 81.314 27.2087 81.931 27.1418C82.359 27.0945 82.7962 27.1326 83.2951 27.1326L83.2938 27.1339ZM72.0934 25.0044C72.0934 25.2223 72.0894 25.4416 72.0934 25.6595C72.1157 26.6993 72.4978 27.2875 73.5258 27.4634C74.2584 27.5895 75.0684 27.5947 75.784 27.4149C77.3923 27.0105 78.3638 25.3457 78.3862 23.3107C78.3927 22.7685 78.2444 22.5623 77.6877 22.6254C76.3669 22.7737 75.0435 22.9129 73.7175 23.0114C72.2496 23.1203 72.1013 23.2543 72.0908 24.7418C72.0908 24.8297 72.0908 24.9164 72.0921 25.0044H72.0934Z" fill="white"/>
<path d="M128.204 29.4433H125.525C125.513 29.2057 125.492 28.9772 125.492 28.7475C125.491 24.2626 125.5 19.779 125.481 15.2941C125.479 14.7479 125.584 14.4788 126.196 14.5392C126.822 14.6009 127.673 14.354 128.023 14.677C128.355 14.9829 128.166 15.8547 128.208 16.477C128.211 16.5125 128.237 16.5466 128.274 16.6306C128.995 15.4858 129.907 14.614 131.254 14.3409C133.326 13.9208 135.58 14.4144 136.629 16.1186C137.235 17.102 137.451 18.1877 137.46 19.3103C137.487 22.5033 137.471 25.6976 137.489 28.8906C137.492 29.3593 137.309 29.5011 136.864 29.4735C136.363 29.442 135.856 29.4368 135.356 29.4761C134.837 29.5168 134.68 29.3265 134.684 28.8092C134.705 25.9654 134.694 23.1217 134.694 20.2779C134.694 19.9497 134.698 19.6214 134.682 19.2932C134.551 16.5033 132.542 15.9466 130.467 16.737C129.18 17.2267 128.552 18.3729 128.342 19.6858C128.208 20.5208 128.218 21.3834 128.211 22.2341C128.194 24.3781 128.206 26.5221 128.206 28.6648C128.206 28.8998 128.206 29.1361 128.206 29.4394L128.204 29.4433Z" fill="white"/>
<path d="M149.235 27.13V29.4276H143.178C143.163 29.1505 143.134 28.8958 143.134 28.6398C143.131 25.0083 143.119 21.3755 143.148 17.744C143.153 17.1138 142.971 16.842 142.337 16.9392C142.316 16.9418 142.293 16.9405 142.271 16.9392C141.76 16.8919 140.906 16.993 140.807 16.7658C140.574 16.2289 140.671 15.533 140.702 14.9055C140.709 14.7781 141.008 14.5772 141.183 14.5641C141.788 14.5221 142.4 14.5483 143.125 14.5483C143.125 14.0652 143.125 13.6372 143.125 13.2092C143.125 12.2022 143.13 11.1965 143.119 10.1895C143.115 9.78248 143.27 9.56585 143.697 9.59605C143.74 9.59867 143.785 9.59605 143.828 9.59605C145.214 9.56541 145.907 10.2398 145.907 11.6192C145.907 12.558 145.907 13.4967 145.907 14.551C146.798 14.551 147.642 14.5864 148.483 14.5392C149.11 14.5037 149.333 14.7059 149.307 15.3466C149.23 17.2096 149.551 16.9247 147.693 16.9405C145.909 16.9549 145.909 16.9405 145.909 18.7221C145.909 21.3046 145.921 23.8858 145.9 26.4669C145.896 26.9816 146.043 27.1641 146.568 27.1405C147.439 27.1024 148.312 27.13 149.236 27.13H149.235Z" fill="white"/>
<path d="M53.0902 14.5522C54.0447 14.5522 54.8534 14.5129 55.6543 14.5798C55.8578 14.5969 56.1309 14.9212 56.207 15.1588C57.155 18.0853 58.07 21.0223 58.997 23.9553C59.2202 24.6616 59.4525 25.3654 59.7348 26.2358C60.0552 25.2682 60.3335 24.4411 60.6013 23.6113C61.5046 20.8083 62.4145 18.0065 63.2954 15.1969C63.453 14.6953 63.6932 14.4932 64.2289 14.5352C64.8775 14.5851 65.5326 14.547 66.281 14.547C66.2206 14.8069 66.197 14.9908 66.1353 15.1601C64.4981 19.7422 62.8543 24.3203 61.2237 28.905C61.0792 29.3107 60.8928 29.5207 60.428 29.4748C59.7624 29.4091 58.9353 29.6271 58.4666 29.3041C58.0241 28.9982 57.9466 28.154 57.7248 27.5395C56.2648 23.4971 54.8075 19.4533 53.3514 15.4083C53.2661 15.1706 53.2018 14.9238 53.0889 14.5522H53.0902Z" fill="white"/>
<path d="M90.2838 16.9719V29.4183H87.5477C87.5477 29.1334 87.5477 28.8774 87.5477 28.6213C87.5477 24.2047 87.5621 19.7881 87.5333 15.3728C87.5293 14.7032 87.7197 14.5181 88.3801 14.5325C90.3035 14.5745 92.2269 14.5601 94.1503 14.5364C94.6624 14.5299 94.8317 14.694 94.8344 15.21C94.8449 16.9706 94.8619 16.9706 93.0803 16.9706C92.1862 16.9706 91.2921 16.9706 90.2838 16.9706V16.9719Z" fill="white"/>
<path d="M102.051 14.5484V29.4171H99.4106C99.3962 29.1756 99.3725 28.9629 99.3725 28.7515C99.3712 24.2692 99.383 19.7883 99.3594 15.306C99.3568 14.6994 99.5301 14.4907 100.134 14.5392C100.741 14.5878 101.355 14.5497 102.051 14.5497V14.5484Z" fill="white"/>
<path d="M102.592 10.6386C102.583 11.6732 101.736 12.5135 100.716 12.5016C99.6999 12.4898 98.857 11.6141 98.8793 10.594C98.9003 9.60011 99.7367 8.77823 100.731 8.77297C101.764 8.76772 102.601 9.60798 102.592 10.6399V10.6386Z" fill="white"/>
</g>
<defs>
<clipPath id="clip0_494_166">
<rect width="150" height="39" fill="white"/>
</clipPath>
</defs>
</svg>
