<svg width="176" height="24" viewBox="0 0 176 24" fill="none" xmlns="http://www.w3.org/2000/svg">
<g clip-path="url(#clip0_504_470)">
<path d="M6.29461 14.148C7.0194 13.132 7.82846 12.1786 8.53425 11.1485C9.06031 10.3814 9.55325 9.58895 9.70863 8.65978C9.90103 7.50948 9.70083 6.37809 9.4227 5.2598C9.27268 4.65652 9.05349 4.07604 8.78656 3.51592C8.46314 2.83748 8.09002 2.19104 7.5966 1.61152C7.41638 1.3996 7.16845 1.2512 7.03499 1H6.84015C6.88107 1.89425 6.78901 2.78219 6.63021 3.65704C6.50113 4.36749 6.28925 5.0634 6.02135 5.7399C5.45292 7.17438 4.52501 8.36445 3.48409 9.48226C2.83188 10.1825 2.13242 10.8382 1.56837 11.6209C0.735442 12.7751 0.192823 14.0461 0.0403636 15.4501C-0.0823832 16.5829 0.0768955 17.7031 0.489948 18.7807C0.778306 19.5328 1.1709 20.2195 1.65653 20.8631C2.71449 22.2646 4.07737 23.2068 5.79534 23.6244C5.91175 23.6525 6.06324 23.6942 6.17722 23.5599C6.29071 23.4265 6.19086 23.3179 6.15286 23.2039C6.1251 23.121 6.08272 23.0424 6.0384 22.9663C5.36573 21.8107 4.78122 20.6274 4.58784 19.2787C4.46412 18.4165 4.54059 17.5853 4.82603 16.7774C5.16407 15.8215 5.70718 14.9714 6.29461 14.148V14.148Z" fill="white"/>
<path d="M175.903 18.8476C175.849 18.1885 175.561 17.643 175.092 17.1808C174.475 16.5727 173.703 16.2211 172.917 15.9044C172.19 15.611 171.451 15.3472 170.778 14.9374C170.287 14.6382 170.261 13.8366 170.726 13.4976C171.373 13.0258 172.104 13.0966 172.836 13.1611C172.972 13.1732 173.108 13.1921 173.241 13.2217C173.867 13.3614 174.434 13.6339 174.969 13.9806C175.267 14.1736 175.432 14.0893 175.436 13.728C175.443 13.0515 175.43 12.3745 175.422 11.6975C175.42 11.4812 175.299 11.3391 175.107 11.2542C174.676 11.0646 174.227 10.9274 173.769 10.8217C172.998 10.6442 172.214 10.6131 171.434 10.6946C170.63 10.779 169.867 11.0229 169.162 11.439C168.139 12.0423 167.515 12.9133 167.443 14.0912C167.367 15.3332 167.81 16.3705 168.903 17.0717C169.676 17.5668 170.525 17.8937 171.376 18.2215C171.84 18.4005 172.302 18.5886 172.697 18.9009C173.009 19.1478 173.091 19.4824 173.015 19.8539C172.942 20.2074 172.695 20.4188 172.365 20.5347C172.021 20.656 171.654 20.6831 171.297 20.6783C170.084 20.6613 168.941 20.3504 167.895 19.738C167.547 19.5343 167.45 19.6473 167.438 20.0008C167.415 20.6608 167.431 21.3223 167.432 21.9833C167.433 22.1899 167.504 22.3732 167.702 22.4585C168.039 22.604 168.378 22.7558 168.731 22.8547C169.574 23.0909 170.44 23.1811 171.314 23.1365C172.388 23.0812 173.428 22.8833 174.352 22.2883C175.078 21.8203 175.621 21.2132 175.864 20.3645C175.916 20.1827 175.842 19.9698 176.001 19.816V18.9455C175.924 18.9562 175.909 18.916 175.904 18.8481L175.903 18.8476Z" fill="white"/>
<path d="M31.3366 15.2809H31.3356C31.3356 12.75 31.3322 10.2195 31.3381 7.68853C31.3395 7.15218 30.9318 6.8389 30.4876 6.81611C29.8242 6.78216 29.1579 6.80932 28.4925 6.80204C28.3235 6.8001 28.2655 6.86024 28.266 7.02755C28.2704 8.98577 28.2689 10.944 28.2704 12.9017C28.2704 13.2955 28.2738 13.2979 27.8749 13.2975C25.9518 13.2946 24.0293 13.2882 22.1062 13.2887C21.9202 13.2887 21.8763 13.265 21.8788 13.0467C21.8983 11.282 21.8968 9.51679 21.8866 7.75158C21.8827 7.10805 21.4818 6.81708 20.909 6.80932C20.2923 6.80107 19.6757 6.81077 19.059 6.80107C18.8953 6.79865 18.8325 6.83696 18.833 7.01203C18.8359 7.86602 18.8208 8.72051 18.8213 9.5745C18.8242 13.8057 18.8306 18.0369 18.8349 22.2681C18.8354 22.7651 19.2193 23.1512 19.7224 23.1526C20.3717 23.1546 21.0205 23.1487 21.6698 23.157C21.8374 23.1589 21.8939 23.1138 21.8934 22.9392C21.887 21.2308 21.889 19.5218 21.8895 17.8133C21.8895 17.2813 21.9328 16.745 21.8763 16.2193C21.8452 15.9293 21.9528 15.9467 22.1437 15.9467C24.0341 15.9487 25.925 15.9472 27.8154 15.9472C28.2587 15.9472 28.2631 15.9472 28.2636 16.3973C28.266 18.3395 28.2679 20.2817 28.264 22.2235C28.2631 22.6657 28.6454 23.1778 29.1871 23.1584C29.8193 23.1356 30.453 23.1449 31.0853 23.1575C31.2928 23.1618 31.34 23.0949 31.3395 22.897C31.3332 20.3583 31.3351 17.8191 31.3351 15.2804L31.3366 15.2809Z" fill="white"/>
<path d="M97.0107 6.80427C96.0531 6.80427 95.0954 6.81445 94.1383 6.79651C93.9211 6.79263 93.8651 6.8838 93.8139 7.05256C93.6084 7.72761 93.3989 8.40218 93.1826 9.07383C92.9074 9.92928 92.6191 10.7809 92.3458 11.6373C92.0097 12.6916 91.697 13.7531 91.3483 14.803C91.0097 15.8224 90.696 16.849 90.378 17.8747C90.2279 18.3582 90.0872 18.8446 89.9386 19.3417C89.8504 19.3087 89.8353 19.2529 89.8246 19.1991C89.661 18.3941 89.4018 17.6148 89.1714 16.8277C88.8816 15.8355 88.5616 14.8515 88.2596 13.8627C87.9503 12.8506 87.6464 11.8361 87.3395 10.823C87.0278 9.79447 86.7097 8.76783 86.4043 7.73779C86.2557 7.23636 85.8285 6.82512 85.3195 6.81105C84.452 6.78681 83.5831 6.80523 82.7151 6.80281C82.6084 6.80281 82.5806 6.84646 82.6215 6.93326C82.7141 7.1287 82.7579 7.33868 82.8247 7.54187C83.1008 8.38714 83.396 9.2261 83.6756 10.0699C84.0585 11.2246 84.4335 12.3812 84.812 13.5373C85.1184 14.4737 85.414 15.4136 85.7345 16.3452C86.0088 17.1424 86.2737 17.9426 86.5329 18.7452C86.7452 19.4042 86.9693 20.0594 87.1885 20.716C87.4413 21.4711 87.697 22.2252 87.945 22.9822C87.9776 23.0816 88.017 23.1364 88.1247 23.1364C89.2771 23.1354 90.4291 23.1354 91.5816 23.135C91.6707 23.135 91.7282 23.1049 91.7603 23.0089C92.0175 22.2407 92.283 21.475 92.5407 20.7068C92.905 19.621 93.282 18.5401 93.64 17.4523C94.0594 16.1769 94.5314 14.9184 94.9683 13.6488C95.357 12.5194 95.7248 11.3827 96.1091 10.2518C96.47 9.18973 96.8417 8.13157 97.2075 7.07147C97.299 6.80669 97.2966 6.80572 97.0102 6.80572L97.0107 6.80427Z" fill="white"/>
<path d="M71.0546 14.5278C70.9055 14.0225 70.6976 13.5409 70.3839 13.1117C70.0731 12.6864 69.7351 12.2873 69.3133 11.96C68.6026 11.4091 67.8296 11.0037 66.9314 10.848C66.7906 10.8237 66.6469 10.8504 66.513 10.8034C65.8763 10.5798 65.2353 10.6448 64.5929 10.7685C64.4423 10.7903 64.2923 10.8116 64.1413 10.8334C63.7575 10.8839 63.4053 11.0376 63.0493 11.1763C62.7877 11.2781 62.7916 11.2864 62.7916 11.0032C62.7916 9.91058 62.7974 8.8175 62.7862 7.72491C62.7843 7.52123 62.7984 7.28894 62.5875 7.1454C62.5393 7.06974 62.4682 7.02076 62.3917 6.9776C62.2884 6.85831 62.1369 6.82193 61.9986 6.81999C61.4165 6.81175 60.834 6.81757 60.2524 6.83018C59.7916 6.83988 59.7901 6.84764 59.7901 7.28991C59.7897 10.4387 59.7882 13.587 59.7901 16.7358C59.7906 17.4782 59.7346 18.2231 59.9139 18.9583C60.1399 19.8845 60.5485 20.7075 61.2368 21.3821C61.2821 21.4262 61.3274 21.4698 61.3727 21.514C61.3727 21.5135 61.3727 21.5125 61.3727 21.512C61.4516 21.5896 61.5305 21.6667 61.6094 21.7443C61.6523 21.7802 61.6947 21.8171 61.739 21.8515C62.193 22.2036 62.6713 22.5115 63.2246 22.6905C63.4438 22.7792 63.662 22.8723 63.8987 22.9116C64.1608 23.012 64.4297 23.0775 64.7151 23.0508C64.7288 23.0561 64.7429 23.0585 64.757 23.0571C64.7989 23.1099 64.8554 23.1032 64.9119 23.0935C65.2977 23.1133 65.683 23.1303 66.0687 23.0935C66.1243 23.1012 66.1803 23.1124 66.2212 23.059C66.2217 23.059 66.2227 23.059 66.2231 23.059C66.3995 23.0571 66.5743 23.0629 66.7507 23.0256C67.2426 22.9213 67.7205 22.7715 68.1735 22.5586C68.6445 22.3369 69.0994 22.0838 69.4672 21.705C69.4711 21.7002 69.4779 21.6953 69.4779 21.6905C69.4779 21.6823 69.475 21.6745 69.4725 21.6667C69.5149 21.6764 69.531 21.6595 69.5183 21.6148C69.7555 21.528 69.8529 21.2904 70.0332 21.1415C70.1817 21.0348 70.2597 20.8714 70.3605 20.7284C70.7994 20.1081 71.0833 19.4171 71.2036 18.6727C71.322 17.9399 71.2353 17.195 71.2631 16.4564C71.2879 15.8022 71.2382 15.1573 71.0526 14.5283L71.0546 14.5278ZM68.249 18.0054C68.2524 18.5446 68.039 19.0238 67.7648 19.4573C67.6367 19.66 67.3858 19.8147 67.1623 19.9617C66.3201 20.5155 65.4029 20.6008 64.4867 20.2764C63.6338 19.9743 63.0434 19.3593 62.8496 18.4384C62.8301 18.3448 62.833 18.2469 62.8257 18.1508C62.8072 18.2265 62.7892 18.3022 62.7702 18.3807C62.7892 18.3026 62.8077 18.2265 62.8257 18.1508C62.8125 18.1004 62.7994 18.05 62.7867 18C62.7916 17.2508 62.7731 16.5001 62.8072 15.7523C62.8432 14.9526 63.1925 14.2979 63.8749 13.8489C64.5997 13.3717 65.4068 13.2509 66.2368 13.4468C67.1856 13.6704 67.8763 14.2276 68.1613 15.1902C68.2241 15.4017 68.2441 15.632 68.247 15.8541C68.2567 16.5714 68.246 17.2886 68.2499 18.0063L68.249 18.0054ZM69.4662 21.6619C69.455 21.6667 69.4443 21.6716 69.4331 21.6764C69.4443 21.6716 69.455 21.6667 69.4662 21.6619Z" fill="white"/>
<path d="M57.6088 16.6387C57.6219 15.9224 57.6024 15.2144 57.391 14.5161C57.0077 13.2479 56.2391 12.2771 55.128 11.5768C54.3535 11.0889 53.5041 10.8038 52.5791 10.7116C51.7159 10.6253 50.8723 10.6709 50.0452 10.9163C48.7846 11.2907 47.7544 11.9948 46.9951 13.0772C46.4632 13.8352 46.1972 14.6882 46.0949 15.5902C46.0452 16.0281 46.0862 16.4757 46.0862 17.0291C46.1368 17.5 46.0438 18.0804 46.1675 18.6672C46.3058 19.3248 46.5002 19.9485 46.8592 20.5149C47.6122 21.7035 48.676 22.4799 50.034 22.8771C50.8314 23.1103 51.6307 23.2069 52.4612 23.1167C53.244 23.0318 53.9882 22.8378 54.6857 22.477C56.3745 21.6051 57.3535 20.2288 57.5781 18.3535C57.6458 17.789 57.5981 17.2109 57.6083 16.6392L57.6088 16.6387ZM54.4743 18.5664C54.2561 19.4145 53.6945 19.9441 52.8976 20.2457C52.545 20.3791 52.1621 20.464 51.7895 20.4354C50.7442 20.3558 49.8611 19.9732 49.3706 18.9747C49.2284 18.6852 49.1548 18.3734 49.1534 18.0499C49.1504 17.3491 49.1733 16.6479 49.1509 15.9481C49.1124 14.7648 49.8333 13.8531 50.9473 13.5234C51.996 13.213 52.9624 13.3798 53.7929 14.1024C54.2931 14.5379 54.543 15.1126 54.5557 15.7779C54.563 16.1484 54.5571 16.5189 54.5571 16.9946C54.5284 17.4481 54.6166 18.0111 54.4739 18.5664H54.4743Z" fill="white"/>
<path d="M108.519 14.6814C108.337 13.8744 108.022 13.1344 107.493 12.4981C106.735 11.5869 105.761 11.0467 104.58 10.8556C103.647 10.7048 102.729 10.744 101.814 10.9623C100.849 11.1921 100.024 11.6732 99.3365 12.372C98.2459 13.4816 97.8362 14.887 97.713 16.3777C97.6341 17.335 97.7183 18.2908 97.9804 19.2331C98.3428 20.5362 99.0554 21.5628 100.21 22.2805C100.945 22.7373 101.75 22.9745 102.61 23.0778C103.623 23.1995 104.61 23.1224 105.577 22.8154C106.425 22.5458 107.147 22.0885 107.68 21.3572C107.994 20.9256 108.322 20.5061 108.48 19.9867C108.56 19.7263 108.518 19.6662 108.252 19.6657C107.636 19.6657 107.018 19.6783 106.402 19.6603C106.178 19.654 106.003 19.7205 105.859 19.8669C105.195 20.542 104.363 20.7554 103.451 20.7209C102.64 20.6899 101.921 20.4523 101.388 19.7859C100.962 19.2539 100.829 18.6284 100.72 17.9873C100.687 17.7928 100.823 17.8316 100.93 17.8316C102.163 17.8311 103.397 17.8316 104.63 17.8316C105.863 17.8316 107.065 17.8316 108.282 17.8316C108.593 17.8316 108.677 17.7671 108.687 17.4567C108.701 17.0009 108.703 16.546 108.667 16.0877C108.63 15.6168 108.624 15.1484 108.518 14.6809L108.519 14.6814ZM105.636 15.6062C105.116 15.6042 104.597 15.6042 104.078 15.6037C103.819 15.6037 103.559 15.6037 103.299 15.6037C102.537 15.6037 101.774 15.5989 101.012 15.6076C100.822 15.6096 100.763 15.5838 100.813 15.3719C100.996 14.597 101.296 13.887 102.007 13.4554C102.597 13.098 103.263 13.0286 103.937 13.1533C104.872 13.3264 105.415 13.9214 105.693 14.8011C105.757 15.0024 105.76 15.2104 105.826 15.4073C105.889 15.596 105.773 15.6071 105.635 15.6066L105.636 15.6062Z" fill="white"/>
<path d="M163.906 12.2794C163.153 11.4963 162.241 11.0166 161.144 10.8537C159.899 10.6684 158.697 10.764 157.546 11.2664C156.355 11.7858 155.491 12.647 154.952 13.8303C154.623 14.55 154.457 15.3036 154.364 16.0853C154.232 17.1833 154.309 18.2594 154.606 19.3195C154.922 20.4528 155.545 21.3747 156.513 22.0764C157.231 22.5977 158.033 22.9062 158.891 23.0444C159.92 23.2097 160.941 23.1477 161.965 22.8795C163.517 22.4726 164.439 21.4256 165.076 20.0532C165.198 19.7903 165.091 19.6662 164.804 19.6672C164.171 19.6686 163.538 19.6711 162.905 19.6652C162.766 19.6638 162.654 19.6968 162.556 19.7942C161.757 20.5852 160.786 20.8218 159.69 20.688C158.74 20.5721 158.054 20.1002 157.649 19.2438C157.478 18.8816 157.409 18.4839 157.325 18.093C157.282 17.8961 157.293 17.8268 157.521 17.8287C158.754 17.8384 159.988 17.8331 161.22 17.8331C162.453 17.8331 163.703 17.8297 164.944 17.836C165.156 17.837 165.279 17.7511 165.284 17.5509C165.307 16.4466 165.34 15.3453 165.008 14.2648C164.779 13.5195 164.443 12.841 163.905 12.2804L163.906 12.2794ZM162.22 15.6043C161.831 15.6081 161.442 15.6043 161.053 15.6038C160.672 15.6038 160.292 15.6038 159.911 15.6038V15.6047C159.142 15.6047 158.371 15.6004 157.602 15.6081C157.429 15.6096 157.361 15.5659 157.404 15.3889C157.558 14.7425 157.808 14.1494 158.302 13.6761C158.695 13.2998 159.188 13.1907 159.698 13.1218C160.734 12.9821 161.652 13.439 162.1 14.3162C162.283 14.6732 162.369 15.0611 162.441 15.452C162.477 15.6498 162.321 15.6033 162.22 15.6043V15.6043Z" fill="white"/>
<path d="M119.243 11.5447C118.125 10.9142 116.905 10.7649 115.645 10.9385C115.027 11.0233 114.395 11.1009 113.891 11.6198C113.879 11.5408 113.872 11.5112 113.871 11.4821C113.857 10.9986 113.571 10.7207 113.085 10.7198C112.396 10.7183 111.706 10.7222 111.017 10.7139C110.853 10.712 110.792 10.7489 110.793 10.9278C110.798 12.3705 110.792 13.8128 110.791 15.2555C110.791 17.5925 110.791 19.9294 110.793 22.2664C110.793 22.8362 111.1 23.133 111.681 23.1335C112.313 23.134 112.947 23.1194 113.579 23.1417C113.821 23.15 113.874 23.084 113.873 22.8542C113.865 20.6137 113.858 18.3732 113.874 16.1333C113.878 15.5193 114.018 14.9194 114.395 14.4112C114.855 13.7924 115.468 13.5121 116.257 13.5698C117.037 13.627 117.608 13.9713 118.016 14.626C118.381 15.2099 118.374 15.8665 118.382 16.5047C118.407 18.4305 118.387 20.3567 118.388 22.2829C118.388 22.8154 118.701 23.1417 119.183 23.1393C119.824 23.1359 120.465 23.1379 121.105 23.1398C121.411 23.1408 121.42 23.1311 121.42 22.8319C121.42 20.7606 121.416 18.6894 121.423 16.6187C121.426 15.7982 121.4 14.9859 121.18 14.1847C120.871 13.0543 120.279 12.13 119.242 11.5461L119.243 11.5447Z" fill="white"/>
<path d="M43.9938 11.5822C43.9831 11.0565 43.6431 10.6467 43.044 10.6686C42.42 10.6913 41.7946 10.6826 41.1701 10.6686C40.9695 10.6637 40.9193 10.7117 40.9198 10.9149C40.9281 13.4371 40.9251 15.9594 40.9247 18.4816C40.9247 18.5781 40.9344 18.678 40.913 18.7706C40.5759 20.24 38.9203 20.8156 37.7649 20.223C36.9505 19.805 36.5179 19.1227 36.5214 18.1853C36.5291 16.0176 36.5252 13.8498 36.5272 11.6821C36.5272 11.5444 36.515 11.41 36.4746 11.2777C36.3577 10.8965 36.0567 10.6744 35.6524 10.6744C34.987 10.6744 34.3216 10.6792 33.6568 10.671C33.5082 10.669 33.4683 10.703 33.4688 10.8557C33.4761 12.1772 33.4727 13.4987 33.4727 14.8207H33.4736C33.4736 15.9249 33.4785 17.0287 33.4717 18.1329C33.4673 18.7856 33.4946 19.4316 33.7181 20.0543C33.9685 20.7516 34.3572 21.3704 34.8959 21.8733C35.7103 22.6342 36.684 23.0896 37.8126 23.1303C38.8482 23.1677 39.8867 23.2443 40.8979 22.8733C41.9061 22.5033 42.6845 21.8719 43.27 20.9922C43.8116 20.1784 43.9909 19.2594 43.9958 18.3046C44.005 16.4836 43.9967 14.6621 43.9958 12.8411C43.9958 12.4221 44.0016 12.0031 43.9928 11.5841L43.9938 11.5822Z" fill="white"/>
<path d="M142.816 10.6728C142.232 10.6631 141.648 10.6665 141.064 10.666C140.718 10.6657 140.545 10.8358 140.545 11.1762C140.545 13.5539 140.542 15.9311 140.545 18.3088C140.547 19.5838 139.585 20.3568 138.468 20.4368C137.186 20.5289 136.102 19.4931 136.116 18.1585C136.14 15.9505 136.124 13.7416 136.125 11.5331C136.125 11.053 135.771 10.6505 135.268 10.6636C134.595 10.6811 133.921 10.6694 133.248 10.6631C133.103 10.6617 133.055 10.6995 133.056 10.8547C133.064 12.1762 133.061 13.4981 133.061 14.8196H133.055C133.055 16.0611 133.063 17.3021 133.049 18.5431C133.045 18.8782 133.098 19.2075 133.17 19.5207C133.38 20.4344 133.825 21.2341 134.522 21.8815C135.154 22.4683 135.894 22.897 136.738 23.039C137.719 23.2044 138.719 23.1976 139.713 23.0633C140.547 22.9508 141.276 22.6036 141.906 22.0701C143.032 21.1172 143.591 19.9 143.582 18.4184C143.567 16.0892 143.577 13.76 143.57 11.4308C143.569 11.0157 143.23 10.6801 142.817 10.6733L142.816 10.6728Z" fill="white"/>
<path d="M126.819 13.4772C127.208 13.4844 127.598 13.4801 127.987 13.4801C128.888 13.4801 129.788 13.482 130.689 13.4776C130.773 13.4776 130.902 13.546 130.895 13.3438C130.876 12.7565 130.876 12.1688 130.879 11.581C130.881 11.1363 130.526 10.7668 130.079 10.7668C129.016 10.7668 127.953 10.7619 126.89 10.7721C126.687 10.774 126.614 10.7445 126.618 10.5146C126.634 9.56361 126.619 8.61262 126.623 7.66164C126.625 7.10976 126.224 6.8251 125.846 6.81346C125.141 6.79115 124.435 6.81104 123.73 6.80813C123.594 6.80764 123.549 6.84983 123.55 6.99047C123.555 8.91669 123.553 10.8434 123.553 12.7696H123.555C123.555 13.5674 123.555 14.3656 123.555 15.1633C123.555 15.9611 123.553 16.7593 123.556 17.557C123.558 18.3524 123.546 19.1486 123.7 19.9357C124.059 21.7766 125.247 22.7523 126.968 23.0418C128.212 23.2513 129.478 23.0966 130.732 23.1412C130.848 23.1451 130.89 23.0986 130.889 22.9846C130.881 22.3804 130.887 21.7756 130.871 21.1719C130.859 20.7121 130.5 20.4318 130.089 20.4197C129.595 20.4052 129.1 20.4376 128.605 20.4231C128.154 20.41 127.7 20.3736 127.319 20.0846C126.78 19.6763 126.635 19.0822 126.627 18.4678C126.605 16.864 126.626 15.2598 126.621 13.6561C126.62 13.4912 126.683 13.4747 126.819 13.4772V13.4772Z" fill="white"/>
<path d="M13.0911 11.8149C12.9347 11.5806 12.7301 11.3784 12.5708 11.1597C12.3546 10.8634 12.1242 10.5909 11.8709 10.33C11.8047 10.2616 11.7204 10.2441 11.6459 10.2014C11.5937 10.1719 11.5304 10.1748 11.5217 10.2572C11.4958 10.5026 11.4086 10.7281 11.3258 10.9589C11.1783 11.3687 11.0224 11.7858 10.8124 12.1543C10.5329 12.6461 10.2859 13.1592 9.96296 13.6296C9.69068 14.0258 9.46613 14.4588 9.207 14.8618C8.82658 15.4535 8.51874 16.0718 8.2523 16.7153C8.03652 17.2366 7.86653 17.7725 7.77349 18.3302C7.76959 18.5455 7.70043 18.7555 7.72429 18.9737C7.63905 19.2681 7.65561 19.5649 7.71212 19.8621C7.73257 20.0711 7.75303 20.2802 7.773 20.4892C7.82415 20.8708 7.9581 21.2278 8.12663 21.5696C8.33998 22.0022 8.56209 22.4241 8.89185 22.7966C9.07646 23.0051 9.24597 23.2442 9.42229 23.4702C9.55186 23.636 9.62687 23.5832 9.72137 23.4348C9.91864 23.1249 10.1797 22.8717 10.4978 22.6865C11.1062 22.332 11.6843 21.946 12.1953 21.4533C12.8738 20.7981 13.3916 20.0396 13.7696 19.1871C13.9206 18.8462 14.017 18.481 14.1252 18.1226C14.2606 17.674 14.3283 17.223 14.3721 16.7691C14.4559 15.904 14.3502 15.048 14.148 14.2028C13.942 13.342 13.582 12.551 13.0915 11.8149H13.0911Z" fill="white"/>
<path d="M152.584 11.7954C152.585 11.6392 152.525 11.5175 152.424 11.4069C152.173 11.1339 151.84 11.0126 151.498 10.9161C150.948 10.761 150.382 10.7479 149.817 10.7697C149.15 10.7959 148.509 10.9355 147.912 11.242C146.433 12.001 145.804 13.3331 145.739 14.8617C145.636 17.3073 145.699 19.7597 145.698 22.2092C145.698 22.7247 146.098 23.1572 146.651 23.1403C147.235 23.1223 147.819 23.1311 148.403 23.134C148.716 23.1354 148.725 23.1408 148.726 22.8173C148.73 21.5846 148.727 20.3518 148.727 19.1186C148.729 19.1186 148.73 19.1186 148.732 19.1186C148.732 17.9503 148.736 16.7816 148.73 15.6134C148.727 15.2303 148.801 14.8651 148.937 14.512C149.172 13.901 149.845 13.3845 150.564 13.3739C151.195 13.3647 151.79 13.4898 152.375 13.6983C152.532 13.7546 152.59 13.7478 152.587 13.5596C152.578 12.9714 152.581 12.3831 152.585 11.7949L152.584 11.7954Z" fill="white"/>
<path d="M75.928 7.17052C75.8378 7.08177 75.7326 7.02164 75.6075 6.99642C75.5909 6.95811 75.5607 6.94647 75.5212 6.95423C75.5056 6.95132 75.4896 6.95083 75.474 6.95326C74.833 6.65889 74.2563 6.89264 73.8023 7.29515C73.2962 7.74421 73.1009 8.3664 73.3586 9.04339C73.5373 9.51282 73.8325 9.88963 74.3435 10.0472C74.4623 10.0986 74.5855 10.1326 74.7146 10.1471C74.7473 10.1801 74.7804 10.1845 74.814 10.1491C75.0658 10.1864 75.3079 10.1146 75.5539 10.0807C75.6693 10.0278 75.7945 9.98953 75.8754 9.8809C75.9864 9.82804 76.0682 9.73978 76.151 9.65297C76.4725 9.39547 76.5855 9.03321 76.6191 8.6501C76.6727 8.03324 76.4379 7.5352 75.928 7.17052Z" fill="white"/>
<path d="M76.4145 11.9808C76.2932 11.6103 75.9332 11.3528 75.5538 11.3649C74.9386 11.361 74.3234 11.3537 73.7082 11.3562C73.6074 11.3562 73.4374 11.2859 73.4603 11.5055C73.4573 11.7393 73.452 11.9725 73.452 12.2058C73.4515 15.5568 73.451 18.9078 73.4525 22.2588C73.4525 22.4164 73.4184 22.5866 73.5708 22.7059C73.7413 22.9634 73.9683 23.1157 74.2912 23.1157C74.8421 23.1157 75.3926 23.1235 75.9435 23.1308C76.4578 23.1375 76.4603 23.139 76.4603 22.6264C76.4603 19.1804 76.4603 15.7343 76.4603 12.2882C76.4603 12.1835 76.4632 12.0783 76.415 11.9808H76.4145Z" fill="white"/>
</g>
<defs>
<clipPath id="clip0_504_470">
<rect width="176" height="24" fill="white"/>
</clipPath>
</defs>
</svg>
