<svg width="100" height="42" viewBox="0 0 100 42" fill="none" xmlns="http://www.w3.org/2000/svg">
<g clip-path="url(#clip0_504_358)">
<path d="M68.2199 1.00001C65.4124 4.6158 62.6057 8.23258 59.7088 11.9642C60.4875 11.9642 61.1199 11.9201 61.7435 11.9711C68.4144 12.5211 73.8891 17.549 75.0528 24.1747C76.4326 32.0348 71.2151 39.6641 63.3315 41.2402C57.9981 42.3067 53.2795 41.0212 49.3357 37.2473C46.9239 34.9396 45.5235 32.0672 45.0816 28.7499C44.512 24.485 45.7779 20.7229 48.2948 17.33C52.2936 11.9426 56.3169 6.57493 60.3294 1.19837C60.3785 1.13258 60.4237 1.0658 60.4708 0.999023C63.0545 0.999023 65.6382 0.999023 68.2209 0.999023L68.2199 1.00001ZM60.0073 35.7497C60.5897 35.682 61.1818 35.6623 61.7514 35.5386C65.54 34.7176 68.1669 31.8177 68.6452 27.9692C69.308 22.6398 65.4919 17.4979 59.5477 17.8338C57.3667 17.9565 55.4782 18.7765 53.9905 20.3752C51.78 22.7517 51.1701 25.5966 51.7368 28.7303C52.4713 32.7968 55.9251 35.6997 60.0073 35.7497V35.7497Z" fill="white"/>
<path d="M41.9271 1C41.93 1.21212 41.9369 1.42423 41.9369 1.63635C41.9369 14.4497 41.9369 27.2641 41.9369 40.0775C41.9369 40.3181 41.9369 40.5587 41.9369 40.8248H35.4615V40.1944C35.4615 29.3234 35.4615 18.4515 35.4615 7.58051C35.4615 7.10652 35.2255 6.8692 34.7534 6.86855C33.5976 6.86855 32.4418 6.86855 31.2329 6.86855V1C34.7986 1 38.3634 1 41.9271 1Z" fill="white"/>
<path d="M24.6613 38.622C20.4308 41.4679 15.9587 42.2918 11.1684 40.9239C7.77355 39.9546 5.04648 37.966 2.96068 35.1221C-1.15202 29.5138 -0.96151 21.7942 3.42124 16.3361C5.08969 14.2581 7.16372 12.7066 9.6335 11.6961C12.1003 10.6865 14.6663 10.332 17.3129 10.6345C19.9545 10.937 22.3605 11.8895 24.6378 13.4765V11.5222H31.0071V40.8247H24.6623V38.622H24.6613ZM15.5246 35.1329C20.5437 35.1368 24.6446 31.0625 24.6515 26.064C24.6584 21.0675 20.5683 16.9666 15.56 16.9489C10.5595 16.9322 6.42819 21.0311 6.42328 26.0139C6.41837 31.089 10.4505 35.129 15.5236 35.1329H15.5246Z" fill="white"/>
<path d="M77.7062 40.813C77.6974 40.6539 77.6817 40.4948 77.6817 40.3358C77.6797 38.7027 77.6679 37.0705 77.6934 35.4374C77.6974 35.1723 77.8093 34.8571 77.9782 34.6528C82.5623 29.0985 87.1611 23.555 91.756 18.0095C91.8483 17.8976 91.9337 17.7807 92.0948 17.5735H77.7131V11.7217H99.9971C99.9971 12.2608 99.9971 12.7783 99.9971 13.2959C99.9971 14.5852 100.01 15.8756 99.9853 17.165C99.9814 17.3997 99.8832 17.6786 99.7339 17.8593C95.14 23.4067 90.5334 28.9434 85.9297 34.4829C85.8275 34.6067 85.7332 34.7363 85.5653 34.9533H99.9715V40.814H77.7062V40.813Z" fill="white"/>
</g>
<defs>
<clipPath id="clip0_504_358">
<rect width="100" height="42" fill="white"/>
</clipPath>
</defs>
</svg>
