<svg width="150" height="24" viewBox="0 0 150 24" fill="none" xmlns="http://www.w3.org/2000/svg">
<g clip-path="url(#clip0_504_340)">
<path d="M0 10.84C0.055043 10.7878 0.141932 10.7445 0.160018 10.6816C0.284651 10.255 0.593285 9.94284 0.8512 9.60865C1.09457 9.29334 1.4209 9.04211 1.71026 8.76257C1.75194 8.72246 1.8058 8.6859 1.82782 8.63597C1.90881 8.45275 2.03698 8.45983 2.1801 8.54121C2.36842 8.64816 2.54888 8.76964 2.73917 8.87304C2.82331 8.91865 2.92357 8.93477 3.01596 8.96622C3.07022 8.9847 3.15239 8.99139 3.17205 9.02913C3.27978 9.23633 3.49405 9.21628 3.66704 9.28901C3.86874 9.37354 4.05745 9.48795 4.25128 9.59096C4.27369 9.60276 4.28903 9.63893 4.30987 9.64129C4.67551 9.67903 4.88192 10.0738 5.26683 10.0667C5.27941 10.0667 5.29514 10.0687 5.30418 10.0765C5.61635 10.3443 6.0504 10.3855 6.36572 10.6301C6.53478 10.761 6.71249 10.8098 6.89885 10.8798C7.09937 10.9548 7.27747 11.0885 7.46619 11.1951C7.70327 11.3284 7.94113 11.4593 8.17899 11.5914C8.1904 11.5977 8.20141 11.6083 8.21359 11.6099C8.69915 11.6625 9.03177 12.0648 9.49413 12.1697C9.64589 12.3927 9.90459 12.382 10.1236 12.4618C10.321 12.5338 10.3862 12.6958 10.3854 12.899C10.3811 13.9913 10.3795 15.0831 10.3791 16.1753C10.3784 18.4053 10.3791 20.6353 10.3795 22.8654C10.3795 22.911 10.3811 22.957 10.3784 23.0026C10.3713 23.1162 10.4027 23.2479 10.2537 23.3018C10.1141 23.3517 10.0851 23.2231 10.0115 23.1571C9.85309 23.014 9.68049 22.8866 9.51851 22.747C9.44027 22.6798 9.37618 22.5964 9.30069 22.5257C9.2142 22.4443 9.1218 22.3688 9.03295 22.2898C9.00936 22.2689 8.98616 22.2461 8.96925 22.2202C8.95156 22.1931 8.94842 22.1541 8.92679 22.1325C8.72667 21.9316 8.52262 21.735 8.3225 21.5341C8.25802 21.4692 8.2077 21.389 8.14164 21.3261C7.94113 21.135 7.73669 20.9483 7.53185 20.7619C7.50354 20.736 7.45282 20.7297 7.43356 20.7002C7.22872 20.3904 6.93778 20.1675 6.66885 19.9206C6.40622 19.6796 6.15695 19.424 5.91083 19.1661C5.74609 18.9935 5.59984 18.8032 5.441 18.6247C5.40365 18.5826 5.34467 18.5606 5.30261 18.5217C5.21296 18.4391 5.12922 18.3503 5.04076 18.2665C4.9637 18.1934 4.88467 18.1226 4.80486 18.0522C4.79071 18.0401 4.76554 18.0389 4.75375 18.0255C4.57329 17.8258 4.40029 17.6194 4.21315 17.4263C4.04684 17.2553 3.86402 17.1 3.69024 16.9361C3.63834 16.8873 3.59234 16.8319 3.54123 16.7823C3.31909 16.5669 3.09538 16.3526 2.87403 16.1364C2.83707 16.1002 2.80955 16.055 2.77692 16.0149C2.58034 15.7723 2.37275 15.545 2.12387 15.3481C1.90999 15.179 1.74604 14.9463 1.56047 14.7414C1.55182 14.732 1.54789 14.7178 1.53845 14.7088C1.38237 14.5606 1.22313 14.4155 1.07019 14.2637C0.9605 14.1548 0.858277 14.038 0.754482 13.9228C0.662089 13.8206 0.562618 13.7227 0.484378 13.6107C0.31689 13.3716 0.161197 13.1247 0.000393164 12.881C0.000393164 12.2008 0.000393164 11.5202 0.000393164 10.84H0Z" fill="white"/>
<path d="M32.6634 23.5571C32.6591 22.7268 32.6512 21.896 32.6508 21.0656C32.6493 18.1354 32.6501 15.2051 32.6504 12.2749C32.6504 8.29802 32.6512 4.32156 32.6516 0.344701C32.6516 -0.0539675 32.6406 0.0199474 32.9725 0.02152C33.3916 0.0234859 33.8111 0.0254517 34.2298 0.0148362C34.3713 0.0112978 34.4091 0.057298 34.4087 0.192153C34.4016 2.87314 34.3961 5.55452 34.3945 8.23551C34.3933 10.1777 34.4012 12.1196 34.4012 14.0618C34.4012 16.4098 34.3973 18.7574 34.3953 21.1053C34.3945 21.9227 34.3937 22.7401 34.393 23.5571H32.6634V23.5571Z" fill="white"/>
<path d="M56.5435 11.664C56.5089 11.8783 56.4872 12.0843 56.4397 12.2836C56.4086 12.4138 56.337 12.5337 56.2883 12.6599C56.2065 12.8722 56.1967 13.1049 56.0382 13.2992C55.962 13.3923 55.9804 13.5701 55.9738 13.71C55.9624 13.9365 55.9628 13.9444 55.8016 13.988C55.6868 14.3501 55.5865 14.6866 55.4725 15.0189C55.3954 15.2434 55.2959 15.4596 55.2142 15.6825C55.1902 15.7474 55.1855 15.8221 55.1855 15.8925C55.1855 16.038 55.2055 16.1854 55.0097 16.2337C54.9802 16.2412 54.9523 16.3026 54.9452 16.3427C54.9158 16.5137 54.8949 16.6863 54.8705 16.8581C54.867 16.8836 54.8702 16.9194 54.8548 16.9328C54.5163 17.2312 54.6641 17.7203 54.4145 18.0568C54.3724 18.1135 54.4003 18.2224 54.3964 18.3069C54.3913 18.4158 54.3822 18.518 54.2395 18.5393C54.2116 18.5432 54.1739 18.5857 54.1684 18.6155C54.1357 18.7858 54.1039 18.9564 54.0874 19.1286C54.0779 19.2261 54.072 19.2949 53.9588 19.3378C53.9045 19.3582 53.8487 19.4691 53.853 19.5351C53.879 19.9212 53.6451 20.2287 53.5456 20.5755C53.5251 20.6466 53.3738 20.7245 53.2826 20.7249C51.7433 20.7339 50.2041 20.7315 48.6648 20.7312C48.5206 20.7312 48.436 20.6694 48.4203 20.5129C48.4116 20.4257 48.3837 20.3301 48.3346 20.2586C48.1777 20.0297 48.1742 19.7577 48.0975 19.5068C48.048 19.3449 47.9524 19.1978 47.895 19.0378C47.8628 18.9482 47.9017 18.7909 47.849 18.7579C47.5675 18.5802 47.678 18.2664 47.5679 18.0325C47.4598 17.8037 47.3674 17.5662 47.2844 17.3271C47.2298 17.1699 47.2035 17.0024 47.1669 16.8392C47.1346 16.6957 47.1056 16.5518 47.0733 16.4083C47.0694 16.391 47.0533 16.3639 47.0411 16.3631C46.7926 16.3423 46.8728 16.152 46.8484 16.0089C46.828 15.8889 46.7875 15.771 46.7438 15.6566C46.6007 15.2799 46.4494 14.906 46.3086 14.5282C46.287 14.4704 46.3023 14.3988 46.3027 14.3336C46.3039 14.1924 46.3408 14.036 46.1274 14.0033C46.1014 13.9994 46.0778 13.9341 46.0652 13.8936C45.9898 13.6448 46.0224 13.3609 45.8105 13.1545C45.7731 13.1183 45.781 13.0334 45.7731 12.9705C45.7668 12.9198 45.7881 12.8545 45.7633 12.8195C45.5801 12.5616 45.525 12.2691 45.5054 11.9636C45.5034 11.9306 45.4743 11.881 45.4464 11.8712C45.2769 11.8126 45.2667 11.6797 45.2801 11.5366C45.2994 11.3341 45.214 11.1773 45.0953 11.0196C45.0257 10.9272 44.984 10.8002 44.9703 10.6838C44.9534 10.5419 44.9475 10.4212 44.8472 10.2922C44.7607 10.1806 44.7647 9.99895 44.7293 9.84797C44.7151 9.78664 44.7206 9.68481 44.6864 9.66948C44.4368 9.55585 44.458 9.29951 44.443 9.11472C44.425 8.89494 44.2693 8.76756 44.2182 8.58277C44.1226 8.23679 44.0279 7.8908 43.9327 7.54521C43.9241 7.51376 43.9256 7.47208 43.9052 7.45282C43.6603 7.22242 43.6681 6.90946 43.6233 6.61302C43.619 6.58353 43.6032 6.53792 43.5828 6.53124C43.3713 6.46283 43.3858 6.28276 43.3964 6.12549C43.4102 5.92813 43.3449 5.77047 43.2309 5.62067C43.2038 5.58489 43.1802 5.54361 43.1657 5.50115C43.0721 5.23026 42.9789 4.95937 42.892 4.68651C42.8649 4.6012 42.8472 4.50998 42.8433 4.42113C42.8378 4.29492 42.8621 4.164 42.6699 4.15653C42.6467 4.15574 42.6101 4.06492 42.6089 4.0146C42.6023 3.77634 42.5673 3.5601 42.4108 3.35644C42.3392 3.26326 42.3432 3.08044 42.3719 2.95148C42.4061 2.79736 42.5673 2.83432 42.6891 2.83392C43.9469 2.83392 45.2042 2.83668 46.4619 2.8296C46.6125 2.82881 46.7022 2.87914 46.7403 3.01281C46.8087 3.25343 46.9927 3.45866 46.9526 3.73388C46.9455 3.78342 46.9872 3.84632 47.0195 3.89389C47.1256 4.05037 47.172 4.2159 47.1708 4.40855C47.1696 4.5662 47.218 4.72465 47.2483 4.88231C47.2522 4.90354 47.2774 4.93499 47.2954 4.93696C47.5074 4.96212 47.4582 5.12293 47.4861 5.26093C47.5247 5.45043 47.6033 5.63168 47.667 5.81568C47.6815 5.85814 47.7106 5.89667 47.7212 5.93953C47.8243 6.35589 47.9241 6.77343 48.0283 7.18979C48.0401 7.23776 48.0633 7.30263 48.1003 7.32111C48.2791 7.40996 48.2477 7.56959 48.2717 7.7241C48.2996 7.90456 48.3759 8.07755 48.4309 8.25369C48.4804 8.41214 48.5253 8.57176 48.5799 8.72863C48.6369 8.8918 48.7026 9.05182 48.7643 9.21341C48.7667 9.2197 48.771 9.2252 48.7718 9.23149C48.7985 9.51614 48.9208 9.7658 49.0364 10.0229C49.1072 10.1802 49.0836 10.3776 49.1311 10.5494C49.1583 10.6481 49.266 10.7239 49.2959 10.8226C49.3482 10.9956 49.3651 11.1788 49.4032 11.3565C49.4193 11.4312 49.4504 11.5032 49.4755 11.5759C49.5149 11.6896 49.5573 11.8024 49.5939 11.9168C49.6092 11.9656 49.5955 12.0328 49.6242 12.067C49.8781 12.367 49.8565 12.7409 49.9143 13.0943C49.921 13.1348 49.9721 13.1675 49.9988 13.206C50.0484 13.2775 50.1152 13.3448 50.1388 13.4246C50.2119 13.6715 50.2741 13.9219 50.3291 14.1736C50.4097 14.5424 50.6955 14.8494 50.6366 15.2634C50.6185 15.39 50.679 15.528 50.7054 15.6601C50.7101 15.6849 50.7207 15.7101 50.7345 15.7309C50.8213 15.865 50.9102 15.9978 51.0097 16.1488C51.0344 16.0238 51.0742 15.8752 51.0911 15.7238C51.104 15.609 51.1001 15.5056 51.2452 15.4647C51.2853 15.4533 51.3144 15.3704 51.3301 15.3149C51.3545 15.2288 51.3572 15.1372 51.3792 15.0503C51.4677 14.6996 51.5597 14.3497 51.6517 13.9998C51.6647 13.9506 51.6757 13.8944 51.7068 13.8571C51.8389 13.6986 51.9018 13.5221 51.8833 13.3149C51.8742 13.2123 51.879 13.1191 52.024 13.1057C52.0578 13.1026 52.0948 13.0204 52.1117 12.9685C52.1373 12.8903 52.1683 12.8038 52.1585 12.7259C52.1086 12.3395 52.4251 12.0521 52.4321 11.6809C52.4341 11.5814 52.4852 11.4835 52.5127 11.3845C52.5694 11.1804 52.6256 10.976 52.6826 10.7723C52.6877 10.7534 52.692 10.7306 52.7054 10.7184C52.9798 10.4617 52.9515 10.1153 52.9838 9.78664C52.9873 9.7489 52.992 9.697 53.0164 9.67813C53.1953 9.53973 53.2401 9.35455 53.2318 9.14146C53.2299 9.09349 53.2688 9.04513 53.2829 8.9952C53.3419 8.78446 53.3993 8.57333 53.4559 8.36181C53.4725 8.29969 53.4634 8.20691 53.5027 8.1782C53.7768 7.97848 53.7363 7.67849 53.7697 7.40131C53.7728 7.37536 53.7693 7.34194 53.7838 7.32543C54.0716 6.99793 53.9958 6.53281 54.2191 6.18014C54.2501 6.13139 54.2293 6.05237 54.2423 5.98946C54.2631 5.88842 54.2596 5.75002 54.3237 5.69655C54.521 5.53182 54.512 5.30889 54.5438 5.09619C54.5694 4.92634 54.5894 4.76279 54.7329 4.63855C54.7738 4.60316 54.7821 4.52335 54.7923 4.46202C54.83 4.23437 54.8639 4.01302 54.9822 3.80071C55.0691 3.64463 55.075 3.44293 55.1163 3.26129C55.1839 2.96327 55.3384 2.83314 55.6337 2.83274C56.8718 2.83196 58.1094 2.82999 59.3475 2.83786C59.4458 2.83864 59.5799 2.88543 59.6298 2.95777C59.6679 3.01281 59.6156 3.14924 59.5748 3.23613C59.5001 3.39418 59.4238 3.54083 59.4202 3.72877C59.4179 3.85183 59.3404 3.98432 59.2669 4.09244C59.1769 4.22533 59.0919 4.34839 59.1124 4.51981C59.1214 4.59609 59.1379 4.70421 59.0971 4.74863C58.8372 5.03093 58.9032 5.44178 58.6909 5.74019C58.6595 5.78462 58.6406 5.85146 58.6453 5.90532C58.6587 6.06731 58.5808 6.17857 58.4987 6.31146C58.4016 6.46873 58.3819 6.67396 58.3272 6.85757C58.3025 6.94092 58.2989 7.05808 58.2419 7.09818C58.1098 7.19176 58.0776 7.30066 58.0854 7.44967C58.0898 7.53027 58.0654 7.61716 58.0359 7.69422C57.9541 7.91046 57.8102 8.10743 57.8496 8.35945C57.8554 8.3972 57.8303 8.46168 57.7992 8.48015C57.5295 8.64057 57.6121 8.92915 57.5417 9.16151C57.5201 9.23346 57.5099 9.33253 57.4587 9.36713C57.3251 9.45717 57.3207 9.5759 57.2979 9.71666C57.2641 9.92464 57.1745 10.1236 57.1108 10.3272C57.0801 10.4259 57.0636 10.5301 57.0247 10.6257C56.9928 10.7031 56.9229 10.766 56.8957 10.8443C56.8399 11.0054 56.801 11.1721 56.7569 11.3373C56.7503 11.3617 56.753 11.3896 56.755 11.4155C56.7687 11.5716 56.7416 11.6935 56.5415 11.6644L56.5435 11.664Z" fill="white"/>
<path d="M131.723 15.074C130.282 15.074 128.841 15.0756 127.4 15.0713C127.25 15.0709 127.205 15.1644 127.218 15.2675C127.259 15.5718 127.218 15.902 127.463 16.1513C127.484 16.1729 127.504 16.211 127.5 16.239C127.454 16.6207 127.77 16.8208 127.931 17.0976C128.011 17.2352 128.09 17.3803 128.279 17.3945C128.29 17.3953 128.306 17.4086 128.309 17.4188C128.386 17.7267 128.683 17.6532 128.882 17.7511C129.38 17.9968 129.906 17.9594 130.435 17.919C130.455 17.9174 130.475 17.9138 130.494 17.9166C130.92 17.9826 131.293 17.7935 131.677 17.6634C131.717 17.65 131.738 17.5883 131.771 17.5525C131.81 17.5112 131.855 17.4377 131.893 17.4405C132.086 17.4542 132.129 17.3209 132.191 17.1861C132.227 17.1063 132.299 17.0426 132.352 16.9702C132.391 16.9191 132.445 16.8704 132.459 16.813C132.543 16.4635 132.943 16.3027 133.253 16.4925C133.322 16.5342 133.408 16.5543 133.488 16.5661C134.327 16.6864 135.171 16.6439 136.014 16.6506C136.203 16.6522 136.274 16.8342 136.195 17.067C136.122 17.2789 136.062 17.4951 135.996 17.709C135.988 17.7334 135.981 17.7774 135.969 17.7786C135.666 17.8148 135.801 18.1081 135.688 18.2543C135.478 18.526 135.269 18.7989 135.057 19.0693C135.026 19.1091 134.98 19.1362 134.948 19.1755C134.919 19.2105 134.91 19.2644 134.876 19.2915C134.603 19.5136 134.335 19.7444 134.045 19.9449C133.876 20.0625 133.714 20.2367 133.467 20.1851C133.457 20.1832 133.436 20.1926 133.434 20.2005C133.376 20.4399 133.176 20.3955 133.004 20.4372C132.863 20.4714 132.738 20.576 132.606 20.6491C132.561 20.6742 132.517 20.7128 132.468 20.7206C131.951 20.8036 131.434 20.9349 130.915 20.9487C130.099 20.9703 129.277 20.9459 128.466 20.8673C128.21 20.8425 127.934 20.7525 127.67 20.6849C127.542 20.6522 127.437 20.5374 127.311 20.4875C127.2 20.4439 127.073 20.4407 126.953 20.4155C126.904 20.4053 126.828 20.3982 126.813 20.3672C126.702 20.1242 126.424 20.1616 126.25 20.0228C126.025 19.8439 125.753 19.7228 125.595 19.4641C125.58 19.4385 125.551 19.4126 125.523 19.4039C125.206 19.31 125.071 19.0076 124.844 18.8118C124.804 18.7772 124.795 18.7065 124.771 18.653C124.755 18.618 124.74 18.5527 124.723 18.5527C124.488 18.5488 124.53 18.3298 124.448 18.2091C124.41 18.1533 124.364 18.103 124.319 18.053C124.289 18.0204 124.227 17.9952 124.224 17.9626C124.199 17.6768 123.902 17.4806 123.964 17.1653C123.971 17.1299 123.938 17.0705 123.906 17.0457C123.661 16.8574 123.659 16.5901 123.658 16.3207C123.658 16.2158 123.696 16.0868 123.514 16.0892C123.497 16.0892 123.472 16.0439 123.461 16.0156C123.446 15.9732 123.43 15.9264 123.432 15.882C123.468 15.0736 123.225 14.2767 123.341 13.4632C123.401 13.0453 123.419 12.6215 123.457 12.2004C123.46 12.1681 123.457 12.1249 123.477 12.106C123.726 11.8611 123.703 11.5371 123.736 11.2297C123.738 11.2104 123.739 11.1805 123.75 11.1742C124.077 10.991 123.908 10.5479 124.189 10.3423C124.167 10.0627 124.46 9.96209 124.542 9.72265C124.615 9.51231 124.846 9.35662 125.006 9.17616C125.104 9.06607 125.179 8.9206 125.3 8.85062C125.52 8.72284 125.588 8.40556 125.891 8.39376C125.969 8.17398 126.224 8.18892 126.353 8.05131C126.592 7.79733 126.789 7.70061 127.246 7.52959C127.704 7.35856 128.692 7.07863 128.871 7.07627C129.565 7.06722 130.259 7.06722 130.953 7.07705C131.11 7.07941 131.296 7.08374 131.462 7.20129C131.629 7.31885 132.015 7.36249 132.254 7.39001C132.273 7.39237 132.3 7.3963 132.308 7.40888C132.497 7.69865 132.91 7.56969 133.11 7.83783C133.397 7.82564 133.535 8.0926 133.762 8.20229C134.031 8.33203 134.234 8.59978 134.459 8.81405C134.593 8.94144 134.722 9.07511 134.84 9.21744C134.909 9.3 134.94 9.41245 135.005 9.49894C135.08 9.59842 135.189 9.6743 135.255 9.77809C135.393 9.99394 135.53 10.2137 135.633 10.4469C135.705 10.6081 135.729 10.7932 135.756 10.9702C135.77 11.0673 135.763 11.151 135.896 11.1581C135.931 11.1601 135.983 11.2163 135.991 11.2552C136.076 11.6397 136.178 12.0227 136.226 12.4123C136.277 12.8263 136.279 13.2466 136.293 13.6641C136.304 13.9775 136.312 14.292 136.302 14.605C136.297 14.7379 136.262 14.8778 136.205 14.9973C136.181 15.0481 136.063 15.0756 135.987 15.076C135.031 15.0811 134.075 15.0795 133.119 15.0795C132.654 15.0795 132.188 15.0795 131.724 15.0795V15.074H131.723ZM130.009 10.0305C130.008 10.0392 130.006 10.0474 130.005 10.0561C129.914 10.0561 129.82 10.0435 129.73 10.0584C129.419 10.1099 129.053 9.99197 128.832 10.3387C128.821 10.356 128.785 10.3671 128.762 10.3647C128.456 10.334 128.315 10.6183 128.083 10.7319C127.881 10.831 127.849 11.1546 127.604 11.2611C127.592 11.2666 127.588 11.2949 127.583 11.3134C127.515 11.5426 127.545 11.8155 127.29 11.9629C127.272 11.9739 127.27 12.0231 127.269 12.0549C127.266 12.1854 127.266 12.316 127.267 12.4469C127.268 12.5711 127.321 12.5872 127.431 12.5385C127.527 12.4956 127.635 12.4551 127.738 12.4548C128.851 12.4489 129.964 12.4481 131.078 12.4524C131.463 12.454 131.848 12.4748 132.233 12.4819C132.311 12.4835 132.433 12.4901 132.459 12.4481C132.506 12.3718 132.522 12.255 132.505 12.1642C132.452 11.8921 132.477 11.5898 132.235 11.3798C132.217 11.3641 132.231 11.3154 132.221 11.2851C132.185 11.1691 132.172 11.0331 132.1 10.9442C132.014 10.8361 131.848 10.7893 131.769 10.6788C131.557 10.3863 131.127 10.4528 130.931 10.1477C130.924 10.1359 130.895 10.1355 130.876 10.1331C130.587 10.0985 130.298 10.0647 130.009 10.0309L130.009 10.0305Z" fill="white"/>
<path d="M61.177 9.04045C61.2903 8.93862 61.3646 8.87021 61.4405 8.80338C61.5663 8.6925 61.6929 8.58242 61.8199 8.47233C61.8643 8.4338 61.9252 8.40549 61.9524 8.35753C62.0491 8.18729 62.2217 8.14954 62.3841 8.09175C62.408 8.0831 62.4442 8.08664 62.4572 8.07052C62.6758 7.7957 62.9899 7.70134 63.3088 7.61602C63.3151 7.61445 63.3225 7.61288 63.3265 7.60855C63.6174 7.27672 64.0259 7.3644 64.3943 7.30857C64.4364 7.30228 64.5001 7.28812 64.5123 7.25981C64.5976 7.06402 64.7804 7.08014 64.9341 7.07817C65.6807 7.06834 66.4274 7.06952 67.174 7.0766C67.2648 7.07739 67.3973 7.11316 67.4366 7.17764C67.5255 7.32311 67.6454 7.29992 67.7747 7.31092C67.9745 7.32783 68.1726 7.3644 68.3712 7.3927C68.3775 7.39349 68.3873 7.39467 68.3892 7.3986C68.5654 7.73633 68.9837 7.5885 69.2298 7.81575C69.323 7.90185 69.4854 7.91876 69.5695 8.05872C69.6057 8.11848 69.7119 8.15701 69.7905 8.16527C69.897 8.17628 69.9682 8.19358 69.9682 8.31743C69.9682 8.33905 69.989 8.37758 70.0052 8.38033C70.3201 8.43262 70.4309 8.7385 70.6503 8.90914C70.8367 9.05382 70.959 9.28068 71.1092 9.47215C71.1331 9.50282 71.1481 9.54292 71.1764 9.56808C71.4221 9.78786 71.5279 10.0816 71.6128 10.3863C71.6214 10.4169 71.6285 10.4633 71.6498 10.4731C71.9171 10.5935 71.8636 10.8573 71.9262 11.0696C71.9419 11.123 71.9796 11.1706 72.0087 11.2198C72.0386 11.2697 72.0842 11.3149 72.0988 11.3684C72.1746 11.6479 72.2879 11.9267 72.3056 12.2113C72.3586 13.0574 72.3799 13.9063 72.3987 14.7539C72.4046 15.0107 72.3107 15.0795 72.0563 15.0795C69.2401 15.0795 66.4238 15.0814 63.6076 15.0759C63.4228 15.0759 63.3406 15.1196 63.3579 15.3146C63.3744 15.4966 63.367 15.6802 63.3788 15.8626C63.3839 15.9389 63.3862 16.04 63.433 16.0852C63.6846 16.3285 63.6768 16.7044 63.8989 16.96C63.9996 17.0756 64.1761 17.1326 64.1773 17.3307C64.1773 17.361 64.2685 17.4105 64.3212 17.416C64.4415 17.429 64.537 17.4534 64.561 17.5933C64.5653 17.6177 64.6043 17.6488 64.6314 17.6539C64.9955 17.7211 65.3017 17.9661 65.7126 17.9201C66.1887 17.8666 66.6754 17.9067 67.1579 17.9055C67.1901 17.9055 67.2251 17.9051 67.2534 17.8925C67.4209 17.819 67.5923 17.7514 67.7511 17.6618C67.838 17.6126 67.8911 17.4931 67.98 17.4597C68.2442 17.3598 68.3409 17.1184 68.486 16.9167C68.5151 16.8762 68.5379 16.8267 68.5477 16.7783C68.5968 16.5377 68.9464 16.3246 69.1646 16.4292C69.5739 16.6258 70.0177 16.6097 70.4479 16.6415C70.9625 16.6796 71.4823 16.6454 71.9993 16.6557C72.0885 16.6572 72.2305 16.704 72.2533 16.765C72.2957 16.8798 72.2847 17.0221 72.2666 17.1491C72.2485 17.2792 72.1955 17.4042 72.1581 17.5316C72.142 17.5867 72.1381 17.6834 72.1098 17.6912C71.9104 17.7455 71.9466 17.9315 71.8786 18.0592C71.831 18.1485 71.7477 18.2181 71.6828 18.2983C71.6564 18.3309 71.6218 18.3663 71.6156 18.4044C71.577 18.6341 71.4603 18.8122 71.2873 18.9647C71.2016 19.0406 71.1453 19.1495 71.062 19.2285C70.9059 19.3763 70.7404 19.5151 70.5768 19.6551C70.4872 19.7314 70.4015 19.8183 70.2992 19.8729C70.0869 19.9861 69.8703 20.0974 69.6438 20.176C69.5581 20.2055 69.4995 20.2102 69.4626 20.3066C69.4433 20.3569 69.3611 20.4041 69.301 20.4139C69.093 20.4473 68.8894 20.4489 68.7274 20.6376C68.6597 20.7163 68.486 20.7029 68.3609 20.7335C68.2391 20.7634 68.1172 20.7953 67.9961 20.8291C67.9461 20.8432 67.8994 20.8763 67.8494 20.8814C66.9951 20.9624 66.1396 21.0076 65.2825 20.9388C64.8944 20.9073 64.4981 20.9156 64.1325 20.7406C64.0786 20.7147 63.998 20.7497 63.939 20.73C63.8069 20.6856 63.6799 20.6258 63.5522 20.5696C63.4425 20.5212 63.3379 20.4367 63.2254 20.4261C63.0536 20.41 62.8932 20.43 62.7945 20.235C62.7635 20.1737 62.6384 20.1603 62.557 20.123C62.2119 19.9641 61.9119 19.7483 61.654 19.4648C61.5309 19.33 61.3551 19.2442 61.2171 19.1212C61.1078 19.0237 61.0174 18.9049 60.9235 18.7913C60.8609 18.7162 60.8035 18.636 60.7501 18.5542C60.6978 18.4744 60.6278 18.3938 60.6121 18.3054C60.5936 18.2012 60.5806 18.1355 60.4564 18.1284C60.4261 18.1269 60.3923 18.0498 60.375 18.0022C60.3514 17.9374 60.3557 17.8599 60.3235 17.8013C60.2008 17.5757 60.0451 17.3645 59.9472 17.129C59.8717 16.9482 59.8505 16.7406 59.8309 16.5424C59.8179 16.4095 59.8092 16.3022 59.6634 16.2448C59.6237 16.2291 59.5922 16.1438 59.5898 16.0887C59.5541 15.3205 59.5179 14.5518 59.4959 13.7828C59.4857 13.4176 59.4982 13.0507 59.5147 12.6851C59.5254 12.4527 59.5611 12.2212 59.5891 11.9896C59.5934 11.9538 59.6087 11.8995 59.6335 11.8889C59.8348 11.8056 59.8104 11.6361 59.8316 11.4639C59.8784 11.0853 60.0003 10.7295 60.2519 10.4279C60.3003 10.3697 60.3392 10.2927 60.353 10.2188C60.3758 10.0941 60.4068 9.9923 60.5523 9.96714C60.5735 9.9636 60.5983 9.92114 60.6034 9.89362C60.6549 9.59993 60.824 9.39273 61.063 9.22445C61.1271 9.17963 61.1535 9.08174 61.1774 9.04203L61.177 9.04045ZM66.0491 10.0277C65.7747 10.0623 65.4865 10.1067 65.1964 10.1307C65.0886 10.1397 65.0092 10.1366 64.9829 10.2683C64.975 10.3084 64.8972 10.3662 64.8559 10.3627C64.5559 10.3375 64.4069 10.5754 64.2217 10.7315C64.0845 10.847 63.965 11.0004 63.8427 11.1285C63.6725 11.307 63.7287 11.6228 63.4507 11.7112C63.4393 11.7148 63.4409 11.7596 63.4366 11.7851C63.4185 11.894 63.3933 12.0022 63.3847 12.1119C63.3772 12.2066 63.3764 12.3057 63.3949 12.3985C63.4248 12.5487 63.4892 12.6355 63.6371 12.4826C63.6638 12.4551 63.7204 12.4456 63.7637 12.4456C65.229 12.4433 66.6947 12.4429 68.16 12.4433C68.1986 12.4433 68.2477 12.4409 68.2737 12.4622C68.4447 12.6029 68.5241 12.4806 68.5744 12.3474C68.6059 12.2644 68.611 12.1571 68.589 12.071C68.5355 11.8614 68.4356 11.6621 68.3983 11.4506C68.344 11.1431 68.0264 11.0157 67.9426 10.7338C67.9344 10.7067 67.864 10.7 67.8254 10.6792C67.7814 10.6556 67.7158 10.6351 67.702 10.5982C67.6033 10.3292 67.2101 10.4382 67.1311 10.1488C67.1288 10.1409 67.095 10.1405 67.0757 10.1382C66.7407 10.102 66.4061 10.0662 66.0495 10.0281L66.0491 10.0277Z" fill="white"/>
<path d="M107.955 18.3982C107.94 18.4556 107.929 18.5145 107.909 18.57C107.792 18.8971 107.614 19.1817 107.343 19.4082C107.251 19.4853 107.182 19.5926 107.106 19.6885C106.922 19.9201 106.7 20.0974 106.413 20.1859C106.388 20.1933 106.342 20.1969 106.341 20.2071C106.296 20.5032 106.003 20.3691 105.856 20.4855C105.797 20.5322 105.727 20.5665 105.66 20.6022C105.575 20.6471 105.491 20.7041 105.4 20.7261C105.237 20.7654 105.07 20.7886 104.903 20.8071C104.568 20.8436 104.232 20.8837 103.896 20.9006C103.641 20.9132 103.377 20.9286 103.132 20.8763C102.859 20.8181 102.597 20.7131 102.31 20.6993C102.242 20.6962 102.177 20.607 102.11 20.5582C102.073 20.5323 102.038 20.4902 101.999 20.4859C101.6 20.4402 101.351 20.1179 101.013 19.9614C100.969 19.9413 100.937 19.8926 100.905 19.8529C100.881 19.8226 100.874 19.7644 100.846 19.7538C100.624 19.6704 100.545 19.4471 100.388 19.3028C100.273 19.1971 100.174 19.1019 100.108 18.9466C99.9774 18.6403 99.7938 18.3569 99.6408 18.0592C99.6074 17.9944 99.6168 17.9083 99.5952 17.8355C99.5535 17.6956 99.5036 17.5576 99.4568 17.4188C99.4269 17.3299 99.3746 17.2426 99.3695 17.1522C99.1863 13.9904 99.3334 10.8258 99.2838 7.66241C99.2787 7.33019 99.3047 7.3066 99.6381 7.3066C100.726 7.3066 101.813 7.30581 102.9 7.30542C103.098 7.30542 103.214 7.42966 103.204 7.62192C103.192 7.84327 103.177 8.06462 103.177 8.28636C103.175 10.1629 103.177 12.0391 103.175 13.9157C103.175 14.3796 103.153 14.8443 103.168 15.3079C103.174 15.5005 103.192 15.6975 103.324 15.8772C103.412 15.9967 103.408 16.1819 103.454 16.3348C103.477 16.4115 103.52 16.4834 103.558 16.5546C103.576 16.5884 103.621 16.614 103.627 16.6482C103.663 16.8459 103.804 16.9458 103.961 17.0433C104.268 17.2324 104.432 17.567 104.85 17.4923C104.917 17.4805 105.116 17.499 105.173 17.5587C105.351 17.5926 105.452 17.707 105.618 17.5906C105.727 17.5139 105.866 17.4687 105.998 17.4361C106.166 17.3944 106.341 17.3834 106.511 17.35C106.548 17.3429 106.574 17.293 106.609 17.2686C106.684 17.2167 106.765 17.1727 106.837 17.1172C106.934 17.0429 107.045 16.9757 107.114 16.8798C107.28 16.6498 107.573 16.4925 107.549 16.1477C107.547 16.108 107.572 16.0474 107.604 16.0274C107.867 15.8591 107.855 15.5921 107.856 15.3334C107.859 14.3851 107.857 13.4364 107.857 12.4881C107.857 10.9772 107.857 9.46625 107.857 7.95532C107.857 7.88337 107.859 7.81142 107.856 7.73947C107.84 7.30935 107.84 7.30778 108.262 7.30739C109.323 7.30621 110.384 7.30621 111.446 7.30581C111.681 7.30581 111.801 7.42101 111.801 7.64787C111.801 10.9902 111.801 14.3321 111.801 17.6743C111.801 18.557 111.798 19.44 111.796 20.3227C111.795 20.6258 111.689 20.7312 111.382 20.7312C110.38 20.7312 109.378 20.7312 108.375 20.7312C108.091 20.7312 107.949 20.6195 107.948 20.3427C107.945 19.9052 107.968 19.4676 107.984 19.0304C107.992 18.8216 108.008 18.6132 108.02 18.4048C107.998 18.4029 107.976 18.4005 107.954 18.3985L107.955 18.3982Z" fill="white"/>
<path d="M78.3346 9.40059C78.5186 9.11554 78.6998 8.82892 78.8885 8.54703C78.9231 8.49552 78.9849 8.46092 79.0375 8.42357C79.069 8.40155 79.1146 8.39762 79.1413 8.37246C79.3226 8.20025 79.4893 8.01075 79.6835 7.85466C79.8093 7.75323 79.9725 7.6974 80.1203 7.62466C80.1651 7.60264 80.2394 7.60697 80.2595 7.57434C80.427 7.30305 80.7085 7.34827 80.9605 7.30541C81.0266 7.2944 81.0847 7.24133 81.1484 7.21263C81.2518 7.16623 81.3564 7.0876 81.4618 7.08524C82.1034 7.07148 82.7451 7.07227 83.3867 7.07738C83.4488 7.07777 83.5393 7.12181 83.5672 7.17292C83.6474 7.31839 83.7701 7.30423 83.9029 7.31131C84.1471 7.32389 84.3991 7.3294 84.5639 7.56176C84.5839 7.59006 84.6268 7.60972 84.6629 7.61837C84.9649 7.69071 85.1965 7.87118 85.4096 8.08663C85.533 8.21126 85.6832 8.31073 85.7996 8.44087C85.9502 8.60915 86.0913 8.78921 86.2148 8.97833C86.3748 9.22327 86.5191 9.47922 86.6582 9.73674C86.6956 9.80594 86.6811 9.90108 86.707 9.97854C86.744 10.0894 86.7931 10.1967 86.8434 10.3025C86.8702 10.3587 86.9335 10.4059 86.9397 10.4617C86.9791 10.8093 87.0207 11.1576 87.0353 11.5068C87.0557 12.0018 87.0585 12.4979 87.0601 12.9933C87.0648 14.6733 87.066 16.3533 87.0683 18.0333C87.0695 18.8236 87.0711 19.6142 87.0715 20.4045C87.0715 20.6148 86.9563 20.7304 86.7483 20.7304C85.6478 20.7308 84.5477 20.7312 83.4473 20.7304C83.2149 20.7304 83.069 20.5912 83.1005 20.3671C83.2534 19.2792 83.1496 18.1866 83.165 17.0964C83.1858 15.6122 83.174 14.1276 83.1677 12.643C83.1662 12.299 83.1481 11.9573 82.946 11.6475C82.8088 11.4372 82.7211 11.1954 82.6063 10.9701C82.5917 10.9418 82.5473 10.928 82.5163 10.9084C82.2969 10.7688 82.0838 10.6174 81.855 10.4948C81.7327 10.4291 81.5841 10.3819 81.4469 10.3815C81.0356 10.3803 80.6243 10.4039 80.2135 10.4228C80.0979 10.4279 79.9772 10.4319 79.9233 10.5734C79.9119 10.6033 79.8459 10.6111 79.8058 10.6312C79.6407 10.7145 79.4169 10.757 79.3226 10.8907C79.1115 11.1899 78.7702 11.4226 78.76 11.8441C78.7588 11.8877 78.7195 11.9605 78.6853 11.9687C78.504 12.0128 78.5284 12.1464 78.5284 12.2774C78.5292 14.9587 78.5292 17.6405 78.5268 20.3219C78.5268 20.4041 78.5032 20.487 78.4844 20.568C78.4545 20.6946 78.3766 20.7351 78.2422 20.7343C77.122 20.7284 76.0023 20.7316 74.8822 20.7304C74.6663 20.7304 74.6011 20.662 74.6011 20.4489C74.6015 16.1583 74.6019 11.8681 74.6026 7.57748C74.6026 7.36596 74.6573 7.30738 74.8653 7.30699C75.9198 7.30581 76.9742 7.29755 78.0287 7.31131C78.3609 7.31564 78.4289 7.45757 78.4152 7.69976C78.392 8.10983 78.401 8.52186 78.3833 8.93233C78.3786 9.03887 78.3224 9.14228 78.2976 9.24922C78.2866 9.296 78.2956 9.34751 78.2956 9.39665L78.3338 9.3998L78.3346 9.40059Z" fill="white"/>
<path d="M137.97 16.649C138.223 16.649 138.457 16.6565 138.691 16.6474C139.246 16.6258 139.803 16.6109 140.356 16.5633C140.65 16.5381 140.939 16.456 141.228 16.3899C141.461 16.3368 141.602 16.5141 141.781 16.5955C141.806 16.6069 141.819 16.6793 141.813 16.7194C141.762 17.0516 142.017 17.2136 142.195 17.4184C142.227 17.4554 142.255 17.4967 142.288 17.5317C142.334 17.5792 142.38 17.6284 142.433 17.6669C142.521 17.7306 142.614 17.7876 142.705 17.8458C142.737 17.8662 142.77 17.8938 142.805 17.9004C143.124 17.9586 143.442 18.0278 143.763 18.0648C144.174 18.1124 144.58 18.0553 144.975 17.9307C145.012 17.9189 145.05 17.9091 145.089 17.9063C145.548 17.871 145.817 17.582 146.016 17.2065C146.073 17.0996 146.123 16.98 146.136 16.8621C146.144 16.7776 146.077 16.6875 146.057 16.5967C146.003 16.3478 145.794 16.2134 145.646 16.0357C145.608 15.9908 145.547 15.9562 145.49 15.9389C145.354 15.8985 145.202 15.8969 145.08 15.834C144.855 15.7176 144.619 15.7105 144.376 15.6944C144.183 15.6818 143.981 15.6854 143.828 15.5017C143.766 15.4274 143.617 15.4054 143.504 15.398C143.269 15.3822 143.033 15.3956 142.797 15.3905C142.601 15.3862 142.399 15.3944 142.269 15.199C142.252 15.1731 142.201 15.1577 142.165 15.1569C141.696 15.1495 141.253 15.0123 140.829 14.8397C140.611 14.7512 140.406 14.6364 140.173 14.5794C140.104 14.5625 140.069 14.4343 140 14.3832C139.74 14.1913 139.471 14.0124 139.208 13.8241C139.158 13.7876 139.101 13.7372 139.083 13.6818C139.052 13.5835 139.027 13.5198 138.904 13.4876C138.838 13.4699 138.811 13.3197 138.759 13.234C138.721 13.1715 138.659 13.1215 138.627 13.0567C138.558 12.9163 138.503 12.7689 138.438 12.6265C138.296 12.3171 138.255 11.9935 138.271 11.6546C138.286 11.3676 138.266 11.079 138.277 10.7916C138.288 10.4952 138.3 10.1964 138.486 9.93926C138.512 9.90191 138.504 9.83979 138.514 9.78946C138.522 9.74543 138.52 9.69314 138.543 9.65893C138.725 9.39709 138.895 9.12344 139.103 8.88401C139.315 8.63985 139.546 8.40002 139.808 8.21288C140.116 7.99231 140.451 7.7859 140.805 7.66087C140.997 7.59325 141.147 7.47766 141.32 7.40807C141.525 7.32629 141.767 7.3318 141.994 7.30978C142.125 7.2972 142.242 7.31921 142.356 7.18632C142.432 7.09786 142.62 7.0782 142.759 7.07663C143.571 7.0668 144.384 7.06326 145.195 7.0782C145.37 7.08135 145.599 7.0267 145.702 7.27203C145.714 7.30152 145.808 7.30152 145.864 7.30742C146.129 7.33573 146.394 7.36128 146.659 7.3888C146.678 7.39077 146.705 7.39274 146.714 7.40492C146.94 7.72221 147.359 7.64711 147.636 7.85785C147.697 7.90424 147.753 7.95732 147.816 8.00017C147.904 8.05994 147.997 8.11341 148.088 8.16806C148.115 8.18378 148.15 8.18929 148.171 8.20934C148.259 8.28954 148.333 8.38862 148.431 8.45271C148.684 8.6198 148.791 8.92214 148.995 9.09907C149.218 9.29368 149.173 9.63613 149.459 9.76037C149.497 9.77649 149.496 9.87557 149.517 9.93494C149.575 10.1036 149.647 10.2687 149.69 10.4413C149.737 10.6336 149.787 10.8337 149.777 11.0268C149.773 11.0983 149.607 11.1832 149.501 11.2206C149.407 11.2532 149.291 11.2151 149.189 11.2304C149.064 11.2493 148.942 11.291 148.818 11.3244C148.737 11.3464 148.658 11.3885 148.576 11.3916C147.889 11.4203 147.203 11.4411 146.516 11.4671C146.36 11.473 146.268 11.4408 146.193 11.267C146.072 10.9855 145.918 10.6992 145.709 10.481C145.574 10.3407 145.38 10.2149 145.188 10.1311C144.971 10.0372 144.743 9.95774 144.512 9.91292C144.316 9.87478 144.108 9.88815 143.905 9.8909C143.714 9.89365 143.533 9.88264 143.35 10.0136C143.216 10.1091 143.004 10.0965 142.827 10.1315C142.79 10.139 142.735 10.1288 142.716 10.1508C142.503 10.3997 142.205 10.6029 142.158 10.9485C142.133 11.1368 142.202 11.3405 142.245 11.5339C142.265 11.6244 142.324 11.7061 142.366 11.7915C142.375 11.8084 142.383 11.8323 142.398 11.8382C142.622 11.9259 142.844 12.0222 143.074 12.0926C143.214 12.1355 143.377 12.1103 143.456 12.2817C143.471 12.3132 143.545 12.3266 143.594 12.3317C143.982 12.3722 144.371 12.4079 144.759 12.448C144.81 12.4532 144.879 12.4567 144.906 12.4893C145.066 12.68 145.283 12.6246 145.487 12.6533C145.713 12.6851 145.931 12.7728 146.156 12.8227C146.3 12.855 146.45 12.8766 146.598 12.8782C146.814 12.8805 146.995 12.945 147.181 13.0606C147.317 13.1455 147.502 13.153 147.665 13.1954C147.72 13.2096 147.812 13.2112 147.823 13.2418C147.905 13.4687 148.129 13.4278 148.288 13.5096C148.443 13.5898 148.587 13.6956 148.73 13.7978C148.945 13.9511 149.121 14.1485 149.313 14.3246C149.519 14.5141 149.613 14.7504 149.759 14.9643C149.781 14.9957 149.781 15.0461 149.807 15.0697C150.022 15.26 149.993 15.5104 149.991 15.7577C149.988 16.268 149.967 16.7795 149.999 17.2875C150.019 17.6048 149.91 17.8686 149.77 18.1234C149.642 18.3553 149.466 18.5606 149.313 18.7792C149.21 18.9262 149.133 19.0984 149.006 19.2207C148.682 19.5348 148.34 19.8309 147.95 20.0644C147.868 20.114 147.774 20.1643 147.681 20.1725C147.53 20.1855 147.382 20.1678 147.344 20.3711C147.34 20.3943 147.254 20.408 147.205 20.4159C146.983 20.4517 146.752 20.4607 146.592 20.6565C146.565 20.6892 146.514 20.7273 146.478 20.7238C146.2 20.6935 145.96 20.824 145.703 20.8806C145.412 20.9447 145.107 20.9534 144.807 20.96C144.29 20.9711 143.771 20.9907 143.256 20.9522C142.814 20.9192 142.352 20.9726 141.934 20.745C141.863 20.7061 141.749 20.7532 141.664 20.7277C141.502 20.6785 141.346 20.605 141.188 20.5433C141.075 20.4997 140.962 20.4607 140.85 20.4167C140.747 20.3758 140.644 20.3345 140.544 20.2869C140.486 20.2594 140.439 20.1989 140.38 20.1867C139.982 20.1022 139.682 19.8352 139.404 19.5824C139.044 19.2545 138.742 18.8586 138.445 18.4694C138.343 18.3361 138.333 18.1336 138.277 17.9641C138.258 17.9067 138.238 17.8206 138.197 17.8049C138.035 17.744 138.05 17.6221 138.041 17.4888C138.027 17.2647 137.988 17.0418 137.962 16.8181C137.957 16.774 137.967 16.728 137.971 16.6502L137.97 16.649Z" fill="white"/>
<path d="M11.8368 0.0197472C11.9155 0.0197472 11.9957 0.0303627 12.0723 0.0181746C12.5434 -0.0565266 12.9633 0.114107 13.3674 0.309509C13.551 0.398364 13.6957 0.567425 13.8581 0.699921C13.8884 0.724691 13.9155 0.760862 13.9501 0.771477C14.142 0.829666 14.2599 0.956264 14.322 1.14302C14.3319 1.1729 14.3523 1.20396 14.3767 1.22322C14.5398 1.35336 14.7058 1.48035 14.8697 1.60931C14.9106 1.64155 14.9633 1.67025 14.9853 1.71311C15.1359 2.00601 15.4178 2.17153 15.6376 2.39721C15.8452 2.60991 16.0374 2.83716 16.2466 3.0479C16.4042 3.20674 16.5815 3.34513 16.7424 3.50122C16.8281 3.58457 16.8977 3.68482 16.9727 3.7784C16.9889 3.79845 16.994 3.82872 17.0125 3.84445C17.1866 3.99385 17.3651 4.13854 17.5369 4.2903C17.6128 4.35753 17.6749 4.4397 17.7465 4.51204C17.8204 4.58714 17.8983 4.6583 17.973 4.73261C18.0135 4.77271 18.0516 4.81517 18.0897 4.85763C18.1373 4.91032 18.1739 4.98659 18.2328 5.01293C18.3991 5.08724 18.5136 5.19772 18.5694 5.37228C18.5804 5.40728 18.6122 5.43834 18.6405 5.46468C18.8812 5.68682 19.1261 5.90463 19.364 6.12952C19.5008 6.25887 19.421 6.52583 19.2448 6.59503C19.1218 6.64338 19.0109 6.7232 18.8953 6.79043C18.8619 6.81009 18.8344 6.84233 18.7994 6.85648C18.5014 6.97915 18.1967 7.08727 17.9053 7.22409C17.6749 7.33221 17.4611 7.47453 17.2397 7.60153C17.2228 7.61135 17.2067 7.62983 17.1894 7.63101C16.8859 7.65067 16.6543 7.82877 16.4042 7.97346C16.1196 8.1378 15.82 8.27502 15.5263 8.42324C15.4858 8.44368 15.4418 8.45626 15.4017 8.4771C15.2731 8.54315 15.1473 8.61471 15.0171 8.67762C14.8469 8.76018 14.6723 8.83292 14.5021 8.91587C14.3382 8.99569 14.1793 9.08533 14.0158 9.16632C13.9407 9.20367 13.8573 9.2249 13.783 9.26382C13.6725 9.32162 13.5664 9.38806 13.459 9.45176C13.4315 9.46827 13.4087 9.49461 13.38 9.5068C13.1111 9.62082 12.8398 9.72854 12.5728 9.84649C12.4038 9.92119 12.2453 10.0211 12.0747 10.0906C11.7712 10.2141 11.5085 10.0588 11.2443 9.94321C11.1453 9.89957 11.0525 9.84138 10.9577 9.78791C10.7175 9.65227 10.4785 9.51466 10.2382 9.37902C10.1871 9.35032 10.1325 9.32791 10.079 9.30353C9.67483 9.11835 9.26987 8.93475 8.86688 8.74681C8.7969 8.71418 8.73871 8.65521 8.66912 8.62179C8.55471 8.56674 8.43558 8.52192 8.31724 8.47474C8.27556 8.45823 8.21894 8.46059 8.19024 8.43267C7.92643 8.17869 7.56275 8.12286 7.25609 7.95577C7.13696 7.89089 7.03316 7.79535 6.91128 7.73717C6.5303 7.55592 6.14186 7.3904 5.76049 7.20954C5.63861 7.15175 5.5297 7.06722 5.41568 6.99369C5.38816 6.976 5.36339 6.93826 5.33705 6.93786C4.98792 6.93511 4.7823 6.5848 4.43356 6.5675C4.37341 6.56436 4.29084 6.43933 4.27158 6.35834C4.25467 6.28718 4.2873 6.17434 4.33999 6.12087C4.55859 5.89991 4.79724 5.69861 5.02095 5.48237C5.3512 5.16312 5.67871 4.84073 6.00111 4.51361C6.32311 4.18729 6.63449 3.85035 6.9561 3.52363C7.11061 3.36675 7.28125 3.226 7.43891 3.07227C7.68935 2.82812 7.93233 2.57649 8.18356 2.33313C8.60307 1.92659 9.03751 1.53422 9.44365 1.11432C9.59738 0.955478 9.74246 0.813939 9.93432 0.692844C10.0707 0.606741 10.171 0.430997 10.3424 0.357868C10.438 0.316979 10.5347 0.278449 10.631 0.239919C10.6735 0.223013 10.7395 0.221047 10.7556 0.190774C10.8909 -0.0580993 11.1232 0.0295763 11.3253 0.0209267C11.4952 0.0134566 11.6658 0.0193541 11.8361 0.0193541L11.8368 0.0197472Z" fill="white"/>
<path d="M13.2092 17.9718C13.2092 16.304 13.2096 14.6362 13.2084 12.9684C13.2084 12.8225 13.1868 12.6708 13.3956 12.6511C13.499 12.3794 13.7789 12.4372 13.9751 12.3378C14.1709 12.2387 14.3529 12.1137 14.5479 12.013C14.6612 11.9544 14.7882 11.9218 14.9089 11.8774C14.9391 11.8664 14.9891 11.8636 14.9969 11.8436C15.0807 11.6387 15.2564 11.6147 15.4428 11.6069C15.4546 11.6065 15.4695 11.5982 15.477 11.5888C15.6689 11.3446 15.9889 11.3293 16.2291 11.1701C16.2967 11.1252 16.386 11.1131 16.465 11.0855C16.5134 11.0686 16.59 11.0631 16.6042 11.0305C16.6769 10.865 16.8287 10.8618 16.9687 10.8147C17.0795 10.7773 17.1735 10.6904 17.2769 10.6291C17.3319 10.5964 17.3901 10.5673 17.4499 10.5442C17.4857 10.5304 17.5325 10.541 17.5647 10.5233C17.8081 10.3896 18.0479 10.2493 18.2917 10.1164C18.3463 10.0865 18.4112 10.0755 18.4725 10.0582C18.5539 10.035 18.6805 10.0401 18.7104 9.98861C18.8594 9.73109 19.1747 9.77827 19.3681 9.60449C19.4385 9.54119 19.5706 9.55063 19.6508 9.49323C19.8608 9.34343 20.1285 9.29939 20.3247 9.16729C20.4887 9.05681 20.6518 8.98762 20.8252 8.90898C21.0477 8.80833 21.2459 8.655 21.4551 8.52525C21.6135 8.42696 21.8962 8.56339 22.0019 8.7698C22.0417 8.84726 22.1289 8.89994 22.1938 8.96521C22.2976 9.06939 22.392 9.18498 22.506 9.2762C22.701 9.43189 22.8028 9.67172 23.0442 9.79596C23.1728 9.86241 23.2341 10.0617 23.3214 10.2037C23.3851 10.3079 23.446 10.4148 23.4991 10.5245C23.5349 10.598 23.5679 10.677 23.5801 10.7572C23.6104 10.9507 23.5707 11.1803 23.6631 11.3332C23.8235 11.599 23.7555 11.8715 23.7849 12.14C23.7916 12.2013 23.7405 12.2698 23.7154 12.3342C23.6906 12.3987 23.6438 12.4628 23.643 12.5277C23.6367 12.9232 23.4527 13.2479 23.2384 13.5581C23.0871 13.7767 22.9298 13.9953 22.7482 14.188C22.5697 14.3771 22.3566 14.5336 22.1584 14.7042C22.1486 14.7129 22.1356 14.7184 22.1274 14.7278C21.9599 14.9181 21.8144 15.1359 21.6198 15.292C21.4291 15.4446 21.3021 15.6344 21.148 15.8078C20.9137 16.0724 20.6451 16.3158 20.3974 16.5765C20.0967 16.893 19.7464 17.1623 19.4291 17.4634C19.275 17.6097 19.1574 17.7945 19.0033 17.9408C18.78 18.1527 18.5177 18.3473 18.3443 18.5828C18.1674 18.8234 17.8199 18.8938 17.7546 19.2209C17.7511 19.239 17.7381 19.2657 17.7243 19.2693C17.4291 19.3471 17.3626 19.6848 17.1074 19.811C17.0504 19.8393 17.0186 19.9192 16.9773 19.9769C16.9553 20.008 16.9462 20.0599 16.9175 20.0733C16.5881 20.2286 16.4202 20.551 16.169 20.7869C15.8501 21.0865 15.523 21.3766 15.199 21.6711C15.1798 21.6884 15.1483 21.7018 15.142 21.7226C15.0591 22.0041 14.809 22.1574 14.6073 22.3131C14.3938 22.4779 14.2566 22.7059 14.0549 22.8793C13.8792 23.0303 13.6692 23.1274 13.5017 23.2831C13.4605 23.3216 13.3618 23.3409 13.3134 23.3181C13.2639 23.2949 13.2301 23.2127 13.2143 23.1502C13.197 23.0822 13.208 23.0071 13.208 22.9351C13.208 21.2803 13.208 19.6259 13.208 17.971L13.2092 17.9718Z" fill="white"/>
<path d="M94.6495 13.771C94.6495 14.8369 94.6507 15.9032 94.6479 16.969C94.6475 17.1648 94.666 17.3382 94.8948 17.398C94.9129 17.4027 94.9322 17.4157 94.9432 17.4302C95.2302 17.8045 95.6151 17.7463 96.0102 17.6865C96.2092 17.6563 96.416 17.6594 96.6177 17.6728C96.6715 17.6763 96.7348 17.766 96.7659 17.8297C96.8296 17.9594 96.8728 18.099 96.9271 18.2334C96.9487 18.2873 96.9947 18.3364 96.9998 18.3907C97.0317 18.7276 97.0478 19.0662 97.0859 19.4023C97.0969 19.5006 97.1406 19.6119 97.2054 19.685C97.3863 19.8875 97.3533 20.3549 97.1653 20.548C97.0093 20.7084 96.8414 20.7434 96.6365 20.7355C96.543 20.732 96.4482 20.7686 96.3538 20.7874C96.1887 20.8208 96.0244 20.8814 95.8589 20.8845C95.2373 20.8959 94.6153 20.89 93.9933 20.8865C93.9237 20.8865 93.8537 20.8613 93.7841 20.8464C93.6021 20.8079 93.4173 20.7776 93.2384 20.7273C93.1358 20.6986 93.0426 20.6357 92.9443 20.5908C92.8142 20.5315 92.6837 20.4733 92.5523 20.4179C92.506 20.3982 92.4175 20.3947 92.4132 20.3719C92.379 20.1855 92.2103 20.2126 92.0978 20.145C91.9398 20.0499 91.8018 19.9138 91.6756 19.777C91.5097 19.5973 91.3221 19.4192 91.2179 19.2045C91.0784 18.9171 90.8389 18.6702 90.8558 18.3046C90.8629 18.1473 90.7406 17.985 90.6832 17.823C90.6534 17.7388 90.6168 17.65 90.6168 17.5631C90.6137 15.955 90.6148 14.347 90.616 12.739C90.6164 12.0788 90.6034 11.4179 90.6317 10.7586C90.6404 10.5585 90.6192 10.3953 90.5024 10.2436C90.4729 10.205 90.3935 10.1519 90.3774 10.1633C90.1183 10.3446 89.8285 10.2251 89.5553 10.255C89.51 10.2601 89.4633 10.2546 89.4188 10.2624C89.0956 10.321 89.0146 10.2896 88.8409 10.0206C88.8149 9.98013 88.8027 9.92352 88.8027 9.87437C88.8047 9.12972 88.8126 8.38506 88.8122 7.6408C88.8122 7.42496 88.9171 7.30819 89.1483 7.30779C89.5938 7.30661 90.0388 7.30897 90.4843 7.30819C90.7143 7.30779 90.7108 7.29049 90.6467 7.06875C90.6066 6.92918 90.6207 6.7727 90.6207 6.62369C90.6199 5.98951 90.6231 5.35534 90.6247 4.72117C90.6247 4.66219 90.6254 4.60322 90.6207 4.54464C90.6011 4.29969 90.7387 4.15147 90.9934 4.15265C91.8509 4.15737 92.7084 4.16759 93.5663 4.16838C93.847 4.16838 94.1278 4.14754 94.4085 4.13575C94.5819 4.12828 94.6526 4.20573 94.6514 4.38344C94.6467 5.29243 94.6538 6.20143 94.6467 7.11043C94.6456 7.26219 94.6766 7.31448 94.839 7.31212C95.4936 7.30268 96.1486 7.30819 96.8036 7.3074C97.023 7.3074 97.0828 7.36323 97.0832 7.58301C97.0843 8.35479 97.0847 9.12657 97.0844 9.89796C97.0844 10.1358 96.9322 10.2644 96.6869 10.2609C96.2088 10.2542 95.7307 10.2644 95.253 10.2534C95.1299 10.2506 95.0037 10.2054 94.887 10.1594C94.7666 10.1118 94.6967 10.124 94.6805 10.2628C94.6691 10.3599 94.6511 10.457 94.6511 10.5538C94.6491 11.6263 94.6499 12.6989 94.6495 13.7714V13.771Z" fill="white"/>
<path d="M118.313 9.23935C118.414 9.10567 118.509 8.98575 118.596 8.86034C118.62 8.82652 118.614 8.77384 118.628 8.73177C118.656 8.64763 118.668 8.54541 118.724 8.48486C118.971 8.21673 119.202 7.92146 119.493 7.7119C119.738 7.53576 119.972 7.28099 120.327 7.30616C120.361 7.30852 120.414 7.28886 120.43 7.26252C120.554 7.05886 120.749 7.06751 120.95 7.06947C121.428 7.07419 121.906 7.07104 122.384 7.07065C122.659 7.07065 122.786 7.17405 122.788 7.45045C122.796 8.43139 122.795 9.41234 122.79 10.3929C122.789 10.6194 122.638 10.72 122.423 10.6744C122.278 10.6437 122.129 10.6272 121.982 10.6024C121.918 10.5918 121.85 10.5871 121.792 10.5612C121.404 10.3886 121.024 10.4059 120.636 10.569C120.513 10.6209 120.369 10.6347 120.233 10.6406C119.965 10.6524 119.742 10.7931 119.533 10.9225C119.374 11.0208 119.249 11.1765 119.062 11.2468C119.036 11.2567 119.034 11.3263 119.018 11.3668C119 11.4131 118.986 11.4906 118.956 11.4985C118.777 11.5449 118.787 11.7084 118.724 11.8299C118.423 12.4067 118.5 13.0306 118.498 13.6412C118.491 15.8056 118.498 17.9696 118.499 20.1339C118.499 20.2126 118.503 20.2912 118.498 20.3694C118.483 20.592 118.34 20.73 118.116 20.7304C117.029 20.7323 115.942 20.7323 114.855 20.7304C114.533 20.7296 114.459 20.6529 114.459 20.3325C114.459 16.0757 114.459 11.8185 114.457 7.56171C114.457 7.44534 114.48 7.37417 114.606 7.35923C114.715 7.34626 114.824 7.31048 114.933 7.31009C115.967 7.30576 117.002 7.30694 118.037 7.30694C118.244 7.30694 118.316 7.37968 118.314 7.59356C118.308 8.1031 118.298 8.61303 118.292 9.12258C118.292 9.16661 118.308 9.21064 118.314 9.23974L118.313 9.23935Z" fill="white"/>
</g>
<defs>
<clipPath id="clip0_504_340">
<rect width="150" height="24" fill="white"/>
</clipPath>
</defs>
</svg>
