<svg width="154" height="42" viewBox="0 0 154 42" fill="none" xmlns="http://www.w3.org/2000/svg">
<path d="M31.2819 11.4238H37.5798C37.611 12.0317 37.6439 12.666 37.6832 13.4295C37.907 13.2452 38.0337 13.167 38.1276 13.0601C39.4999 11.5076 41.2404 10.8518 43.2986 10.7935C45.0326 10.7441 46.6248 11.1286 48.1367 11.9328C49.7496 12.7912 50.8661 14.1196 51.7083 15.6961C52.893 17.914 53.2748 20.2986 52.7438 22.7248C51.9345 26.4226 49.9381 29.3107 45.6454 30.2704C43.4221 30.7675 41.2268 30.4954 39.2248 29.3059C38.7291 29.0115 38.2952 28.6134 37.8469 28.2743C37.7907 28.2974 37.7658 28.3046 37.745 28.3174C37.7233 28.331 37.6985 28.3477 37.6872 28.3692C37.6632 28.4147 37.6391 28.4634 37.6287 28.5137C37.6175 28.5647 37.6207 28.619 37.6207 28.6724C37.6191 31.8613 37.6183 35.0501 37.6159 38.2389C37.6159 38.2645 37.6006 38.2892 37.5597 38.416C35.5313 39.2809 33.4387 40.1736 31.2803 41.0935V11.4238H31.2819ZM46.2654 20.6505C46.1989 18.1262 44.5346 16.2689 41.8636 16.2713C39.1847 16.2737 37.4482 18.0695 37.4386 20.6201C37.429 23.2784 39.1799 24.9586 41.838 24.9714C44.4977 24.9841 46.1796 23.3287 46.2654 20.6497V20.6505Z" fill="white"/>
<path d="M78.2704 10.8007C80.0238 10.6978 81.8397 11.1685 83.6083 11.9057C85.2838 12.6045 86.5503 13.7534 87.6251 15.195C88.4672 16.3247 88.9637 17.5956 89.1281 18.924C89.477 21.7418 89.0696 24.3961 87.1238 26.6978C85.5453 28.5647 83.5313 29.5564 81.2277 30.1172C79.3853 30.5656 77.5181 30.5624 75.6613 30.2975C73.624 30.0071 71.7159 29.2763 70.1222 27.9751C68.4266 26.5901 67.3213 24.7974 66.9869 22.5875C66.6749 20.5252 66.7655 18.5131 67.6157 16.572C68.4827 14.5903 69.9168 13.1502 71.8338 12.1721C73.7957 11.1717 75.8859 10.7185 78.2688 10.7999L78.2704 10.8007ZM82.345 20.6624C82.4829 18.2921 80.6983 16.2641 78.0178 16.2633C75.5065 16.2633 73.5607 17.9586 73.5743 20.6831C73.5879 23.3343 75.4391 24.9706 78.0443 24.977C80.7288 24.9833 82.4477 23.0662 82.345 20.6616V20.6624Z" fill="white"/>
<path d="M15.7716 17.1281C14.2437 16.5433 12.8096 16.5545 11.3891 16.8704C10.3191 17.1089 9.56998 17.8038 9.0743 18.7947C8.39735 20.1486 8.30832 21.6038 8.28185 23.0638C8.24656 25.0312 8.27142 27.0002 8.27062 28.9684C8.27062 29.2261 8.27062 29.4845 8.27062 29.7869H2V11.4262H8.35163V14.2137C8.41339 14.2416 8.47595 14.2687 8.53771 14.2967C8.67326 14.1738 8.84972 14.0757 8.93714 13.9249C9.75125 12.5223 11.0065 11.7429 12.5489 11.3679C13.5683 11.1198 14.6062 11.1158 15.7323 11.1565C15.8085 13.1335 15.7484 15.0857 15.7724 17.1281H15.7716Z" fill="white"/>
<path d="M63.1447 29.7902H56.7529V11.4207H63.1447V29.7894V29.7902Z" fill="white"/>
<path d="M19.5674 11.4253H25.8388V29.7717H19.5674V11.4253V11.4253Z" fill="white"/>
<path d="M63.2307 0C63.181 1.1289 63.1305 2.10302 63.0984 3.07715C63.0735 3.84623 63.039 4.61691 63.0743 5.38441C63.0968 5.86708 62.9292 6.08089 62.4776 6.25003C60.8325 6.86673 59.2067 7.5353 57.5721 8.17913C57.3555 8.26449 57.127 8.32034 56.8486 8.4073V2.5099C58.9485 1.76954 60.9472 0.728399 63.2307 0V0Z" fill="white"/>
<path d="M19.6396 2.54731C21.6849 1.7136 23.6973 0.892652 25.79 0.0397949C25.8252 0.2927 25.8678 0.461038 25.8686 0.629375C25.875 2.22419 25.8613 3.81901 25.8854 5.41303C25.8918 5.85183 25.7579 6.06085 25.3264 6.2252C23.6332 6.86903 21.9609 7.57031 20.2781 8.24126C20.0888 8.31705 19.8787 8.34179 19.6396 8.39923V2.54731V2.54731Z" fill="white"/>
<path d="M105.304 24.6946C104.269 24.8246 104.247 24.8334 103.924 24.0396C103.116 22.0498 102.334 20.0489 101.53 18.0568C101.302 17.4912 101.03 16.9439 100.784 16.3854C100.714 16.2234 100.668 16.0511 100.609 15.878C101.525 15.6809 101.713 15.7878 101.993 16.5314C102.805 18.6895 103.651 20.8348 104.487 22.9841C104.523 23.0774 104.585 23.1612 104.777 23.4963C104.884 23.2497 104.949 23.1141 105.004 22.9745C105.428 21.8903 105.849 20.8045 106.274 19.721C106.682 18.6847 107.105 17.6531 107.504 16.6136C107.841 15.736 107.834 15.7304 108.915 15.8565C107.698 18.8339 106.489 21.7937 105.304 24.6954V24.6946Z" fill="white"/>
<path d="M114.544 21.4594C113.334 21.4594 112.161 21.4586 110.988 21.4602C110.775 21.4602 110.561 21.4618 110.348 21.4801C110.05 21.5064 109.902 21.6931 109.975 21.9708C110.144 22.6146 110.334 23.2696 110.869 23.7164C111.629 24.349 112.479 24.3419 113.351 23.9589C113.521 23.8839 113.683 23.7898 113.844 23.6972C114.153 23.5209 114.336 23.6669 114.516 23.9693C114.358 24.1065 114.223 24.2772 114.046 24.3674C113.215 24.791 112.327 24.9977 111.412 24.7655C109.881 24.377 109.399 23.7786 109.078 21.9221C108.968 21.2791 109.116 20.6512 109.352 20.0544C109.959 18.521 112.344 17.5525 113.943 19.1122C114.52 19.6747 114.764 20.5499 114.543 21.4586L114.544 21.4594ZM110.09 20.8227C110.106 20.8435 110.122 20.8826 110.139 20.8834C111.269 20.9224 112.399 20.9687 113.53 20.9775C113.619 20.9775 113.791 20.719 113.787 20.585C113.766 19.8398 113.16 19.1904 112.414 19.0644C111.184 18.8569 110.314 19.5151 110.09 20.8235V20.8227Z" fill="white"/>
<path d="M144.019 21.4586C143.432 21.4586 142.844 21.4434 142.258 21.4634C141.782 21.4793 141.728 21.5743 141.794 22.0601C141.873 22.6481 142 23.2217 142.47 23.6342C143.176 24.2541 143.978 24.3873 144.852 24.0283C145.122 23.9174 145.377 23.7539 145.656 23.6805C145.796 23.643 145.976 23.7539 146.138 23.7969C146.082 23.9517 146.069 24.1966 145.964 24.2453C145.51 24.4567 145.042 24.6841 144.555 24.7727C143.289 25.0016 142.175 24.7176 141.35 23.6446C140.935 23.1052 140.87 22.4766 140.826 21.8399C140.7 20.0528 141.353 18.8689 143.334 18.3383C144.235 18.0966 145.689 18.821 146.07 19.705C146.227 20.068 146.337 20.4549 146.428 20.8411C146.526 21.2527 146.378 21.4434 145.94 21.4594C145.301 21.4825 144.659 21.4649 144.019 21.4649V21.4594V21.4586ZM141.928 21.0158C143.011 21.0158 144.047 21.0317 145.083 21.0078C145.466 20.999 145.567 20.7661 145.46 20.3129C145.255 19.4465 144.398 18.9088 143.442 19.046C142.423 19.192 141.84 19.8989 141.928 21.0166V21.0158Z" fill="white"/>
<path d="M132.863 18.5051H133.658V24.6913C133.262 24.7136 132.957 24.4852 132.745 24.006C132.521 24.1352 132.31 24.2756 132.083 24.3841C131.75 24.5437 131.417 24.7527 131.063 24.8142C129.541 25.0782 128.568 24.278 128.536 22.7359C128.508 21.3596 128.53 19.9818 128.53 18.5266C128.82 18.5107 129.068 18.4971 129.407 18.4788C129.407 18.9878 129.407 19.4313 129.407 19.8749C129.407 20.6711 129.391 21.4681 129.418 22.2636C129.429 22.601 129.492 22.9489 129.6 23.2688C129.849 24.0052 130.578 24.4049 131.308 24.1568C131.753 24.006 132.159 23.7291 132.56 23.4738C132.864 23.28 132.865 22.9425 132.864 22.6162C132.859 21.528 132.863 20.4398 132.864 19.3516C132.864 19.0907 132.864 18.829 132.864 18.5059L132.863 18.5051Z" fill="white"/>
<path d="M116.52 18.5195C116.931 18.5333 117.25 18.7894 117.476 19.2878C117.711 19.1195 117.926 18.94 118.165 18.8019C118.79 18.4405 119.398 18.1406 120.19 18.4166C121.129 18.7437 121.601 19.3835 121.634 20.3042C121.686 21.7602 121.647 23.2186 121.647 24.7249H120.812C120.812 23.5098 120.817 22.345 120.808 21.181C120.806 20.8922 120.799 20.593 120.725 20.317C120.411 19.1402 119.385 18.7038 118.302 19.2862C117.657 19.6325 117.25 20.0864 117.304 20.9257C117.383 22.1663 117.324 23.4149 117.324 24.7177H116.52V18.5195V18.5195Z" fill="white"/>
<path d="M151.853 18.9735C151.766 19.4083 151.551 19.5176 151.259 19.3341C150.77 19.0253 150.229 19.0517 149.708 19.0987C149.42 19.1251 149.099 19.299 148.881 19.5008C148.527 19.8279 148.565 20.3146 148.952 20.6114C149.221 20.8172 149.546 20.96 149.862 21.0933C150.13 21.2066 150.423 21.2608 150.702 21.3502C151.697 21.6701 152.002 22.0379 152.001 22.9027C151.999 23.9151 151.63 24.4576 150.665 24.7201C149.618 25.0049 148.617 24.8916 147.689 24.2191C147.785 23.7835 148.005 23.6598 148.379 23.8369C148.572 23.9279 148.744 24.0611 148.939 24.1441C149.606 24.4281 150.242 24.3954 150.806 23.9C151.318 23.4508 151.3 22.7248 150.743 22.3259C150.511 22.1599 150.222 22.069 149.952 21.9637C149.507 21.7905 149.037 21.6709 148.612 21.4603C147.647 20.9824 147.482 19.6165 148.317 18.9312C149.235 18.1797 150.137 18.0799 151.282 18.6368C151.469 18.7278 151.642 18.849 151.854 18.9751L151.853 18.9735Z" fill="white"/>
<path d="M126.691 23.9429C126.968 24.1871 127.065 24.3993 126.711 24.5899C126.142 24.8963 125.538 24.937 124.928 24.7479C124.395 24.5828 124.194 24.1496 124.176 23.6382C124.15 22.8954 124.154 22.1518 124.15 21.4083C124.147 20.877 124.137 20.3456 124.154 19.8151C124.167 19.4273 124.02 19.2175 123.619 19.1792C123.43 19.1617 123.246 19.0891 123.055 18.8912C123.177 18.829 123.293 18.7396 123.423 18.7085C124.182 18.5274 124.182 18.5322 124.269 17.8006C124.313 17.432 124.356 17.0626 124.405 16.694C124.445 16.3933 124.618 16.2856 125.025 16.3981C125.025 16.8839 125.018 17.4033 125.026 17.9227C125.035 18.5314 125.103 18.6016 125.715 18.6319C126.008 18.6463 126.305 18.6064 126.594 18.6455C126.703 18.6598 126.79 18.8274 126.887 18.9255C126.795 19.0013 126.708 19.1337 126.609 19.1433C126.319 19.1728 126.022 19.1417 125.73 19.1561C125.126 19.1856 125.033 19.2734 125.028 19.8621C125.018 20.8977 125.018 21.9332 125.026 22.9688C125.034 24.0379 125.489 24.3506 126.491 23.9924C126.541 23.9748 126.593 23.9661 126.691 23.9421V23.9429Z" fill="white"/>
<path d="M136.858 24.7744C136.511 24.7545 136.262 24.7401 135.992 24.7249V18.5363H136.695C136.752 18.889 136.8 19.1882 136.874 19.6429C137.13 19.4139 137.303 19.3054 137.413 19.153C137.726 18.723 138.16 18.4701 138.649 18.3265C139.38 18.1111 139.712 18.4741 139.512 19.2703C139.312 19.2703 139.103 19.2775 138.896 19.2687C137.802 19.2241 136.891 20.041 136.865 21.146C136.838 22.3092 136.859 23.474 136.859 24.7736L136.858 24.7744Z" fill="white"/>
</svg>
