<svg width="96" height="84" viewBox="0 0 96 84" fill="none" xmlns="http://www.w3.org/2000/svg">
<path d="M37.2919 83.8954C36.7868 84.0393 36.5072 83.7807 36.296 83.215C35.8509 82.0243 36.0754 82.2894 34.8382 82.2665C34.319 82.257 33.7993 82.2708 33.2801 82.2618C33.0801 82.2583 32.9676 82.2993 32.8978 82.5208C32.7828 82.887 32.6139 83.2369 32.4579 83.5899C32.3381 83.8605 32.1847 84.0212 31.8274 83.9195C31.5646 83.8445 31.2651 83.9027 30.982 83.8932C30.8036 83.8872 30.6765 83.8406 30.782 83.6136C31.06 83.0154 31.3366 82.4165 31.6003 81.8115C32.1304 80.5946 32.6548 79.3751 33.174 78.1534C33.3193 77.8117 33.4429 77.4605 33.5679 77.1106C33.6562 76.8637 33.7924 76.712 34.0841 76.7336C34.3306 76.7521 34.5814 76.753 34.827 76.7271C35.1196 76.6965 35.2868 76.8159 35.395 77.0774C35.875 78.2413 36.3615 79.4027 36.845 80.5653C37.2169 81.4603 37.5909 82.3544 37.9568 83.252C38.0348 83.4433 38.0817 83.6467 38.1434 83.8445C37.937 83.8613 37.7305 83.879 37.5237 83.8949C37.4767 83.8984 37.4293 83.8954 37.2914 83.8954H37.2919ZM34.9486 80.9281C35.3015 80.9436 35.3997 80.801 35.2558 80.4748C35.1713 80.2826 35.0559 80.1033 34.9796 79.9081C34.8654 79.6155 34.7814 79.3113 34.6663 79.0191C34.6323 78.9321 34.5469 78.8511 34.4642 78.8045C34.4336 78.7873 34.3082 78.8619 34.2849 78.9187C34.0656 79.4552 33.8575 79.9965 33.6485 80.5373C33.5412 80.8148 33.6256 80.929 33.9307 80.9281C34.2699 80.9272 34.609 80.9281 34.9481 80.9281H34.9486Z" fill="white"/>
<path d="M65.2931 83.8888C64.7341 83.8931 64.3471 83.6361 64.1322 83.1179C63.8967 82.5493 63.4757 82.2651 62.8692 82.2651C62.3146 82.2651 61.7596 82.2759 61.2059 82.2552C60.9323 82.2448 60.7909 82.3629 60.7043 82.599C60.5841 82.927 60.4552 83.2519 60.3363 83.5807C60.2544 83.8069 60.117 83.9194 59.8606 83.9051C59.5309 83.887 59.2 83.8991 58.8695 83.9021C58.6062 83.9043 58.5734 83.7832 58.6678 83.5651C59.1948 82.3513 59.7171 81.1352 60.2411 79.92C60.6427 78.9888 61.0473 78.0589 61.4446 77.126C61.5631 76.8476 61.7321 76.6748 62.0617 76.7351C62.1419 76.7498 62.2267 76.7373 62.309 76.7373C63.1187 76.7369 63.114 76.7386 63.429 77.4871C64.1633 79.231 64.9023 80.9732 65.64 82.7158C65.762 83.0037 65.8917 83.2881 66.0119 83.5768C66.1261 83.85 66.0593 83.9314 65.7512 83.9107C65.5982 83.9004 65.4452 83.8961 65.2923 83.8888H65.2931ZM62.281 80.893C62.281 80.9025 62.2815 80.9124 62.2819 80.9219C62.4935 80.9219 62.7051 80.9284 62.9162 80.9202C63.1786 80.9103 63.2364 80.7801 63.1338 80.544C62.9214 80.0532 62.7244 79.5555 62.509 79.0664C62.4724 78.9837 62.3728 78.9289 62.3021 78.8608C62.2366 78.9345 62.1436 78.9974 62.1108 79.0836C62.0328 79.2883 62.0031 79.5128 61.9169 79.7132C61.798 79.9903 61.648 80.254 61.5071 80.5216C61.3606 80.8 61.4239 80.9275 61.7196 80.9232C61.907 80.9206 62.094 80.9034 62.281 80.8926V80.893Z" fill="white"/>
<path d="M40.3631 80.3532C40.3631 79.2798 40.3696 78.2059 40.3588 77.1325C40.3562 76.8511 40.4467 76.7766 40.7324 76.7848C41.6274 76.8093 42.5242 76.8089 43.4196 76.7921C43.9544 76.7818 44.4163 76.9636 44.8675 77.217C45.5479 77.5983 45.859 78.2085 45.9611 78.9514C46.1512 80.3355 45.282 81.4542 43.991 81.686C43.4769 81.7782 42.9391 81.7627 42.4126 81.7588C41.9437 81.7554 41.923 81.7506 41.9226 82.2022C41.9217 82.6741 41.9157 83.1459 41.9252 83.6178C41.9295 83.8328 41.8468 83.9143 41.6335 83.9078C41.3155 83.8983 40.9966 83.8992 40.6786 83.9121C40.4291 83.9225 40.3558 83.8164 40.358 83.5747C40.3683 82.5013 40.3623 81.4279 40.3627 80.354L40.3631 80.3532ZM41.9217 79.2897C41.9217 79.5366 41.9368 79.7848 41.9179 80.0304C41.8959 80.3187 42.0321 80.4083 42.2928 80.3945C42.6091 80.3782 42.9258 80.3601 43.2425 80.3605C43.8208 80.3614 44.3293 79.9261 44.3323 79.4142C44.3366 78.6442 43.9552 78.2288 43.2481 78.2245C42.9077 78.2223 42.5668 78.2163 42.2268 78.1982C42.0174 78.187 41.9183 78.2645 41.9217 78.4778C41.9265 78.7484 41.923 79.0191 41.9217 79.2897V79.2897Z" fill="white"/>
<path d="M28.1573 81.6851C28.4404 82.0006 28.6947 82.2945 28.9614 82.5771C29.1088 82.7336 29.0493 82.8249 28.9136 82.9503C28.2478 83.5635 27.5174 83.9487 26.5681 83.9914C25.6309 84.0336 24.763 83.935 24.0214 83.3519C23.0182 82.5638 22.4339 81.5692 22.5541 80.2226C22.6132 79.5581 22.6942 78.9157 23.0768 78.3606C23.7978 77.3152 24.7686 76.7214 26.0751 76.6736C27.0266 76.6387 27.8811 76.833 28.6443 77.4113C29.042 77.713 29.0519 77.7854 28.7205 78.143C28.5615 78.315 28.4176 78.5024 28.2814 78.6933C28.1422 78.8885 28.0005 78.9178 27.8122 78.7605C27.4192 78.4313 26.9809 78.227 26.46 78.146C25.4684 77.9918 24.5476 78.7584 24.3205 79.5853C23.9706 80.8617 24.3743 81.7924 25.3999 82.3871C26.0527 82.7654 27.1412 82.5504 27.7992 81.9829C27.8871 81.9071 27.9776 81.8342 28.1578 81.6851H28.1573Z" fill="white"/>
<path d="M54.2448 81.2373C54.2448 80.3428 54.2474 79.4482 54.2431 78.5536C54.2418 78.3321 54.1406 78.2145 53.8915 78.2214C53.3839 78.2356 52.8758 78.2188 52.3682 78.2283C52.0812 78.2334 51.9955 78.1033 52.0243 77.8335C52.0493 77.6 52.0532 77.3625 52.0467 77.1277C52.0394 76.8623 52.1756 76.7735 52.416 76.7752C53.9036 76.7847 55.3911 76.7942 56.8786 76.7989C57.0665 76.7993 57.2548 76.7752 57.4427 76.7601C57.7809 76.733 57.9279 76.873 57.9214 77.2048C57.9171 77.4156 57.9201 77.6267 57.9335 77.8366C57.9498 78.0951 57.8714 78.2386 57.5793 78.2304C57.0953 78.2171 56.6106 78.2377 56.1271 78.2214C55.8401 78.2119 55.7449 78.3554 55.747 78.6053C55.7591 79.9274 55.7729 81.2494 55.7888 82.571C55.7927 82.911 55.8035 83.251 55.8151 83.591C55.8224 83.8082 55.7362 83.9224 55.5053 83.9163C55.1868 83.9082 54.8684 83.9043 54.5499 83.9125C54.2845 83.9194 54.172 83.8267 54.1785 83.5397C54.1957 82.7727 54.1845 82.0048 54.1845 81.2373C54.2048 81.2373 54.2255 81.2373 54.2457 81.2373H54.2448Z" fill="white"/>
<path d="M68.1548 80.3587C68.1548 79.3211 68.1535 78.283 68.1552 77.2453C68.1561 76.8515 68.25 76.7731 68.6404 76.7843C68.8977 76.7916 69.1567 76.783 69.4135 76.7619C69.6458 76.7429 69.7819 76.8269 69.794 77.0631C69.8104 77.3802 69.8237 77.6982 69.8211 78.0158C69.8099 79.3478 69.794 80.6793 69.7759 82.0113C69.7712 82.3689 69.8677 82.4836 70.181 82.4792C70.4947 82.4745 70.8084 82.4848 71.1221 82.4767C71.7111 82.4611 72.3011 82.4517 72.8884 82.4116C73.2159 82.3896 73.346 82.5025 73.3245 82.8296C73.3081 83.0761 73.3107 83.3256 73.3292 83.572C73.3478 83.8177 73.2611 83.9047 73.0112 83.903C71.7254 83.8944 70.4399 83.8991 69.1541 83.9008C68.9653 83.9008 68.777 83.906 68.5887 83.915C68.2767 83.9297 68.1436 83.7931 68.147 83.4734C68.1574 82.4357 68.1509 81.3976 68.1509 80.36H68.1557L68.1548 80.3587Z" fill="white"/>
<path d="M49.8428 80.4233C49.8428 81.4618 49.8385 82.5003 49.8458 83.5388C49.848 83.8107 49.7445 83.9253 49.4688 83.9107C49.1391 83.8935 48.8082 83.8947 48.4777 83.8969C48.2428 83.8986 48.1721 83.7706 48.1739 83.5608C48.1872 82.0276 48.201 80.4944 48.2096 78.9616C48.2131 78.3717 48.2032 77.7818 48.2019 77.1914C48.201 76.8204 48.2747 76.7644 48.6358 76.792C48.8582 76.8092 49.0844 76.8045 49.3067 76.7855C49.7196 76.7502 49.829 76.8295 49.8376 77.272C49.8544 78.1218 49.854 78.9715 49.86 79.8213C49.8613 80.0221 49.86 80.2225 49.86 80.4233H49.8428V80.4233Z" fill="white"/>
<path d="M8.10906 80.5712C5.88941 80.5712 3.6702 80.5712 1.45056 80.5712C1.25794 80.5712 1.03903 80.5794 1.03472 80.3131C1.03084 80.0623 1.2351 80.0679 1.41867 80.0683C5.1366 80.0688 8.85497 80.0683 12.5729 80.0683C13.3037 80.0683 14.0341 80.0671 14.765 80.0696C14.9472 80.0701 15.1808 80.0184 15.1959 80.2997C15.2127 80.6113 14.9585 80.5738 14.7671 80.5742C12.5479 80.5781 10.3283 80.5768 8.10906 80.5768C8.10906 80.5751 8.10906 80.5729 8.10906 80.5712V80.5712Z" fill="white"/>
<path d="M88.3813 80.5725C86.1737 80.5725 83.9661 80.5716 81.7581 80.5738C81.556 80.5738 81.341 80.5527 81.353 80.3096C81.3573 80.2239 81.5844 80.08 81.7098 80.0795C83.4908 80.0748 85.2713 80.0933 87.0523 80.0994C89.3534 80.1075 91.654 80.1123 93.9551 80.1127C94.3438 80.1127 94.7329 80.0882 95.1216 80.0666C95.3147 80.0558 95.456 80.1028 95.4543 80.3239C95.4521 80.5518 95.2931 80.5734 95.11 80.5729C92.8671 80.5703 90.6237 80.5712 88.3808 80.5712V80.5725H88.3813Z" fill="white"/>
<path d="M66.8311 21.3483C66.8311 24.7814 66.8277 28.2141 66.8367 31.6472C66.8376 31.9389 66.7592 32.107 66.492 32.2591C63.8492 33.7664 61.2159 35.2897 58.5813 36.8117C56.0087 38.2975 53.4379 39.7868 50.8666 41.2747C50.109 41.7129 49.3472 42.1447 48.5961 42.5937C48.3742 42.7265 48.2044 42.7359 47.9687 42.5993C44.3076 40.4728 40.6393 38.3587 36.9735 36.2399C34.675 34.9114 32.3808 33.5738 30.0762 32.2556C29.7772 32.0846 29.6643 31.8971 29.7393 31.5632C29.7793 31.3839 29.7664 31.1917 29.7664 31.0051C29.7673 24.5414 29.7673 18.0777 29.7655 11.6144C29.7655 11.4136 29.7642 11.2106 29.7337 11.0133C29.6953 10.7663 29.7703 10.6112 29.9922 10.485C31.4138 9.67484 32.8298 8.85524 34.2466 8.03693C36.5955 6.68041 38.9432 5.32173 41.2921 3.96478C43.5285 2.67247 45.7689 1.38662 47.9989 0.0826681C48.2509 -0.0647049 48.4181 0.00682703 48.6258 0.127052C50.5878 1.26424 52.5519 2.39711 54.5156 3.53085C57.2377 5.1024 59.9598 6.67395 62.6819 8.24506C63.9621 8.98408 65.2385 9.73043 66.5269 10.4548C66.7859 10.6004 66.8363 10.7832 66.8359 11.0495C66.8298 14.4826 66.832 17.9152 66.8316 21.3483H66.8311ZM65.1251 21.3126H65.1226C65.1226 18.2535 65.1122 15.1944 65.135 12.1358C65.1381 11.7247 64.998 11.5213 64.6623 11.33C62.5677 10.1359 60.4842 8.92246 58.396 7.71719C55.2516 5.90218 52.0977 4.10354 48.9701 2.26008C48.4517 1.95456 48.0954 1.96792 47.5882 2.26784C45.0436 3.77216 42.4715 5.22995 39.9119 6.70885C37.3027 8.21662 34.7051 9.74465 32.0817 11.227C31.5939 11.5028 31.4203 11.7898 31.422 12.3556C31.4418 18.5021 31.4297 24.6487 31.4211 30.7953C31.4211 30.975 31.4715 31.0982 31.6232 31.1874C31.8706 31.3331 32.1136 31.486 32.3622 31.6291C34.1281 32.6456 35.897 33.6578 37.6616 34.6761C41.0672 36.6415 44.4731 38.6056 47.8709 40.5839C48.1729 40.7598 48.3936 40.7623 48.6943 40.587C51.31 39.062 53.9347 37.552 56.5573 36.0387C58.0736 35.1639 59.5922 34.2926 61.1077 33.4165C62.3375 32.7055 63.5622 31.9855 64.7955 31.2805C65.0334 31.1443 65.1338 30.9918 65.1329 30.7035C65.1208 27.5729 65.1256 24.4419 65.1256 21.3108L65.1251 21.3126Z" fill="white"/>
<path d="M81.889 56.6408H83.9707V58.0059C84.125 57.868 84.2069 57.8069 84.2745 57.7327C85.1945 56.727 86.3128 56.3943 87.6275 56.7558C88.2415 56.9248 88.7418 57.2717 89.1197 57.7887C89.1934 57.8896 89.268 57.9896 89.3585 58.1115C89.6209 57.8655 89.8506 57.6336 90.0971 57.4225C91.2334 56.4495 93.1122 56.3443 94.3136 57.1717C94.847 57.5388 95.1832 58.0533 95.365 58.6519C95.4839 59.044 95.5468 59.4676 95.5507 59.8783C95.5697 61.8019 95.5606 63.7259 95.5598 65.6499C95.5598 66.0597 95.552 66.0546 95.1564 66.0434C94.726 66.0313 94.2955 66.0421 93.8646 66.0391C93.7413 66.0382 93.6181 66.0235 93.4582 66.0123C93.4582 65.8309 93.4582 65.69 93.4582 65.5491C93.4582 63.9267 93.4716 62.3043 93.4496 60.6819C93.4444 60.3027 93.3703 59.9063 93.2389 59.5508C93.0083 58.9285 92.5119 58.6105 91.8483 58.5691C91.1429 58.5252 90.54 58.7251 90.1337 59.34C89.8549 59.7619 89.7868 60.2476 89.7842 60.7375C89.7756 62.3168 89.7808 63.8961 89.7808 65.4754C89.7808 65.5758 89.7799 65.6762 89.7808 65.7771C89.7821 65.9753 89.6795 66.0619 89.4865 66.0602C88.9844 66.0546 88.4829 66.052 87.9808 66.0464C87.6852 66.0434 87.6262 65.9925 87.6292 65.693C87.6344 65.1768 87.6598 64.661 87.6637 64.1447C87.6714 63.0825 87.6814 62.0199 87.6676 60.9581C87.6628 60.5884 87.6301 60.2101 87.543 59.852C87.2871 58.8005 86.3796 58.3873 85.3798 58.6217C84.6499 58.7928 84.1108 59.4547 84.0121 60.2704C83.9914 60.4406 83.9906 60.6143 83.9906 60.7862C83.9897 62.4086 83.991 64.031 83.9923 65.6534C83.9923 66.0184 83.9539 66.0554 83.6092 66.0511C83.1503 66.0455 82.6909 66.0421 82.232 66.0447C81.9101 66.0464 81.8558 66.0033 81.8558 65.6818C81.855 62.7529 81.8558 59.8244 81.8571 56.8955C81.8571 56.8261 81.8739 56.7571 81.8886 56.6408H81.889Z" fill="white"/>
<path d="M30.7465 64.6712C30.7465 65.7856 30.7465 66.8762 30.7465 67.9669C30.7465 68.0673 30.7422 68.1681 30.7465 68.2685C30.7564 68.4818 30.665 68.5874 30.4436 68.5857C29.9265 68.5818 29.4094 68.5839 28.8923 68.5857C28.6975 68.5865 28.5988 68.4909 28.5949 68.2987C28.5915 68.1263 28.5932 67.9539 28.5932 67.7816C28.5932 64.2339 28.5936 60.6861 28.5949 57.1384C28.5949 56.614 28.5975 56.6153 29.1094 56.6166C29.5261 56.6179 29.9424 56.6136 30.3591 56.6166C30.4694 56.6174 30.5797 56.6355 30.7198 56.6489V58.0244C30.9292 58.1088 30.9719 57.9391 31.046 57.8567C31.5919 57.2517 32.2452 56.8294 33.054 56.6872C34.4084 56.4494 35.5788 56.8394 36.5738 57.7714C37.4588 58.6009 37.8557 59.664 37.9488 60.8417C38.0255 61.8108 37.913 62.7649 37.4722 63.6521C36.5401 65.527 34.7006 66.3945 32.6645 65.8929C32.0315 65.7369 31.4885 65.3663 31.0438 64.8746C30.9861 64.8109 30.9305 64.7449 30.8684 64.6859C30.8529 64.6712 30.8167 64.6786 30.7456 64.6717L30.7465 64.6712ZM35.8037 61.2959C35.8261 60.7973 35.7007 60.2513 35.4124 59.7338C34.7251 58.4997 33.1402 58.092 31.9505 58.856C30.3005 59.9157 30.2432 62.586 31.8453 63.7327C33.0506 64.5954 34.6726 64.2326 35.4124 62.9476C35.6938 62.4585 35.805 61.9379 35.8037 61.2959V61.2959Z" fill="white"/>
<path d="M46.0798 61.3536C46.0785 58.7409 48.1443 56.5984 50.9422 56.6213C53.6932 56.6433 55.7198 58.6979 55.7198 61.3437C55.7198 64.0218 53.5467 65.9838 50.9995 66.0514C48.1477 66.1268 46.0022 63.8098 46.0802 61.354L46.0798 61.3536ZM51.2141 58.4858C49.8903 58.5044 49.0867 58.8883 48.6045 59.7734C48.0275 60.8335 48.0115 61.9297 48.6596 62.9639C49.6378 64.5243 51.6037 64.5066 52.6288 63.5974C53.4816 62.8411 53.7319 61.8621 53.541 60.7852C53.2726 59.271 52.0634 58.4643 51.2137 58.4858H51.2141Z" fill="white"/>
<path d="M70.5626 61.3482C70.5574 59.0114 72.2216 57.089 74.533 56.6909C76.5894 56.3367 78.5608 57.239 79.5722 58.9696C80.9394 61.3094 80.0384 64.3788 77.5856 65.5272C75.6862 66.4166 73.8505 66.2417 72.1867 64.9041C71.2391 64.1427 70.5182 62.7668 70.563 61.3478L70.5626 61.3482ZM72.687 61.1914C72.6667 62.22 72.999 62.9779 73.6872 63.5851C74.6533 64.4374 76.1942 64.4159 77.1543 63.5571C77.995 62.8051 78.3746 61.3943 77.8433 60.1602C77.2469 58.7748 75.7512 58.131 74.3477 58.6722C73.3592 59.0536 72.6698 60.105 72.6866 61.1914H72.687Z" fill="white"/>
<path d="M17.6739 56.63H19.8845C20.7429 58.8578 21.6056 61.0964 22.4678 63.335C22.5027 63.3363 22.5376 63.338 22.5725 63.3393C23.3999 61.1046 24.2272 58.8703 25.0576 56.6287H27.195C27.1691 56.7554 27.1618 56.8626 27.1251 56.9592C26.4641 58.6858 25.7984 60.4104 25.1365 62.1366C24.3617 64.1572 23.5899 66.1786 22.8173 68.2C22.7188 68.4574 22.533 68.5861 22.2601 68.5861C21.815 68.5848 21.3703 68.5835 20.9251 68.5775C20.817 68.5762 20.7093 68.5555 20.564 68.54C20.5951 68.4211 20.6071 68.3409 20.6364 68.2672C20.901 67.6019 21.1608 66.9344 21.4405 66.2751C21.5301 66.0635 21.4806 65.8877 21.4022 65.6994C20.8334 64.3373 20.2671 62.9739 19.6983 61.6118C19.0244 59.9984 18.3487 58.3864 17.6752 56.773C17.6653 56.7493 17.6739 56.7179 17.6739 56.6304V56.63Z" fill="white"/>
<path d="M69.4869 58.2933C69.0512 58.7436 68.6259 59.1828 68.1782 59.6451C67.9989 59.4814 67.8511 59.3495 67.7068 59.2138C66.9238 58.4782 65.7052 58.2494 64.7882 58.7087C63.9668 59.1203 63.4803 59.8059 63.317 60.7112C63.1718 61.5153 63.2688 62.2823 63.7061 62.9877C64.3943 64.0969 65.8017 64.5287 66.985 63.9711C67.3047 63.8203 67.587 63.5889 67.883 63.3889C67.9873 63.3182 68.0804 63.2312 68.1825 63.1485C68.6112 63.5596 69.021 63.9525 69.4222 64.3365C68.6341 65.6607 66.414 66.3825 64.5697 65.8973C62.6211 65.3849 61.2529 63.7199 61.1418 61.6381C61.019 59.3327 62.4203 57.4354 64.4159 56.8166C66.1361 56.2831 68.3553 56.7554 69.4873 58.2929L69.4869 58.2933Z" fill="white"/>
<path d="M9.28499 58.2452C8.87648 58.6817 8.46065 59.1264 8.01379 59.6038C7.88107 59.4827 7.77937 59.3888 7.67638 59.297C7.12438 58.8028 6.50214 58.4878 5.73813 58.4916C4.74099 58.4964 4.00154 58.9372 3.51633 59.7926C2.95398 60.7841 2.98113 62.2634 3.76023 63.2451C4.64403 64.359 6.12121 64.4146 7.02441 63.9057C7.33337 63.7316 7.61045 63.4959 7.8871 63.2701C8.0293 63.1541 8.14134 63.0904 8.29044 63.2446C8.63818 63.6049 8.98981 63.9612 9.34058 64.3202C8.60156 65.6453 6.3315 66.4153 4.42297 65.8973C2.46791 65.3669 1.09415 63.7152 1.00452 61.5796C0.914894 59.4388 2.16153 57.4639 4.35316 56.8085C6.27591 56.2336 8.40506 56.9485 9.28499 58.2452V58.2452Z" fill="white"/>
<path d="M40.368 54.3505C41.0462 54.3505 41.6469 54.3505 42.248 54.3505C42.457 54.3505 42.5087 54.4638 42.5036 54.6564C42.4872 55.2873 42.4837 55.919 42.4769 56.5499C42.4764 56.6054 42.4881 56.661 42.4962 56.7352C42.844 56.8718 43.1999 56.8347 43.5524 56.8231C43.7528 56.8166 43.9532 56.8007 44.1535 56.7963C44.2914 56.7938 44.372 56.8752 44.3733 57.0079C44.378 57.5349 44.3755 58.0619 44.3755 58.6359C43.7308 58.6781 43.1323 58.6407 42.5264 58.6631C42.5074 58.7794 42.4824 58.8613 42.4824 58.9432C42.4807 60.3066 42.4833 61.67 42.4816 63.0334C42.4807 63.7375 42.819 64.0896 43.5313 64.1085C43.7868 64.1154 44.0424 64.1098 44.3453 64.1098C44.4091 64.7273 44.3496 65.3203 44.3931 65.9326C44.2505 65.9546 44.1557 65.9835 44.0622 65.9817C43.4611 65.9692 42.8552 65.9908 42.2597 65.9236C41.194 65.8038 40.483 65.0212 40.4016 63.9366C40.3748 63.5794 40.3787 63.2196 40.3779 62.861C40.3748 61.6123 40.3761 60.3635 40.374 59.1147C40.374 58.9755 40.3615 58.8359 40.3524 58.6553C40.0754 58.6553 39.8362 58.6601 39.597 58.654C39.239 58.6454 39.1937 58.5928 39.198 58.2554C39.2028 57.8831 39.1993 57.5104 39.1993 57.1376C39.1993 56.87 39.2527 56.8037 39.5173 56.7938C39.7849 56.7838 40.0534 56.7916 40.3684 56.7916V54.3496L40.368 54.3505Z" fill="white"/>
<path d="M11.1764 56.6838C11.3023 56.6584 11.3966 56.6235 11.4914 56.6222C11.9797 56.6166 12.4679 56.6144 12.9557 56.6209C13.2772 56.6257 13.3034 56.6502 13.309 56.9652C13.3168 57.3957 13.3082 57.8266 13.309 58.2571C13.309 58.3101 13.3237 58.3631 13.3457 58.5122C13.7227 57.9171 14.0955 57.4228 14.6358 57.0889C15.1749 56.7558 15.7575 56.6076 16.3802 56.6295C16.4909 56.9631 16.5008 58.5023 16.3966 58.8449C16.1389 58.878 15.8665 58.897 15.6011 58.9496C14.351 59.1986 13.6895 60.0338 13.4112 61.2153C13.3332 61.5463 13.3211 61.8975 13.3177 62.2396C13.306 63.3596 13.3138 64.4795 13.3112 65.5995C13.3103 66.0442 13.2884 66.0536 12.8475 66.0433C12.4171 66.033 11.9866 66.0386 11.5561 66.0429C11.2045 66.0463 11.17 66.0097 11.1704 65.6533C11.1739 62.7964 11.1747 59.939 11.1764 57.082C11.1764 56.9557 11.1764 56.829 11.1764 56.6834V56.6838Z" fill="white"/>
<path d="M59.5038 64.701C59.4827 64.9009 59.5879 65.1694 59.353 65.3181C59.0531 65.5077 58.7282 65.6572 58.414 65.8244C58.1146 65.6581 57.7991 65.5137 57.5242 65.3138C57.4264 65.2427 57.3755 65.0307 57.3923 64.8941C57.4294 64.5911 57.2277 64.2244 57.5212 63.9947C57.7866 63.7866 58.1141 63.6582 58.4145 63.4949C58.7286 63.6621 59.0522 63.8142 59.353 64.0025C59.5206 64.1072 59.5038 64.1339 59.5034 64.7019L59.5038 64.701Z" fill="white"/>
<path d="M57.2818 16.6247H39.2842C39.3971 16.0969 39.4971 15.6112 39.6056 15.1277C39.9262 13.7027 40.2494 12.2785 40.573 10.8544C40.6842 10.3653 40.8062 9.87877 40.9096 9.38838C40.9475 9.20956 41.0488 9.15354 41.2112 9.15311C41.3978 9.15311 41.5844 9.14966 41.771 9.14966C46.2495 9.15009 50.7284 9.15095 55.2069 9.15181C55.5267 9.15181 55.5637 9.16905 55.6434 9.49784C55.8735 10.4441 56.0912 11.393 56.3161 12.3406C56.6302 13.6639 56.9478 14.9864 57.2607 16.3102C57.2826 16.4033 57.2745 16.5032 57.2818 16.6247Z" fill="white"/>
<path d="M34.3384 22.7753C35.9802 21.5553 37.6008 20.3509 39.2366 19.1357C39.3245 19.1806 39.4154 19.2176 39.4977 19.2698C40.6858 20.0221 41.8729 20.7762 43.0601 21.5303C43.1571 21.592 43.2488 21.6626 43.3492 21.7169C43.5509 21.8255 43.6177 21.994 43.6134 22.2151C43.6052 22.6171 43.6117 23.0191 43.6099 23.4212C43.6056 24.455 43.6031 25.4887 43.5931 26.5229C43.5914 26.7082 43.6427 26.8517 43.7793 26.9814C44.695 27.8514 45.5991 28.7339 46.5229 29.5949C46.7513 29.8078 46.9 30.0172 46.8522 30.3374C46.8397 30.4218 46.8375 30.5115 46.8522 30.5951C46.9599 31.21 46.7061 31.6383 46.2398 32.036C45.4435 32.7152 44.695 33.4512 43.9331 34.1704C43.7767 34.3182 43.6147 34.391 43.3966 34.3876C42.7218 34.3781 42.047 34.3738 41.3726 34.3884C41.1085 34.394 40.9594 34.2966 40.8288 34.0682C38.9862 30.8407 37.1354 27.6179 35.2847 24.3951C34.9787 23.862 34.6646 23.3333 34.3384 22.7757V22.7753Z" fill="white"/>
<path d="M57.3492 19.1067C58.9479 20.3107 60.5698 21.5323 62.1987 22.7587C62.1409 22.885 62.1069 22.9785 62.0586 23.0634C60.07 26.5348 58.08 30.0058 56.0896 33.4764C55.9754 33.6755 55.8453 33.8664 55.7436 34.0711C55.6315 34.2969 55.4609 34.3607 55.2196 34.3563C54.5594 34.3443 53.8993 34.3464 53.2391 34.3542C53.04 34.3568 52.8793 34.3064 52.7332 34.1689C52.3156 33.7755 51.8895 33.3911 51.4685 33.0015C50.9841 32.5534 50.5058 32.0988 50.0163 31.6562C49.8426 31.4994 49.7625 31.3313 49.7836 31.0913C49.8073 30.8207 49.8064 30.5449 49.7849 30.2743C49.7646 30.02 49.8543 29.8404 50.0352 29.6701C50.798 28.9535 51.5521 28.227 52.3096 27.5044C52.4135 27.4053 52.5096 27.2958 52.6233 27.2096C52.9633 26.9524 53.0568 26.6214 53.0486 26.1983C53.0232 24.8784 53.0426 23.5576 53.0357 22.2373C53.0344 22.0063 53.0766 21.8383 53.293 21.6995C54.6081 20.8545 55.9134 19.9944 57.2229 19.1403C57.2453 19.1256 57.2772 19.1252 57.35 19.1067H57.3492Z" fill="white"/>
<path d="M43.5736 17.709C45.162 17.6827 46.7046 17.6986 48.2469 17.6961C49.7965 17.6935 51.346 17.6956 52.9021 17.6956C53.0361 17.8154 52.9697 17.949 52.9189 18.0835C52.5246 19.1301 52.1398 20.1803 51.7334 21.2218C51.5688 21.6432 51.4921 22.0461 51.5559 22.5128C51.6946 23.5345 51.7567 24.5661 51.8524 25.5939C51.8786 25.8766 51.9127 26.1588 51.9489 26.4945C51.5886 26.5255 51.2676 26.5768 50.9461 26.5777C48.9932 26.5811 47.0403 26.5738 45.087 26.5673C44.9629 26.5673 44.8392 26.5449 44.6617 26.5281C44.7151 25.9933 44.7647 25.4982 44.8147 25.0027C44.9129 24.0331 45.0258 23.0648 45.1003 22.0936C45.118 21.8634 45.0357 21.6135 44.9517 21.3903C44.538 20.2902 44.1075 19.1961 43.6852 18.0994C43.6456 17.996 43.6232 17.8861 43.5728 17.7094L43.5736 17.709Z" fill="white"/>
</svg>
