<svg width="138" height="36" viewBox="0 0 138 36" fill="none" xmlns="http://www.w3.org/2000/svg">
<path d="M72.0833 35.3433C65.6824 35.3433 65.2852 31.5786 66.4678 27.3H71.6377C71.1348 29.6618 70.8142 31.6465 73.6556 31.6465C75.4026 31.6465 76.498 30.5182 76.8551 28.8392C77.8005 24.3901 67.453 24.1168 69.0187 16.7564C69.8404 12.8891 72.3445 9.80848 78.6427 9.80848C83.6751 9.80848 85.6936 12.0668 84.2519 17.2371H79.2196C79.6129 15.3876 79.7053 13.5051 77.6176 13.5051C75.9404 13.5051 74.7513 14.4302 74.3876 16.1401C73.3893 20.829 83.8827 20.4183 82.2298 28.1898C80.8681 34.5912 76.0191 35.3433 72.0833 35.3433ZM102.303 34.9328L107.56 10.2196H121.047L120.238 14.0193H111.92L110.624 20.1119H118.291L117.483 23.9114H109.815L108.28 31.1344H116.872L116.065 34.9328H102.303ZM97.2737 20.1117L99.3786 10.2191H104.547L99.2899 34.9346H94.1237L96.4679 23.9114H90.5451L88.2009 34.9346H83.0311L88.2867 10.2191H93.4568L91.353 20.1117H97.2737ZM58.7173 17.2373L50.0519 34.9346H44.8405L56.9424 10.2195H63.7548L65.2086 34.9346H59.7617L58.7173 17.2373ZM131.719 10.2175C138.496 10.2175 138.803 14.7365 137.164 22.4387C136.356 26.2402 135.089 34.933 126.256 34.933H117.837C119.589 26.6945 121.34 18.4552 123.093 10.2175H131.719ZM131.898 22.5761C132.865 18.0235 133.719 14.0191 130.124 14.0191H127.453C126.241 19.7236 125.027 25.4281 123.813 31.1346H126.312C129.462 31.1346 130.579 28.7715 131.898 22.5761ZM43.6096 34.9346H38.4422L40.7856 23.9121H34.8632L32.5193 34.9346H27.349L32.6067 10.2198H37.7745L35.6709 20.1119H41.5938L43.6968 10.2198H48.8647L43.6096 34.9346ZM17.0648 20.1117L18.3597 14.0191H12.4398L11.1423 20.1117H17.0648ZM28.6967 14.0191H23.5294L22.2341 20.1117H27.4014L26.5931 23.9121H21.4265L19.0803 34.9346H13.9129L16.2563 23.9121H10.3348L7.99064 34.9346H2.82246L5.16633 23.9121H0L0.807739 20.1117H5.97407L7.26904 14.0191H2.10271L2.91077 10.2197H8.07741L10.1811 0.333252H15.3486L13.2472 10.2197H19.1697L21.2717 0.333252H26.4402L24.338 10.2197H29.5051L28.6967 14.0191Z" fill="white"/>
</svg>
