<svg width="178" height="37" viewBox="0 0 178 37" fill="none" xmlns="http://www.w3.org/2000/svg">
<path d="M54.685 14.8088C54.0453 14.8088 53.4318 14.5546 52.9794 14.1023C52.5271 13.6499 52.2729 13.0364 52.2729 12.3967C52.2729 11.757 52.5271 11.1435 52.9794 10.6911C53.4318 10.2388 54.0453 9.98466 54.685 9.98466C55.0075 9.97146 55.3294 10.0238 55.6311 10.1384C55.9328 10.2531 56.2082 10.4277 56.4405 10.6518C56.6729 10.8758 56.8574 11.1447 56.983 11.442C57.1085 11.7394 57.1725 12.0591 57.171 12.3819C57.1703 12.7054 57.1051 13.0255 56.9792 13.3235C56.8533 13.6215 56.6692 13.8914 56.4377 14.1174C56.2062 14.3434 55.9319 14.5209 55.631 14.6396C55.33 14.7584 55.0084 14.8159 54.685 14.8088V14.8088Z" fill="white"/>
<path d="M167.195 29.7158C164.253 29.7158 161.995 26.9664 161.995 23.4504C161.97 22.4917 162.138 21.5378 162.489 20.6453C162.84 19.7528 163.367 18.9401 164.039 18.2553C164.71 17.5706 165.512 17.0279 166.398 16.6594C167.283 16.291 168.234 16.1044 169.193 16.1107C170.075 16.1225 170.946 16.317 171.75 16.6819L171.848 16.7263V13.8555C171.848 12.5207 171.688 12.4319 171.004 12.2691L170.797 12.2188L169.909 11.9584L175.976 9.9873V26.1998C175.976 27.653 176.169 28.017 177.053 28.2715L177.592 28.4077L177.429 28.7895L171.853 29.7099V26.9782L171.729 27.1351C170.445 28.7569 168.755 29.7158 167.195 29.7158ZM169.385 16.8861C167.39 16.8861 166.426 18.6381 166.426 22.2459C166.426 25.4067 167.595 27.3689 169.474 27.3689C170.086 27.3627 170.673 27.1221 171.113 26.6965C171.554 26.271 171.814 25.6929 171.842 25.0811V19.3514C171.845 17.4898 170.187 16.8861 169.385 16.8861Z" fill="white"/>
<path d="M51.1167 29.2805L51.1818 28.9105L52.1259 28.7625C52.3041 28.7497 52.4707 28.6694 52.5917 28.538C52.7127 28.4065 52.779 28.2338 52.777 28.0552V20.1147C52.777 18.6142 52.0904 18.2353 51.4926 18.0725L51.1374 17.9838L56.8967 16.1104V28.0374C56.8915 28.209 56.9486 28.3767 57.0574 28.5094C57.1662 28.6422 57.3194 28.731 57.4887 28.7596L58.4772 28.9135L58.5423 29.2834L51.1167 29.2805Z" fill="white"/>
<path d="M115.365 36.328L115.43 35.9581L116.374 35.8101C116.552 35.7973 116.719 35.717 116.84 35.5855C116.961 35.4541 117.027 35.2814 117.025 35.1028V20.2339C117.025 19.2246 116.572 18.3545 115.948 18.1622L115.356 18.0112L121.148 16.1023V18.8458L121.272 18.689C122.548 17.0701 124.122 16.1023 125.682 16.1023C128.621 16.1112 130.639 19.1359 130.639 22.6489C130.639 27.3339 127.058 29.7104 123.536 29.7104C122.74 29.7336 121.948 29.5821 121.216 29.2665L121.118 29.2221V35.0939C121.116 35.273 121.183 35.4461 121.305 35.5776C121.426 35.7091 121.594 35.7891 121.772 35.8012L122.713 35.9492L122.779 36.3191L115.365 36.328ZM123.489 18.3841C122.875 18.4089 122.293 18.6611 121.855 19.0917C121.418 19.5222 121.156 20.1003 121.121 20.7133V26.6561C121.125 27.2498 121.358 27.8189 121.773 28.2439C122.187 28.6689 122.75 28.9166 123.344 28.935C124.696 28.935 126.428 27.8488 126.428 23.2437C126.419 20.0829 125.368 18.3841 123.489 18.3841Z" fill="white"/>
<path d="M84.9644 28.0588V20.8729C84.9618 20.5723 84.8993 20.2752 84.7806 19.999C84.6619 19.7228 84.4894 19.473 84.2731 19.2642C84.0568 19.0553 83.8012 18.8917 83.521 18.7827C83.2408 18.6738 82.9417 18.6217 82.6411 18.6296C82.0731 18.6438 81.5323 18.8756 81.1302 19.2771C80.7282 19.6786 80.4957 20.2191 80.4807 20.7871V28.044C80.4792 28.2123 80.5381 28.3756 80.6467 28.5043C80.7553 28.633 80.9064 28.7185 81.0726 28.7454L82.0611 28.8993L82.1262 29.2692H74.9581L75.0232 28.8993L75.7542 28.7454C75.9189 28.7188 76.0688 28.6345 76.1772 28.5077C76.2856 28.3809 76.3455 28.2197 76.3461 28.0528V13.6812C76.3468 13.3501 76.2478 13.0266 76.062 12.7526C75.8761 12.4786 75.6122 12.267 75.3044 12.1451L74.6592 11.8906L80.5221 9.98169V18.7657L80.6494 18.5733C80.6671 18.5497 82.3215 16.111 85.2515 16.111C86.2633 16.1352 87.2286 16.5412 87.9536 17.2474C88.6313 17.9548 89.0397 19.2008 89.0397 20.574L89.0693 28.0617C89.0679 28.2301 89.1268 28.3934 89.2354 28.5221C89.344 28.6507 89.4951 28.7363 89.6613 28.7631L90.6498 28.917L90.7149 29.287H83.5616L83.6267 28.917L84.3577 28.7631C84.5224 28.7365 84.6723 28.6523 84.7807 28.5255C84.8891 28.3986 84.9489 28.2374 84.9496 28.0706" fill="white"/>
<path d="M35.4347 11.2096C35.4367 11.031 35.3704 10.8583 35.2494 10.7269C35.1284 10.5954 34.9618 10.5151 34.7836 10.5023L33.8395 10.3543L33.7744 9.98438H41.9192L41.8481 10.3543L40.904 10.5023C40.7258 10.5151 40.5592 10.5954 40.4382 10.7269C40.3172 10.8583 40.251 11.031 40.2529 11.2096V27.8661C40.2529 28.6504 41.2799 28.532 41.2799 28.532C44.2158 28.532 46.0359 27.4311 48.004 23.1426L48.3266 22.4383H49.2471L48.4243 29.2808H33.7744L33.8395 28.9108L34.7836 28.7629C34.9618 28.7501 35.1284 28.6697 35.2494 28.5383C35.3704 28.4068 35.4367 28.2342 35.4347 28.0555V11.2096V11.2096Z" fill="white"/>
<path d="M97.4864 29.7161C96.4941 29.7044 95.5466 29.3014 94.8499 28.5947C94.1533 27.8881 93.7638 26.9349 93.7662 25.9426V18.3454H90.8599L92.6652 16.5697H93.2778C93.3421 16.5697 93.4057 16.5569 93.465 16.5322C93.5242 16.5074 93.578 16.4711 93.6232 16.4254C93.6683 16.3797 93.7039 16.3255 93.728 16.2659C93.752 16.2064 93.764 16.1426 93.7632 16.0784V14.5009L97.6107 13.2253V16.5756H101.304L99.6143 18.3513H97.6225V25.4809C97.6225 27.307 98.9277 27.9699 99.8067 27.9699C100.182 27.9663 100.552 27.8761 100.887 27.7065L100.937 27.6858L101.301 28.109C100.251 29.0472 99.1911 29.7161 97.4864 29.7161Z" fill="white"/>
<path d="M137.348 21.553L145.264 21.6743C145.294 21.4287 145.3 20.6444 145.288 20.3692C145.199 18.3685 143.808 16.1104 140.171 16.1104C136.06 16.1104 132.958 19.1202 132.958 23.2133C132.958 26.9394 135.655 29.7244 139.233 29.7244C142.104 29.7244 144.119 28.4459 145.238 25.8503L144.942 25.5958C144.584 26.1563 144.088 26.6151 143.501 26.9282C142.914 27.2413 142.256 27.398 141.592 27.3834C139.029 27.3834 137.353 25.3117 137.324 22.0887C137.321 21.9098 137.329 21.7309 137.348 21.553V21.553ZM137.348 20.5645C137.549 18.0696 138.41 16.9361 139.766 16.9361C139.95 16.9322 140.134 16.9665 140.305 17.0367C140.476 17.107 140.631 17.2118 140.76 17.3445C141.322 17.9157 141.595 18.8243 141.568 20.5408V20.6089L137.345 20.6385L137.348 20.5645Z" fill="white"/>
<path d="M151.713 21.553L159.63 21.6743C159.659 21.4287 159.665 20.6444 159.653 20.3692C159.565 18.3685 158.174 16.1104 154.536 16.1104C150.425 16.1104 147.324 19.1202 147.324 23.2133C147.324 26.9394 150.02 29.7244 153.598 29.7244C156.469 29.7244 158.484 28.4459 159.603 25.8503L159.307 25.5958C158.95 26.1622 158.451 26.6262 157.861 26.9426C157.271 27.259 156.609 27.417 155.939 27.4011C153.376 27.4011 151.701 25.3294 151.671 22.1064C151.674 21.9213 151.688 21.7365 151.713 21.553V21.553ZM151.713 20.5645C151.914 18.0696 152.775 16.9361 154.131 16.9361C154.316 16.9322 154.499 16.9665 154.67 17.0367C154.842 17.107 154.996 17.2118 155.125 17.3445C155.687 17.9157 155.96 18.8243 155.933 20.5408V20.6089L151.71 20.6385L151.713 20.5645Z" fill="white"/>
<path d="M109.657 21.1505C107.908 20.4787 106.591 19.9667 106.591 18.6733C106.591 17.4895 107.416 16.7999 108.606 16.7999C109.192 16.8004 109.766 16.9622 110.266 17.2675L112.48 20.4816L113.238 20.452L113.09 16.1104L111.663 16.575C110.681 16.2727 109.66 16.1162 108.633 16.1104C105.487 16.1104 103.388 17.7707 103.388 20.3633C103.388 22.7516 105.194 23.6573 107.411 24.5067C109.041 25.1489 110.559 25.6076 110.559 27.2531C110.559 28.1913 109.672 29.1088 108.227 29.1088C106.712 29.1088 105.925 28.3511 104.936 26.895L104.125 25.2081L103.347 25.3975L103.072 28.8158C104.701 29.3975 106.417 29.7016 108.147 29.7155C112.051 29.7155 113.83 27.6438 113.83 25.3738C113.824 22.8108 111.666 21.9673 109.657 21.1505Z" fill="white"/>
<path d="M69.2403 26.8092H64.6086C64.332 26.7888 64.0729 26.6663 63.8815 26.4657C63.6901 26.265 63.5801 26.0003 63.5727 25.7231C63.5672 25.5757 63.5913 25.4286 63.6435 25.2906C63.6958 25.1527 63.7751 25.0266 63.8769 24.9198C63.9787 24.813 64.1009 24.7277 64.2362 24.669C64.3716 24.6102 64.5173 24.5792 64.6648 24.5777C64.7279 24.573 64.7912 24.573 64.8542 24.5777C65.2946 24.6577 65.7415 24.6964 66.189 24.6931C69.705 24.6931 72.0874 22.8612 72.0874 20.2775C72.0874 19.508 71.9602 18.9486 71.5251 18.4603L73.1381 16.9805L72.7474 15.8411L69.9891 16.9775C68.8783 16.4025 67.644 16.1069 66.3932 16.1163C62.966 16.1163 60.6398 18.3182 60.6398 20.6415C60.6398 22.6451 61.7733 23.752 63.4307 24.3321V24.3617C61.7171 24.8559 60.1485 26.019 60.1485 27.5876C60.1485 28.9816 61.5425 30.2305 63.259 30.4347C61.5158 31.1036 59.8022 31.8879 59.8022 33.4268C59.8022 35.3742 61.6609 36.3332 65.4254 36.3332C70.2199 36.3332 73.6205 33.6695 73.6205 30.5501C73.6264 28.218 71.827 26.8092 69.2403 26.8092ZM65.017 17.7529C65.145 17.5065 65.3384 17.2999 65.5759 17.1558C65.8133 17.0118 66.0859 16.9358 66.3636 16.9361C67.4557 16.9361 68.1394 17.8684 68.1394 20.5201C68.1394 23.1719 67.6274 24.0716 66.3636 24.0716C65.2952 24.0716 64.6796 23.0151 64.6796 20.4876C64.6767 19.2505 64.7447 18.3271 65.017 17.7529V17.7529ZM65.8102 35.3328C63.9812 35.3328 62.9068 34.2555 62.9068 32.687C62.9068 31.5031 64.1972 30.4702 65.3692 30.4702H67.8434C69.9151 30.6153 70.8947 31.0621 70.8947 32.5419C70.8947 34.1904 68.166 35.3328 65.825 35.3328H65.8102Z" fill="white"/>
<path d="M19.2994 19.6326H9.65117V9.98442L0 0.333252V9.98442V19.6326V29.2838H9.65117H19.2994H28.9505L19.2994 19.6326Z" fill="white"/>
</svg>
