<svg width="168" height="28" viewBox="0 0 168 28" fill="none" xmlns="http://www.w3.org/2000/svg">
<path d="M24.8006 1.09873L25.8758 1.23313L25.8086 10.5403L25.7078 19.8476L24.6998 20.0156C24.1622 20.1164 25.1366 20.2172 26.8838 20.1836C28.6309 20.1836 29.6725 20.15 29.1685 20.0828L28.2277 19.982V10.4059V0.863525L25.9766 0.930726C24.6998 0.930726 24.1958 1.03153 24.8006 1.09873Z" fill="white"/>
<path d="M77.5498 1.09848L78.6249 1.23288L78.5577 10.54L78.4569 19.8473L77.449 20.0489C76.8778 20.1833 77.8858 20.2841 79.6329 20.2841C81.3801 20.2841 82.3881 20.1833 81.8169 20.0489L80.8089 19.8473L80.7081 16.6553C80.5737 12.8585 80.9769 11.3465 82.4217 9.90164C83.2281 9.0953 83.2953 8.9273 82.7241 9.2297C82.3209 9.4313 81.7833 9.93524 81.5481 10.2712C81.3465 10.6408 81.0441 10.9432 80.9097 10.9432C80.7417 10.9432 80.6409 8.6585 80.6409 5.90329V0.863281L78.5577 0.930482C77.3818 0.930482 76.9114 1.03128 77.5498 1.09848Z" fill="white"/>
<path d="M111.722 1.1652L112.73 1.3668V10.6068V19.8468L111.722 20.0148C111.184 20.1156 112.158 20.2164 113.906 20.2164C115.653 20.2164 116.661 20.1156 116.09 20.0148L115.082 19.8468L114.981 10.338L114.914 0.862793L112.797 0.896393C111.285 0.929993 110.982 0.997194 111.722 1.1652Z" fill="white"/>
<path d="M128.956 1.09799L130.032 1.2324V5.97001V10.7076L129.359 9.83399C126.638 6.37321 120.624 9.63241 120.624 14.5716C120.624 16.554 122.27 18.9397 124.32 20.0149C125.395 20.5861 127.444 20.6869 127.915 20.2501C128.016 20.1157 127.579 20.0821 126.974 20.1493C124.219 20.4181 123.312 19.0069 123.312 14.4036C123.312 10.8084 123.916 9.2628 125.563 8.82601C127.209 8.35561 129.057 9.3972 129.628 11.1108C130.334 13.194 129.998 17.7301 129.057 19.1077L128.318 20.1829L129.158 19.2757L129.998 18.3349L130.099 19.2085C130.2 20.0149 130.334 20.0821 132.216 20.1493C133.324 20.2165 133.828 20.1829 133.324 20.1157L132.384 19.9813V10.4052V0.862793L130.132 0.929993C128.856 0.929993 128.352 1.03079 128.956 1.09799Z" fill="white"/>
<path d="M0 14.471V27.743H1.7136C2.75521 27.743 3.32641 27.6086 3.19201 27.407C3.09121 27.2054 2.3856 27.071 1.6464 27.071H0.336003L0.403203 14.3702L0.504004 1.70298L2.016 1.50138L3.52801 1.29978L1.7808 1.26618L0 1.19897V14.471Z" fill="white"/>
<path d="M165.917 1.43418L167.328 1.56858V14.3366V27.071H166.186C165.547 27.071 164.909 27.2054 164.808 27.407C164.674 27.6086 165.245 27.743 166.286 27.743H168V14.471V1.19897L166.253 1.26618C164.539 1.29978 164.539 1.33338 165.917 1.43418Z" fill="white"/>
<path d="M13.1017 8.62502C12.6313 8.79302 11.9257 9.36422 11.5225 9.86819L10.7497 10.7754V9.66663V8.59142L8.66654 8.62502C7.22175 8.65862 6.85214 8.72582 7.49055 8.89382L8.43134 9.09542V18.1674V27.2395L7.32255 27.4411C6.71774 27.5755 7.72575 27.6427 9.57368 27.6427C11.4217 27.6427 12.4297 27.5755 11.8585 27.5083L10.7497 27.3739V22.8043V18.2682L11.7241 19.3099C12.2617 19.8811 12.8329 20.3851 13.0009 20.3851C15.1849 20.7211 16.9657 20.1163 18.545 18.4363C20.2586 16.6218 20.6618 13.9002 19.5194 11.6826C18.7466 10.137 17.9737 9.43142 16.3609 8.75942C14.9833 8.18821 14.3113 8.15461 13.1017 8.62502ZM16.6297 9.63302C17.2345 10.2042 17.3017 10.7418 17.3017 14.4714C17.3017 18.3354 17.2345 18.7051 16.5625 19.3771C14.9833 20.9899 12.1945 20.2507 11.2873 17.9994C10.6153 16.2522 10.5817 12.6906 11.2873 10.977C12.1945 8.69222 14.9833 7.98661 16.6297 9.63302Z" fill="white"/>
<path d="M36.3914 8.75892C34.2409 9.69971 33.5353 12.119 35.4506 12.119C36.3914 12.119 36.4586 12.0518 36.3578 10.8758C36.2906 9.93495 36.425 9.53172 37.0298 9.12852C38.777 7.88531 40.6586 8.99412 40.6586 11.2118C40.6586 13.0598 39.953 13.799 37.3994 14.639C34.4761 15.6133 33.6025 16.3861 33.6025 18.0661C33.6025 19.8805 34.8793 20.5861 38.0042 20.4181C38.5082 20.3845 39.2474 19.9813 39.6842 19.5445L40.4234 18.7717L41.1626 19.5781C41.6666 20.2165 42.2042 20.4181 43.145 20.4181C43.8506 20.4181 44.5562 20.2837 44.7578 20.0821C44.9594 19.8805 44.7578 19.8133 44.1866 19.9477C43.6154 20.0485 43.1786 19.9477 42.977 19.6453C42.809 19.3765 42.6746 17.2933 42.6746 14.975C42.6746 10.2374 42.4058 9.53172 40.457 8.72532C39.0458 8.15411 37.769 8.15411 36.3914 8.75892ZM40.5578 16.2181C40.289 19.0069 39.449 20.0821 37.6682 19.9477C35.585 19.7797 34.9465 17.1925 36.6266 15.7477C37.2314 15.2102 39.7514 14.1014 40.457 14.0006C40.625 13.967 40.6586 14.9414 40.5578 16.2181Z" fill="white"/>
<path d="M52.3151 8.59049C49.4254 9.49769 47.9134 11.8832 48.115 15.1761C48.2158 16.9905 48.3838 17.4609 49.2238 18.3681C49.795 18.9393 50.6686 19.6113 51.1726 19.8801C52.3487 20.5185 54.6335 20.6865 55.8431 20.2833C56.8175 19.9473 58.4639 18.2337 58.4639 17.5617C58.4639 17.3265 58.1615 17.6289 57.7919 18.2337C57.4559 18.8049 56.8175 19.4769 56.4143 19.6785C55.4399 20.2161 53.4239 20.3505 52.5503 19.9473C50.7022 19.1073 49.8958 14.9073 50.8702 11.48C51.3742 9.8001 51.5759 9.49769 52.6511 9.02729C53.5247 8.65769 54.1631 8.62409 54.9023 8.82569C55.8767 9.12809 55.9439 9.22889 55.8767 10.7074C55.8431 12.1184 55.9103 12.32 56.6831 12.488C58.6655 12.992 59.0015 10.6066 57.1199 9.22889C56.1119 8.48969 53.6591 8.15368 52.3151 8.59049Z" fill="white"/>
<path d="M66.3941 8.72582C63.6724 9.73382 61.858 12.6571 62.2948 15.3451C62.698 17.9658 63.9412 19.4442 66.4613 20.2842C67.6709 20.6874 67.9397 20.3514 66.7973 19.8474C65.6885 19.377 64.8484 17.4282 64.8484 15.4123V13.6651L68.9813 13.5643L73.0805 13.4635L72.9797 12.4555C72.7109 9.59942 69.3173 7.68422 66.3941 8.72582ZM69.7541 9.43142C70.4261 10.1035 70.5941 10.5403 70.4933 11.7163L70.3925 13.1275L67.5701 13.2283L64.7812 13.3291L65.0164 12.0523C65.554 8.96102 67.9733 7.65062 69.7541 9.43142Z" fill="white"/>
<path d="M85.0112 8.42278C85.0112 8.52358 85.3808 8.75878 85.8512 8.92677C87.128 9.39717 87.3968 10.6068 87.296 15.4452L87.1952 19.8467L86.1872 20.0483C85.6496 20.1491 86.624 20.2163 88.3713 20.2163C90.1185 20.2163 91.1265 20.1155 90.5553 20.0147L89.5473 19.8467L89.3793 15.0756C89.2449 11.0436 89.1105 10.2372 88.5729 9.63237C87.8337 8.82598 85.0112 7.88518 85.0112 8.42278Z" fill="white"/>
<path d="M98.4809 9.12862C96.129 10.3046 94.9194 12.119 94.9194 14.471C94.9194 18.5366 99.4217 21.6615 103.151 20.1158C108.628 17.8646 108.46 10.7414 102.849 8.75902C100.9 8.08702 100.564 8.12062 98.4809 9.12862ZM102.614 9.06142C104.059 9.66623 104.63 11.2454 104.63 14.639C104.596 18.7382 103.454 20.351 100.699 20.183C98.3465 20.015 97.4393 18.4022 97.4393 14.4038C97.4393 9.66623 99.3545 7.68383 102.614 9.06142Z" fill="white"/>
<path d="M141.625 8.89339C136.317 11.3462 136.585 18.4358 142.062 20.2839C142.633 20.4855 143.137 20.5191 143.137 20.3847C143.137 20.2167 142.835 20.0151 142.499 19.9143C141.357 19.6118 140.449 17.6966 140.449 15.5462V13.631H144.515H148.614L148.413 12.2534C148.178 10.5734 146.867 9.0614 145.187 8.59099C143.541 8.15419 143.171 8.18779 141.625 8.89339ZM145.187 9.2294C145.792 9.69979 145.96 10.2038 145.96 11.4806L145.994 13.127L143.238 13.2278C140.617 13.3286 140.449 13.295 140.449 12.623C140.449 11.5142 141.323 9.73339 142.163 9.1286C143.205 8.42299 144.213 8.45659 145.187 9.2294Z" fill="white"/>
<path d="M158.726 8.72582C158.155 8.99462 157.382 9.63303 156.979 10.137L156.274 11.1114L156.24 9.83456V8.59142L154.157 8.62502C152.611 8.65862 152.309 8.72582 153.048 8.89382L154.056 9.09542V14.4714V19.8474L153.048 20.049C152.51 20.1834 153.552 20.2842 155.4 20.2842C157.315 20.2506 158.256 20.1834 157.584 20.049L156.408 19.8474L156.442 15.7818C156.442 12.1866 156.542 11.5818 157.214 10.5066C157.954 9.29703 159.197 8.65862 159.936 9.09542C160.138 9.22982 160.238 9.86816 160.205 10.5402C160.104 11.7162 160.171 11.7834 161.112 11.7834C161.986 11.7834 162.12 11.649 162.221 10.7418C162.389 8.99462 160.574 7.95303 158.726 8.72582Z" fill="white"/>
<path d="M83.9326 8.82684C84.1678 8.92765 84.4702 8.89405 84.571 8.79324C84.7054 8.69244 84.5038 8.59164 84.1342 8.62524C83.7646 8.62524 83.6638 8.72604 83.9326 8.82684Z" fill="white"/>
<path d="M72.1077 18.2682C71.5365 19.377 69.89 20.2842 68.6804 20.1498C68.2436 20.1162 67.874 20.217 67.874 20.3514C67.874 20.7882 70.2596 20.4186 71.1332 19.8474C71.8389 19.377 73.1493 17.3274 72.7797 17.3274C72.6789 17.3274 72.3765 17.7642 72.1077 18.2682Z" fill="white"/>
<path d="M147.168 18.7044C146.193 19.8468 145.756 20.082 144.748 20.1156C144.043 20.1492 143.472 20.2836 143.472 20.4516C143.472 20.8884 145.723 20.418 146.697 19.8132C147.369 19.3764 148.814 17.2932 148.445 17.3268C148.377 17.3604 147.806 17.9652 147.168 18.7044Z" fill="white"/>
</svg>
