<svg width="120" height="40" viewBox="0 0 120 40" fill="none" xmlns="http://www.w3.org/2000/svg">
<path d="M6.61951 0.00741586C8.50593 0.00741586 10.3906 0.00741586 12.277 0.00741586C13.0386 0.00741586 13.2018 0.174122 13.2018 0.939216C13.2018 4.69625 13.2018 8.45328 13.2018 12.2103C13.2018 12.2981 13.2053 12.3858 13.1983 12.4735C13.1614 12.928 12.9315 13.1667 12.4735 13.1983C12.2121 13.2158 11.9471 13.1948 11.6856 13.1948C8.14795 13.1948 4.61026 13.1948 1.07258 13.1965C0.984841 13.1965 0.897101 13.1965 0.809361 13.1965C0.247824 13.1842 0.00566105 12.9438 0.00390625 12.3928C0.00390625 12.0278 0.00390625 11.6628 0.00390625 11.2961C0.00390625 7.81804 0.00390625 4.33827 0.00917066 0.858495C0.00917066 0.700563 0.0196995 0.532102 0.0723436 0.384698C0.19167 0.0565503 0.472439 0.00390625 0.786548 0.00390625C2.73087 0.00741586 4.67519 0.00566105 6.61951 0.00566105V0.00741586Z" fill="white"/>
<path d="M19.5607 12.9965C21.4752 12.9965 23.3914 13.0158 25.3059 12.9842C25.7902 12.9754 26.1184 13.3 26.1149 13.7774C26.0973 17.6221 26.1061 21.4669 26.1043 25.3117C26.1043 25.9416 25.906 26.1505 25.2638 26.1645C24.6215 26.1785 23.9775 26.1715 23.3335 26.1715C20.1766 26.1715 17.018 26.1715 13.8611 26.1715C13.7733 26.1715 13.6856 26.1785 13.5978 26.1698C13.1293 26.1189 12.917 25.9013 12.9082 25.4257C12.8977 24.8554 12.9117 24.2851 12.9117 23.7148C12.9117 20.4403 12.9082 17.1659 12.9082 13.8914C12.9082 13.7738 12.9065 13.6563 12.924 13.5422C12.9731 13.2228 13.1434 13.0438 13.4662 13.0052C13.6821 12.9789 13.9032 12.9894 14.1225 12.9894C15.9352 12.9894 17.748 12.9894 19.5607 12.9894V13V12.9965Z" fill="white"/>
<path d="M32.39 25.8557C34.3045 25.8557 36.219 25.8557 38.1335 25.8557C38.7986 25.8557 38.9846 26.0382 38.9846 26.7191C38.9846 29.8461 38.9811 32.9732 38.9793 36.1002C38.9793 36.8022 38.9863 37.5023 38.9899 38.2042C38.9934 38.7693 38.7635 39.015 38.2072 39.015C34.3203 39.015 30.4334 39.015 26.5448 39.0114C26.0394 39.0114 25.7832 38.764 25.7832 38.2709C25.7832 34.384 25.7832 30.4971 25.785 26.6103C25.785 26.0908 26.0043 25.8434 26.5571 25.8504C28.4996 25.875 30.444 25.8592 32.3883 25.8592V25.8539L32.39 25.8557Z" fill="white"/>
<path d="M32.3972 0.0390015C34.2977 0.0390015 36.1999 0.0390015 38.1004 0.0390015C38.8321 0.0390015 38.9883 0.209217 38.9883 0.955009C38.9865 4.59622 38.9865 8.23744 38.9848 11.8769C38.9848 12.1103 38.9865 12.3454 38.9725 12.5788C38.9479 12.9508 38.7444 13.1667 38.3776 13.2176C38.2776 13.2316 38.1741 13.2246 38.0705 13.2246C34.2696 13.2246 30.467 13.2211 26.6661 13.2334C26.1186 13.2334 25.7746 12.8929 25.7764 12.3437C25.7922 8.49891 25.7834 4.65238 25.7851 0.807605C25.7851 0.258352 26.0063 0.0425111 26.5643 0.0425111C28.5086 0.0425111 30.4529 0.0425111 32.399 0.0425111L32.3972 0.0390015Z" fill="white"/>
<path d="M6.63842 39.0167C4.6941 39.0167 2.74978 39.0167 0.805454 39.0167C0.256201 39.0149 0 38.7552 0 38.213C0 34.9087 0 31.6061 0 28.3018C0 27.7456 0.00350961 27.1911 0.00701921 26.6348C0.0105288 26.0399 0.205312 25.8399 0.789661 25.8399C4.47299 25.8363 8.15632 25.8363 11.8414 25.8346C12.0906 25.8346 12.3398 25.8241 12.5854 25.8434C12.9311 25.8714 13.0785 26.0048 13.1593 26.3452C13.1891 26.4716 13.1979 26.6049 13.1979 26.7348C13.1996 30.5199 13.2014 34.3068 13.1979 38.0919C13.1979 38.2358 13.1786 38.3832 13.1435 38.5253C13.0698 38.8289 12.8697 38.9903 12.5539 39.0132C12.4222 39.0219 12.2906 39.0167 12.159 39.0167C10.3165 39.0167 8.4757 39.0167 6.63315 39.0167H6.63842Z" fill="white"/>
<path d="M53.3953 19.5788C53.4497 19.6139 53.5111 19.6735 53.5848 19.6981C54.3604 19.9595 54.8448 20.4807 54.9711 21.2914C55.122 22.2636 54.9781 23.1603 54.1779 23.8429C53.7638 24.1974 53.2549 24.3378 52.7372 24.4413C52.467 24.4957 52.1862 24.5133 51.909 24.5133C50.6666 24.5185 49.4242 24.5133 48.1818 24.5115C47.7466 24.5115 47.6904 24.4483 47.6904 23.9938C47.6904 21.6705 47.6939 19.3471 47.6939 17.0238C47.6939 16.4973 47.6904 15.9709 47.6939 15.4462C47.6957 15.0479 47.7501 14.9899 48.1502 14.9899C49.3628 14.9864 50.5771 14.9689 51.7897 14.9987C52.2213 15.0092 52.6706 15.0777 53.0794 15.2163C54.2095 15.5989 54.6781 16.4061 54.6605 17.5695C54.6482 18.4188 54.306 19.0979 53.469 19.4436C53.4444 19.4542 53.4251 19.4805 53.4076 19.5033C53.4006 19.5121 53.4023 19.5296 53.3953 19.5805V19.5788ZM49.9524 20.2982C49.9015 20.4333 49.8559 20.5 49.8559 20.5667C49.8506 21.2967 49.8541 22.025 49.8523 22.7549C49.8523 22.9901 49.9927 23.0533 50.1928 23.0533C50.6455 23.0533 51.1018 23.0884 51.5475 23.0322C51.8528 22.9936 52.1722 22.8725 52.4319 22.7058C52.8355 22.4479 52.846 21.9916 52.8373 21.5634C52.8215 20.9159 52.4933 20.5053 51.8528 20.4211C51.2351 20.3386 50.6069 20.3368 49.9524 20.2982ZM49.8523 17.6643C49.8523 17.9556 49.8523 18.2486 49.8523 18.5399C49.8523 18.8242 49.8997 18.8961 50.1629 18.9014C50.6297 18.9102 51.1 18.9277 51.5633 18.8786C52.467 18.7821 52.9162 17.7222 52.3845 16.9781C52.2283 16.7605 52.016 16.5798 51.7405 16.564C51.2018 16.5324 50.6613 16.5324 50.1208 16.5236C49.9173 16.5201 49.8418 16.6307 49.8506 16.8325C49.8629 17.1097 49.8541 17.387 49.8541 17.6643H49.8523Z" fill="white"/>
<path d="M57.5958 4.79805C57.5624 5.8053 57.3641 6.74588 56.8447 7.6145C56.1393 8.79373 55.0776 9.45178 53.7615 9.72904C52.7244 9.94664 51.6856 9.89224 50.6976 9.51145C49.1394 8.9113 48.1883 7.77068 47.8408 6.12292C47.6338 5.14023 47.6706 4.1786 47.9777 3.2275C48.5515 1.4569 49.815 0.453154 51.5996 0.112722C52.8315 -0.122422 54.0476 -0.00484979 55.1742 0.609331C56.2937 1.22 57.0413 2.13776 57.3483 3.38367C57.4624 3.8487 57.5151 4.32776 57.594 4.7998L57.5958 4.79805ZM55.2514 4.89807C55.2391 4.65064 55.2356 4.40146 55.2145 4.15403C55.1092 2.84495 54.2055 1.88683 52.9052 1.7482C51.754 1.62536 50.7994 2.09565 50.3362 3.1573C49.8799 4.20141 49.8483 5.28237 50.2396 6.35982C50.5941 7.33724 51.2925 7.93914 52.3208 8.07602C53.2491 8.20061 54.0493 7.90756 54.6284 7.13018C55.125 6.46686 55.2724 5.70528 55.2496 4.89631L55.2514 4.89807Z" fill="white"/>
<path d="M111.363 18.3819C111.896 17.7502 112.565 17.4098 113.379 17.3975C114.218 17.3835 114.892 17.6818 115.297 18.4574C115.522 18.4574 115.594 18.2679 115.715 18.1573C116.492 17.4501 117.408 17.2431 118.405 17.4852C119.304 17.7028 119.881 18.3837 119.972 19.6208C120.023 20.3192 119.988 21.0229 119.99 21.7248C119.991 22.5005 119.993 23.2743 119.99 24.05C119.988 24.4922 119.965 24.5132 119.509 24.5132C119.044 24.5132 118.581 24.5027 118.089 24.4957C118.075 24.336 118.058 24.2237 118.058 24.1114C118.056 22.9848 118.058 21.86 118.054 20.7334C118.054 20.5281 118.054 20.3245 118.044 20.1192C117.979 18.9558 117.071 18.8031 116.299 19.1593C115.789 19.3945 115.634 19.8841 115.627 20.4C115.61 21.5687 115.62 22.7391 115.62 23.9096C115.62 24.0113 115.622 24.1149 115.62 24.2167C115.617 24.4255 115.529 24.5413 115.301 24.5378C114.892 24.5308 114.481 24.5466 114.072 24.5343C113.72 24.5238 113.674 24.4711 113.674 24.1114C113.671 22.8391 113.681 21.5669 113.667 20.2964C113.664 20.042 113.606 19.7753 113.516 19.5348C113.393 19.2049 113.111 19.0488 112.763 19.0207C111.884 18.947 111.319 19.4454 111.281 20.3526C111.26 20.8492 111.272 21.3458 111.272 21.8442C111.272 22.5759 111.274 23.3059 111.272 24.0377C111.272 24.5027 111.214 24.5606 110.738 24.5676C110.417 24.5729 110.094 24.5764 109.773 24.5641C109.356 24.5483 109.303 24.4887 109.303 24.0605C109.301 22.3215 109.303 20.5807 109.303 18.8417C109.303 18.5486 109.299 18.2573 109.305 17.9643C109.312 17.6204 109.343 17.5818 109.678 17.5712C110.087 17.5572 110.496 17.5554 110.905 17.5572C111.191 17.5572 111.291 17.6677 111.291 17.9643C111.291 18.0784 111.281 18.1907 111.274 18.3047C111.303 18.3311 111.331 18.3591 111.361 18.3855L111.363 18.3819Z" fill="white"/>
<path d="M66.4611 0.219777C66.333 0.404032 66.2628 0.525113 66.1733 0.630401C65.145 1.86403 64.1132 3.0959 63.0814 4.32953C62.7971 4.6682 62.7989 4.66645 63.0814 5.02618C64.1939 6.43704 65.3065 7.84791 66.4155 9.26052C66.491 9.35704 66.5471 9.46934 66.6489 9.63254C66.4699 9.66763 66.3646 9.70624 66.2576 9.708C65.6732 9.71502 65.0889 9.70449 64.5045 9.71852C64.2501 9.72379 64.1009 9.59569 63.9623 9.41319C63.3902 8.65511 62.8164 7.89879 62.2408 7.14423C61.8951 6.69149 61.5494 6.23875 61.1985 5.78952C61.1511 5.7281 61.0756 5.68774 60.9791 5.61229C60.9598 5.71582 60.9405 5.76846 60.9405 5.81935C60.9405 6.93014 60.9458 8.04093 60.9493 9.14997C60.9493 9.65009 60.8914 9.70975 60.4053 9.71151C59.9964 9.71151 59.5876 9.71852 59.1787 9.71151C58.8067 9.70449 58.7453 9.64307 58.7435 9.27105C58.7417 6.37738 58.7417 3.48547 58.7435 0.591796C58.7435 0.172398 58.7768 0.142566 59.1927 0.135547C59.6314 0.128528 60.0701 0.132037 60.5071 0.133792C60.858 0.133792 60.9475 0.212758 60.9475 0.570738C60.951 1.63766 60.944 2.70282 60.9423 3.76974C60.9423 3.85046 60.9528 3.93119 60.9651 4.09789C61.0967 3.9733 61.1827 3.90837 61.2494 3.82765C62.1461 2.7309 63.0463 1.6359 63.9289 0.526868C64.15 0.249609 64.3799 0.116244 64.7449 0.146076C65.1942 0.181172 65.6504 0.153095 66.1031 0.156604C66.1856 0.156604 66.2663 0.184681 66.4611 0.218023V0.219777Z" fill="white"/>
<path d="M71.612 6.42653C71.5138 6.57744 71.4453 6.66869 71.3909 6.76872C70.9206 7.61102 70.4451 8.44982 69.9888 9.29914C69.8502 9.5571 69.6677 9.64484 69.3905 9.63782C68.9079 9.62378 68.4253 9.63256 67.9427 9.6308C67.8848 9.6308 67.8252 9.63431 67.7673 9.6308C67.4549 9.60097 67.383 9.47287 67.5444 9.19736C67.8831 8.61652 68.234 8.04446 68.5762 7.46537C69.0606 6.64763 69.5308 5.82288 70.031 5.01567C70.1696 4.7893 70.1468 4.63488 70.0169 4.42079C69.2501 3.15909 68.4973 1.89036 67.7427 0.621642C67.6708 0.498805 67.6128 0.367195 67.5216 0.188205C67.6637 0.14258 67.7638 0.082917 67.8655 0.0811622C68.4499 0.0706334 69.0342 0.0846718 69.6186 0.0688786C69.8537 0.0618594 69.9555 0.18996 70.0555 0.363685C70.4977 1.13755 70.9435 1.90967 71.3892 2.68003C71.4383 2.76601 71.4997 2.84498 71.5805 2.9643C71.6629 2.86603 71.7331 2.80286 71.7787 2.7239C72.2262 1.95354 72.6825 1.18844 73.1089 0.405801C73.2493 0.147845 73.4107 0.0601046 73.6967 0.0758978C74.1934 0.100465 74.69 0.0811622 75.1883 0.0846718C75.3147 0.0846718 75.441 0.0987102 75.6481 0.110994C75.5691 0.323325 75.5323 0.488276 75.4498 0.626906C74.7251 1.84474 74.0073 3.06784 73.2545 4.26812C73.0352 4.61733 73.0457 4.86475 73.2633 5.21221C74.0547 6.47391 74.8128 7.75842 75.5761 9.03943C75.8832 9.55359 75.8376 9.62729 75.2497 9.6308C74.7812 9.63256 74.3127 9.61325 73.8459 9.63957C73.5195 9.65712 73.3388 9.52727 73.1896 9.24825C72.7351 8.39717 72.2613 7.55838 71.7928 6.71432C71.7507 6.63886 71.7015 6.57042 71.612 6.43004V6.42653Z" fill="white"/>
<path d="M86.2661 18.3504V14.4758C86.4486 14.4565 86.5873 14.4302 86.7276 14.4267C87.0628 14.4214 87.3997 14.4232 87.7349 14.4267C88.2069 14.4319 88.2122 14.4372 88.2192 14.9285C88.2227 15.2637 88.2245 15.6006 88.2245 15.9358C88.2245 18.6224 88.2227 21.3108 88.221 23.9974C88.221 24.0711 88.2245 24.143 88.2192 24.2167C88.1982 24.4975 88.1543 24.5536 87.8788 24.5606C87.4559 24.5712 87.0312 24.5729 86.6083 24.5606C86.3047 24.5536 86.2696 24.5027 86.2626 24.1851C86.2591 24.0044 86.2626 23.8254 86.2626 23.5639C86.1433 23.6622 86.0942 23.6903 86.0643 23.7324C85.5291 24.4483 84.7903 24.7379 83.9252 24.7028C82.488 24.6449 81.5843 23.8078 81.2088 22.5567C80.8999 21.5336 80.9385 20.5018 81.2527 19.491C81.658 18.1872 82.8179 17.3782 84.0779 17.4186C84.6815 17.4379 85.2361 17.5414 85.7221 17.9082C85.8941 18.038 86.0591 18.1802 86.2696 18.3504H86.2661ZM86.389 21.0423C86.2995 20.6316 86.2591 20.2 86.11 19.8122C85.8608 19.1716 85.3326 18.8856 84.6517 18.9014C84.0007 18.9154 83.49 19.1716 83.2303 19.8069C82.9127 20.5843 82.8934 21.3757 83.1794 22.1618C83.4076 22.7848 83.8778 23.1287 84.5412 23.1621C85.2308 23.1972 85.7625 22.9182 86.0836 22.2882C86.2819 21.9004 86.3398 21.4845 86.389 21.0423Z" fill="white"/>
<path d="M52.1389 36.4985C52.2249 36.3423 52.2793 36.2739 52.3038 36.1967C52.7022 34.9139 53.0952 33.6312 53.4918 32.3467C53.7708 31.4394 54.0551 30.534 54.3271 29.625C54.3885 29.4232 54.5044 29.3354 54.7044 29.3354C55.1571 29.3372 55.6116 29.3284 56.0644 29.3424C56.3609 29.3512 56.4329 29.4512 56.3416 29.7373C56.0767 30.5726 55.7977 31.4026 55.5204 32.2344C54.8378 34.2857 54.1516 36.3353 53.469 38.3849C53.3111 38.857 53.2567 38.8868 52.7408 38.878C52.2301 38.8675 51.7177 38.878 51.2053 38.8745C50.814 38.8728 50.7807 38.8342 50.6543 38.4586C50.2332 37.1987 49.8032 35.9405 49.3803 34.6823C48.8328 33.0486 48.2871 31.4149 47.7413 29.7811C47.6343 29.46 47.7045 29.3495 48.0519 29.3424C48.5486 29.3319 49.0469 29.3512 49.5435 29.3337C49.8067 29.3249 49.9489 29.4232 50.0261 29.6706C50.2314 30.3409 50.4525 31.006 50.6613 31.6763C51.0421 32.9047 51.4159 34.1331 51.7932 35.3614C51.9002 35.7089 52.0055 36.0563 52.1389 36.4985Z" fill="white"/>
<path d="M76.63 21.5494C76.63 22.2478 76.6212 22.9462 76.6318 23.6447C76.6476 24.78 76.5124 24.5484 75.7315 24.5659C75.5262 24.5712 75.3227 24.5694 75.1174 24.5659C74.6752 24.5571 74.6383 24.5203 74.6365 24.0904C74.633 23.2867 74.633 22.483 74.633 21.6793C74.633 19.4296 74.633 17.1782 74.633 14.9285C74.633 14.8548 74.633 14.7829 74.633 14.7092C74.6278 14.532 74.7138 14.4267 74.891 14.4267C75.3736 14.4232 75.8561 14.4267 76.337 14.4284C76.5124 14.4284 76.6054 14.5232 76.6142 14.6987C76.6195 14.8162 76.6283 14.9321 76.6283 15.0496C76.623 16.729 76.6177 18.4101 76.6125 20.0894C76.6125 20.1298 76.6353 20.1701 76.6669 20.2807C76.7669 20.1877 76.8511 20.1263 76.9125 20.0473C77.4635 19.3278 78.0181 18.6119 78.5515 17.8801C78.7147 17.6555 78.8884 17.5467 79.1674 17.5555C79.5763 17.5695 79.9852 17.5467 80.3941 17.552C80.4871 17.552 80.645 17.5958 80.6555 17.6432C80.6748 17.738 80.638 17.8714 80.5766 17.9486C79.908 18.7979 79.2306 19.6419 78.5568 20.486C78.5024 20.5544 78.4515 20.6229 78.3638 20.7352C79.2254 21.9372 80.0887 23.1428 80.938 24.3273C80.8749 24.5466 80.7327 24.5659 80.5818 24.5659C80.1291 24.5659 79.6763 24.5554 79.2236 24.5694C78.9744 24.5765 78.82 24.4729 78.6831 24.2746C78.0935 23.42 77.4934 22.5742 76.8967 21.7267C76.8423 21.6494 76.7757 21.581 76.7142 21.5073C76.6862 21.5213 76.6598 21.5336 76.6318 21.5477L76.63 21.5494Z" fill="white"/>
<path d="M90.8499 35.8633C90.7692 36.7881 91.4097 37.5515 92.2836 37.6129C92.4573 37.6252 92.6345 37.6252 92.8082 37.6059C93.2522 37.5567 93.6242 37.3777 93.8278 36.9531C93.9348 36.7302 94.0805 36.6267 94.3437 36.6477C94.6771 36.6741 95.0158 36.6512 95.3509 36.6548C95.7352 36.66 95.7984 36.7723 95.6791 37.1479C95.3966 38.0358 94.7648 38.564 93.9085 38.8184C92.7977 39.1501 91.6904 39.122 90.6165 38.6307C89.7444 38.2306 89.2197 37.5164 88.967 36.6337C88.7125 35.751 88.7178 34.835 89.0389 33.9594C89.4127 32.9416 90.1304 32.2484 91.1657 31.9045C92.1204 31.5886 93.0697 31.6237 93.9875 32.0308C94.9895 32.4748 95.5282 33.2943 95.73 34.3454C95.7914 34.6595 95.8072 34.9824 95.816 35.3036C95.8283 35.7651 95.7493 35.8423 95.293 35.844C93.9646 35.8475 92.6345 35.844 91.3061 35.844C91.1517 35.844 90.9955 35.8563 90.8481 35.8616L90.8499 35.8633ZM92.3151 34.6122C92.7082 34.6122 93.0995 34.6122 93.4926 34.6122C93.8366 34.6122 93.905 34.5332 93.8401 34.191C93.7523 33.733 93.5049 33.3926 93.0697 33.2031C92.1467 32.803 91.1359 33.3066 90.8762 34.291C90.8165 34.5156 90.885 34.6069 91.1359 34.6104C91.529 34.6157 91.9203 34.6104 92.3134 34.6122H92.3151Z" fill="white"/>
<path d="M60.3672 35.844C59.681 35.844 58.9931 35.8423 58.307 35.844C57.9561 35.844 57.9245 35.8914 57.9789 36.2231C58.2052 37.6304 59.567 37.8603 60.4566 37.4409C60.6637 37.3426 60.8515 37.1321 60.9691 36.9285C61.1007 36.7004 61.2481 36.6319 61.4955 36.646C61.8447 36.6653 62.1974 36.6425 62.5466 36.653C62.8291 36.6618 62.9081 36.7706 62.8362 37.0478C62.6396 37.8059 62.1606 38.3534 61.4569 38.6535C60.3391 39.1308 59.1809 39.1817 58.0385 38.7447C56.7838 38.2657 56.1276 37.29 55.9608 35.9914C55.8696 35.279 55.9293 34.5736 56.196 33.8804C56.7926 32.3292 58.3614 31.6044 59.8039 31.7132C60.3321 31.7536 60.8427 31.8677 61.3148 32.1239C62.3483 32.6854 62.7976 33.6119 62.9309 34.7297C62.959 34.9614 62.9502 35.1965 62.9432 35.4299C62.9327 35.7598 62.8835 35.8054 62.5607 35.8335C62.4589 35.8423 62.3571 35.8423 62.2536 35.8423C61.6254 35.8423 60.9971 35.8423 60.3689 35.8423L60.3672 35.844ZM59.4757 34.6087C59.4757 34.6087 59.4757 34.6104 59.4757 34.6122C59.8846 34.6122 60.2935 34.6174 60.7023 34.6104C60.9761 34.6051 61.041 34.5192 60.9989 34.2594C60.8813 33.5259 60.3268 33.0732 59.5406 33.0785C58.6352 33.0837 58.207 33.6418 58.0263 34.284C57.9596 34.5174 58.0385 34.6034 58.293 34.6087C58.6878 34.6174 59.0809 34.6104 59.4757 34.6104V34.6087Z" fill="white"/>
<path d="M101.128 21.4932H96.2039C96.0758 22.2337 96.6127 23.0603 97.2918 23.227C97.6796 23.3217 98.078 23.3217 98.4658 23.2199C98.7729 23.1392 99.0326 22.9708 99.159 22.6637C99.2625 22.4075 99.4362 22.3285 99.7047 22.3461C100.054 22.3689 100.407 22.3461 100.756 22.3531C101.042 22.3601 101.093 22.4198 101.045 22.7023C100.968 23.1673 100.71 23.5376 100.382 23.8604C99.9732 24.2623 99.466 24.508 98.9133 24.5957C97.9236 24.7536 96.9356 24.7765 95.9985 24.3114C94.9106 23.771 94.3174 22.89 94.1964 21.6968C94.1349 21.0879 94.1279 20.4754 94.3087 19.8735C94.8141 18.1889 96.2425 17.3466 97.9148 17.4045C98.8922 17.4379 99.7521 17.7415 100.387 18.5223C101.073 19.3664 101.251 20.3456 101.13 21.4932H101.128ZM96.2565 20.2473C96.5092 20.2543 96.7672 20.2666 97.0234 20.2666C97.6639 20.2701 98.3061 20.2736 98.9466 20.2666C99.1976 20.2649 99.2607 20.1929 99.2326 19.9981C99.1291 19.2927 98.6378 18.8224 97.913 18.7575C97.0128 18.6768 96.2267 19.3541 96.2565 20.2473Z" fill="white"/>
<path d="M106.064 23.878C105.971 23.9535 105.91 23.9886 105.866 24.0395C105.62 24.3325 105.294 24.5168 104.937 24.5922C104.244 24.7379 103.544 24.773 102.872 24.4747C102.137 24.1483 101.731 23.5832 101.691 22.776C101.649 21.8916 101.974 21.1967 102.798 20.8089C103.262 20.5913 103.748 20.4316 104.272 20.4246C104.769 20.4176 105.266 20.3807 105.762 20.3614C106.061 20.3491 106.12 20.2982 106.115 19.9982C106.106 19.5577 106.032 19.1173 105.574 18.9312C105.097 18.7365 104.592 18.7312 104.16 19.0734C104.021 19.1822 103.935 19.3752 103.862 19.5454C103.786 19.7227 103.679 19.7911 103.495 19.7876C103.114 19.7806 102.735 19.7928 102.354 19.7823C102.019 19.7735 101.968 19.7034 102.033 19.3822C102.2 18.5522 102.697 17.9872 103.472 17.6906C104.443 17.3203 105.445 17.28 106.44 17.5871C107.475 17.9047 108.024 18.654 108.04 19.7385C108.056 20.7755 108.04 21.8144 108.04 22.8532C108.04 23.2919 108.049 23.7306 108.04 24.1693C108.033 24.4992 107.98 24.5536 107.656 24.5659C107.321 24.5782 106.984 24.5747 106.647 24.5729C106.234 24.5729 106.147 24.4869 106.117 24.0728C106.113 24.0325 106.094 23.9921 106.059 23.8815L106.064 23.878ZM106.013 21.5038C105.673 21.5038 105.352 21.4775 105.036 21.5108C104.72 21.5441 104.401 21.6073 104.104 21.7161C103.73 21.8512 103.556 22.2285 103.613 22.6409C103.662 22.9919 103.886 23.227 104.281 23.2796C104.522 23.3112 104.778 23.3147 105.016 23.2709C105.885 23.1077 106.285 22.4075 106.013 21.5055V21.5038Z" fill="white"/>
<path d="M62.6709 24.6923C61.9338 24.7239 61.253 24.5431 60.6177 24.1764C59.7667 23.6885 59.2911 22.9427 59.0595 22.0022C58.8682 21.2213 58.9156 20.4562 59.17 19.7156C59.5947 18.4785 60.5019 17.738 61.7671 17.487C62.9429 17.2537 64.0659 17.4186 65.0486 18.1732C65.6277 18.6171 65.9857 19.205 66.1717 19.9034C66.4226 20.8352 66.4121 21.767 66.0138 22.6479C65.4628 23.8658 64.473 24.5133 63.1517 24.6607C62.992 24.6782 62.8305 24.6817 62.6709 24.6905V24.6923ZM64.3485 21.1651C64.3765 20.6141 64.2993 20.1157 64.0431 19.6542C63.722 19.0751 63.192 18.8663 62.5779 18.8821C61.9303 18.8997 61.4337 19.2155 61.1863 19.8367C60.8775 20.6124 60.8757 21.3985 61.153 22.1864C61.3899 22.8603 61.8987 23.1849 62.5779 23.2165C63.2833 23.2498 63.8097 22.9217 64.1168 22.2759C64.2888 21.9162 64.3818 21.5354 64.3467 21.1651H64.3485Z" fill="white"/>
<path d="M80.9722 37.9217C80.8195 38.0708 80.7458 38.1323 80.6861 38.2042C80.2492 38.7342 79.6771 38.9921 79.0033 39.0097C78.6716 39.0184 78.3294 38.9974 78.0065 38.9254C77.2046 38.7447 76.7185 38.2042 76.5009 37.4321C76.4079 37.0987 76.357 36.7425 76.3518 36.395C76.3342 35.0508 76.3412 33.7067 76.3412 32.3625C76.3412 31.9519 76.4237 31.8764 76.8256 31.8817C77.1607 31.8852 77.4976 31.8852 77.8328 31.8764C78.2259 31.8676 78.3294 31.9518 78.3312 32.3502C78.3364 33.5628 78.3347 34.7753 78.3364 35.9879C78.3364 36.0756 78.3364 36.1634 78.3364 36.2511C78.3487 37.0232 78.6576 37.4146 79.3332 37.5146C80.014 37.6146 80.6598 37.2478 80.8546 36.6144C80.93 36.3687 80.9599 36.0984 80.9616 35.8405C80.9722 34.6858 80.9651 33.5312 80.9669 32.3783C80.9669 31.9203 81.0178 31.8817 81.4723 31.8887C81.8074 31.8939 82.1444 31.8799 82.4795 31.8764C82.8322 31.8729 82.927 31.9518 82.9305 32.3063C82.9375 33.0521 82.927 33.7961 82.927 34.5419C82.927 35.7545 82.9323 36.9671 82.9358 38.1796C82.9358 38.3113 82.934 38.4429 82.927 38.5745C82.9182 38.7412 82.8393 38.8605 82.662 38.864C82.1795 38.871 81.6986 38.8728 81.2161 38.8658C81.0336 38.864 80.9686 38.7394 80.9704 38.571C80.9704 38.3902 80.9704 38.2095 80.9704 37.9252L80.9722 37.9217Z" fill="white"/>
<path d="M65.7962 32.8134C65.9384 32.6906 66.0226 32.638 66.0787 32.5643C66.6596 31.8115 68.0704 31.4956 69.0619 31.915C69.7884 32.2221 70.2236 32.7854 70.3359 33.5715C70.3885 33.9453 70.4149 34.3261 70.4184 34.7051C70.4307 35.9335 70.4271 37.1601 70.4289 38.3885C70.4289 38.8307 70.3938 38.8693 69.9621 38.8745C69.5971 38.8798 69.2304 38.8816 68.8654 38.8728C68.5232 38.864 68.4583 38.7956 68.4583 38.4534C68.4583 37.2408 68.467 36.0265 68.467 34.8139C68.467 34.4173 68.4705 34.0085 68.1652 33.7049C68.0266 33.568 67.8458 33.4346 67.6616 33.3908C66.6017 33.1328 65.8067 33.6891 65.7874 34.8929C65.7734 35.7545 65.7874 36.6179 65.7874 37.4795C65.7874 37.8164 65.7927 38.1516 65.7874 38.4885C65.7839 38.8184 65.7401 38.8658 65.4067 38.8728C65.0276 38.8798 64.6468 38.878 64.266 38.8728C63.8694 38.8675 63.8203 38.8184 63.8203 38.406C63.8203 37.4567 63.8238 36.5056 63.8238 35.5562C63.8238 34.5033 63.8238 33.4522 63.8238 32.3993C63.8238 31.9308 63.8782 31.8834 64.3608 31.8887C64.6819 31.8922 65.0031 31.8852 65.3242 31.8816C65.7366 31.8781 65.8015 31.9466 65.791 32.3695C65.7874 32.4835 65.791 32.5994 65.791 32.817L65.7962 32.8134Z" fill="white"/>
<path d="M99.3426 38.9974C98.7635 39.0535 98.2073 38.9518 97.672 38.7289C96.9964 38.4481 96.5507 37.955 96.3472 37.2514C96.2138 36.7863 96.3033 36.66 96.7753 36.653C97.0824 36.6477 97.3895 36.6582 97.6949 36.6477C97.9089 36.6407 98.0476 36.7144 98.1458 36.9144C98.4792 37.597 99.304 37.862 99.9849 37.5286C100.25 37.3988 100.395 37.1917 100.388 36.9057C100.381 36.6389 100.248 36.4231 99.9779 36.3441C99.6567 36.2494 99.3303 36.1792 99.0075 36.0967C98.4863 35.9633 97.9511 35.8633 97.4474 35.6808C96.9069 35.4843 96.5806 35.0596 96.456 34.4875C96.2349 33.4733 96.6121 32.3519 97.8967 31.9378C99.0004 31.5816 100.083 31.6167 101.115 32.1905C101.624 32.473 101.864 32.9556 102.01 33.4891C102.085 33.7681 101.978 33.8997 101.676 33.9102C101.341 33.9225 101.004 33.9067 100.669 33.9155C100.438 33.9207 100.295 33.826 100.181 33.6224C99.8655 33.0556 99.0513 32.8749 98.5214 33.2381C98.0862 33.5364 98.1142 34.0559 98.5951 34.2735C98.8179 34.3735 99.0671 34.4209 99.3075 34.4753C99.848 34.5981 100.399 34.6753 100.929 34.8315C101.812 35.0912 102.228 35.6966 102.268 36.6108C102.331 38.0357 101.394 38.8149 99.9989 38.9939C99.7831 39.0219 99.562 38.9974 99.3426 38.9974Z" fill="white"/>
<path d="M72.768 20.1122C72.6943 20.1122 72.6206 20.1052 72.5486 20.1122C72.1327 20.1613 71.8485 20.0876 71.7063 19.6015C71.5589 19.0997 70.9991 18.9154 70.3902 18.9452C69.576 18.9839 69.0338 19.5349 68.9039 20.3508C68.8179 20.8931 68.8249 21.4265 68.932 21.9618C69.0671 22.6391 69.6725 23.1691 70.3779 23.2287C71.0869 23.2884 71.6905 22.8936 71.9397 22.2074C72.0228 21.9781 72.1871 21.8629 72.4328 21.8617C72.7241 21.8617 73.0172 21.8582 73.3085 21.8617C73.7156 21.8687 73.777 21.9407 73.7085 22.3285C73.5418 23.2796 73.0014 23.9587 72.1398 24.3535C71.0799 24.8379 69.9726 24.8291 68.9004 24.4202C67.8475 24.0201 67.1947 23.2217 66.942 22.1162C66.7174 21.1317 66.7665 20.1631 67.2351 19.2558C67.9107 17.9485 69.0566 17.4238 70.4744 17.401C71.1395 17.3905 71.7818 17.5116 72.3767 17.8309C73.1137 18.2258 73.5155 18.8575 73.6629 19.6612C73.7331 20.0455 73.6734 20.1034 73.2944 20.1139C73.2067 20.1157 73.1189 20.1122 73.0312 20.1104C72.9434 20.1104 72.8557 20.1104 72.768 20.1104V20.1122Z" fill="white"/>
<path d="M72.0202 31.7448C72.0202 31.4517 72.0132 31.1183 72.022 30.7867C72.0325 30.3988 72.0588 30.3778 72.4589 30.3725C72.8239 30.369 73.1889 30.3655 73.5539 30.369C73.9031 30.3725 73.9681 30.4322 73.9803 30.7691C73.9891 31.0306 73.9874 31.2955 73.9716 31.557C73.9593 31.7658 74.047 31.8588 74.2471 31.8571C74.5103 31.8553 74.7718 31.8395 75.035 31.843C75.3333 31.8466 75.4281 31.936 75.4438 32.2326C75.4561 32.466 75.4474 32.6994 75.4456 32.9328C75.4456 33.1451 75.3421 33.2609 75.1262 33.2609C74.849 33.2609 74.5717 33.2469 74.2945 33.2486C74.0032 33.2504 73.9593 33.2872 73.9575 33.5715C73.9523 34.5928 73.947 35.6159 73.961 36.6372C73.9681 37.1899 74.2752 37.4584 74.8262 37.4409C74.856 37.4409 74.8841 37.4374 74.9139 37.4356C75.4789 37.3952 75.486 37.4023 75.4825 37.9498C75.4825 38.1393 75.4719 38.3288 75.4789 38.5183C75.486 38.7254 75.3965 38.8517 75.1982 38.9009C74.4559 39.0816 73.7224 39.0956 73.0187 38.7464C72.4344 38.4551 72.1132 37.962 72.0676 37.3233C72.022 36.6687 72.029 36.0107 72.022 35.3544C72.015 34.7701 72.0255 34.1857 72.0167 33.6031C72.0132 33.289 71.9693 33.2557 71.6587 33.2486C71.585 33.2486 71.5131 33.2557 71.4394 33.2574C71.2288 33.2609 71.106 33.1662 71.106 32.9468C71.106 32.6994 71.0954 32.4502 71.1112 32.2028C71.1288 31.9343 71.2218 31.8606 71.5061 31.8483C71.6359 31.8413 71.7675 31.8378 71.8974 31.829C71.922 31.8272 71.9448 31.7992 72.0237 31.7465L72.0202 31.7448Z" fill="white"/>
<path d="M56.0445 19.4436C56.0445 17.9117 56.0428 16.378 56.0445 14.8461C56.0445 14.4407 56.0603 14.4319 56.4657 14.4267C56.8447 14.4232 57.2255 14.4196 57.6045 14.4267C57.945 14.4319 57.9801 14.4618 57.9818 14.8075C57.9888 16.0621 57.9888 17.3186 57.9888 18.5733C57.9888 20.3246 57.9888 22.0776 57.9888 23.8289C57.9888 23.9605 57.9836 24.0921 57.9853 24.2237C57.9888 24.4413 57.8713 24.5519 57.666 24.5571C57.243 24.5659 56.8184 24.5729 56.3972 24.5571C56.1077 24.5466 56.0463 24.4676 56.0393 24.1763C56.0305 23.8254 56.0357 23.4762 56.0357 23.1252C56.0357 21.8986 56.0357 20.672 56.0357 19.4471C56.0393 19.4471 56.0428 19.4471 56.0463 19.4471L56.0445 19.4436Z" fill="white"/>
<path d="M86.2851 32.9415C86.3658 32.8433 86.45 32.7468 86.5273 32.645C86.901 32.1449 87.4187 31.9045 88.0206 31.822C88.3452 31.7781 88.4382 31.843 88.4523 32.1484C88.4716 32.5274 88.4646 32.9082 88.4593 33.289C88.4575 33.4943 88.3435 33.6014 88.1347 33.6294C87.8591 33.6645 87.5819 33.7031 87.3152 33.7751C86.7817 33.919 86.4149 34.2559 86.2904 34.8051C86.2307 35.0736 86.2044 35.3544 86.2026 35.6299C86.1921 36.5371 86.1991 37.4426 86.1991 38.3498C86.1991 38.8324 86.1587 38.8728 85.6779 38.8728C85.327 38.8728 84.976 38.8798 84.625 38.871C84.2706 38.8622 84.2197 38.8096 84.2197 38.4569C84.2179 36.9214 84.2197 35.386 84.2197 33.8505C84.2197 33.3381 84.2144 32.8275 84.2162 32.3151C84.2162 31.9448 84.2811 31.8869 84.6531 31.8869C85.0339 31.8869 85.413 31.8799 85.7937 31.8799C86.0921 31.8799 86.1903 31.9694 86.2026 32.2642C86.2114 32.4783 86.2044 32.6924 86.2044 32.9064C86.2307 32.9187 86.2588 32.931 86.2851 32.9433V32.9415Z" fill="white"/>
<path d="M91.6444 18.6329C91.7497 18.496 91.8515 18.3574 91.9586 18.2205C92.3481 17.7239 92.9097 17.5677 93.4905 17.4607C93.6625 17.4291 93.78 17.5168 93.7853 17.6976C93.7993 18.1345 93.8151 18.5732 93.7976 19.0102C93.7941 19.1049 93.6625 19.2313 93.5607 19.2734C93.4168 19.3331 93.2483 19.3348 93.0886 19.3524C92.0884 19.4594 91.5707 20.0192 91.5585 21.0335C91.5479 21.9249 91.5585 22.8163 91.5585 23.7078C91.5585 23.8253 91.5585 23.9412 91.5585 24.0587C91.5514 24.5378 91.5058 24.5922 91.0355 24.6027C90.6846 24.6097 90.3336 24.608 89.9844 24.5869C89.6598 24.5694 89.6071 24.508 89.6019 24.1851C89.5948 23.6586 89.5983 23.1322 89.6001 22.6075C89.6001 21.1177 89.6019 19.6261 89.6036 18.1363C89.6036 18.0784 89.6036 18.0187 89.6036 17.9608C89.6159 17.5853 89.644 17.5589 90.002 17.5572C90.3529 17.5572 90.7039 17.5572 91.0531 17.5502C91.4742 17.5432 91.5602 17.6291 91.5567 18.0608C91.5567 18.2433 91.5567 18.4258 91.5567 18.6083C91.5848 18.6153 91.6146 18.6241 91.6427 18.6311L91.6444 18.6329Z" fill="white"/>
</svg>
