<svg width="181" height="29" viewBox="0 0 181 29" fill="none" xmlns="http://www.w3.org/2000/svg">
<path d="M9.25229 18.6217C9.5838 19.3752 10.0359 20.0683 10.5783 20.6711C9.40298 21.3039 8.19746 21.6053 6.84127 21.6053C2.86309 21.6053 0 18.9532 0 14.7038C0 10.4242 3.01378 7.77209 6.84127 7.77209C8.19746 7.77209 9.28242 8.07347 10.3674 8.64609C9.85504 9.27899 9.43311 10.0023 9.13173 10.7859C8.4687 10.5146 7.80568 10.3941 7.11251 10.3941C4.76177 10.3941 2.92337 11.9311 2.92337 14.7038C2.92337 17.3258 4.70149 19.0135 7.20292 19.0135C7.95637 19.0135 8.61939 18.8929 9.25229 18.6217ZM17.2387 7.80224C21.1567 7.80224 23.9595 10.6051 23.9595 14.7339C23.9595 18.8327 21.1266 21.6355 17.2387 21.6355C13.351 21.6355 10.5482 18.8327 10.5482 14.7339C10.5482 10.6051 13.3811 7.80224 17.2387 7.80224ZM17.2387 10.3338C15.0689 10.3338 13.4716 12.0216 13.4716 14.7339C13.4716 17.386 15.0689 19.1039 17.2387 19.1039C19.469 19.1039 21.0362 17.4162 21.0362 14.7339C21.0362 12.0216 19.4991 10.3338 17.2387 10.3338ZM25.828 21.3039V8.07347H28.7514V21.3039H25.828ZM25.4664 4.03502C25.4664 3.01033 26.3103 2.22676 27.2746 2.22676C28.2391 2.22676 29.0829 3.04047 29.0829 4.03502C29.0829 5.08984 28.2391 5.90357 27.2746 5.90357C26.3103 5.90357 25.4664 5.05971 25.4664 4.03502ZM31.2829 8.91734C33.0912 8.19403 35.3516 7.77209 37.2502 7.77209C40.5654 7.77209 42.7051 9.06802 42.7051 12.7749V21.2738H39.8119V13.0763C39.8119 11.1777 38.6366 10.4845 37.0091 10.4845C35.9845 10.4845 34.9598 10.6352 34.1763 10.8763V21.3341H31.2529V8.91734H31.2829ZM45.1464 1.02124H48.0697V8.46528C48.6724 8.13376 49.8779 7.80224 51.0533 7.80224C54.8206 7.80224 57.6535 10.2434 57.6535 14.4928C57.6535 18.7724 54.8507 21.6355 50.0286 21.6355C48.1602 21.6355 46.5026 21.2437 45.1765 20.7614V1.02124H45.1464ZM48.0396 18.8025C48.6122 18.9834 49.3355 19.0738 50.0588 19.0738C52.741 19.0738 54.6397 17.5669 54.6397 14.523C54.6397 11.9613 52.8314 10.4242 50.6314 10.4242C49.4862 10.4242 48.6122 10.7256 48.0095 11.0571V18.8025H48.0396ZM66.0017 12.4434C66.0017 10.9968 64.9469 10.364 63.5003 10.364C61.9934 10.364 60.818 10.816 59.733 11.4489V8.85706C60.8783 8.19402 62.3549 7.77209 63.9523 7.77209C66.8153 7.77209 68.8346 8.97761 68.8346 12.2928V21.0327C67.599 21.3642 65.851 21.5752 64.3742 21.5752C60.9989 21.5752 58.5275 20.5204 58.5275 17.5367C58.5275 14.8545 60.7879 13.5284 64.5551 13.5284H66.0017V12.4434ZM66.0017 15.5175H64.766C62.7468 15.5175 61.4207 16.1203 61.4207 17.4463C61.4207 18.8327 62.6563 19.3449 64.4345 19.3449C64.8866 19.3449 65.4893 19.2848 66.0318 19.1943L66.0017 15.5175ZM70.9743 17.7176C72.1798 18.6518 73.6266 19.2245 74.9526 19.2245C76.2485 19.2245 77.0923 18.7724 77.0923 17.7176C77.0923 16.6327 76.339 16.2408 74.6512 15.8189C71.9388 15.1859 70.7935 14.101 70.7935 11.7804C70.7935 9.09816 72.7826 7.77209 75.4348 7.77209C76.9115 7.77209 78.0869 8.10361 79.1719 8.79678V11.5092C78.0266 10.6653 76.9115 10.153 75.5252 10.153C74.2594 10.153 73.5963 10.7859 73.5963 11.6599C73.5963 12.5338 74.169 12.9859 75.6457 13.3777C78.6294 14.0407 79.8952 15.1559 79.8952 17.5669C79.8952 20.3396 77.8157 21.6053 74.9828 21.6053C73.4457 21.6053 71.9388 21.1834 70.9442 20.5204V17.7176H70.9743ZM83.9035 15.3668V15.4271C84.0843 17.7779 86.0734 19.0738 88.1227 19.0738C89.931 19.0738 91.1968 18.6518 92.4927 17.7779V20.3697C91.3174 21.2135 89.5694 21.6053 87.9118 21.6053C83.8432 21.6053 81.1006 18.9834 81.1006 14.7942C81.1006 10.5749 83.813 7.77209 87.3995 7.77209C91.1968 7.77209 92.975 10.2434 92.975 13.8599V15.3668H83.9035ZM90.2324 13.4682C90.1721 11.4188 89.1775 10.2735 87.2789 10.2735C85.5912 10.2735 84.3556 11.479 83.9939 13.4682H90.2324Z" fill="white"/>
<path d="M103.343 0.388428H103.614C103.885 0.388428 104.096 0.599393 104.096 0.870629V27.9946C104.096 28.2658 103.885 28.4768 103.614 28.4768H103.343C103.071 28.4768 102.86 28.2658 102.86 27.9946V0.870629C102.86 0.599393 103.101 0.388428 103.343 0.388428Z" fill="white"/>
<path d="M120.129 21.3342H118.502L113.499 7.98315H114.976L119.376 19.9478L123.776 7.98315H125.192L120.129 21.3342ZM133.119 16.5121H125.886V16.5422C125.886 18.9532 127.574 20.3698 129.442 20.3698C130.799 20.3698 131.732 20.0081 132.697 19.2546V20.6108C131.852 21.2739 130.617 21.5452 129.442 21.5452C126.67 21.5452 124.56 19.6163 124.56 16.4217C124.56 13.4683 126.519 11.2983 129.11 11.2983C131.521 11.2983 133.119 12.7751 133.119 15.5779V16.5121ZM125.976 15.3669H131.823C131.732 13.3176 130.648 12.5038 129.05 12.5038C127.574 12.5038 126.368 13.5286 125.976 15.3669ZM134.596 21.3342V12.0517C135.861 11.5695 137.308 11.2983 138.603 11.2983C141.015 11.2983 142.492 12.2627 142.492 14.7039V21.304H141.165V14.9751C141.165 12.986 139.779 12.5339 138.483 12.5339C137.488 12.5339 136.584 12.7148 135.892 12.8956V21.304H134.596V21.3342ZM143.306 12.6846V11.5394H144.782V9.15852H146.108V11.5394H148.791V12.6846H146.108V18.6519C146.108 19.9177 146.59 20.3998 147.495 20.3998C148.097 20.3998 148.61 20.189 149.272 19.8574V21.0629C148.7 21.3643 148.037 21.5452 147.224 21.5452C145.837 21.5452 144.813 20.7917 144.813 18.7725V12.6545H143.306V12.6846ZM157.952 11.5394V21.2136C156.777 21.4246 155.602 21.5452 154.607 21.5452C151.834 21.5452 150.267 20.5807 150.267 18.1395V11.5394H151.593V18.0793C151.593 19.9177 153.009 20.3998 154.547 20.3998C155.21 20.3998 155.963 20.3698 156.657 20.2794V11.5695H157.952V11.5394ZM161.509 13.1669V21.3342H160.183V12.4435C161.177 11.7805 162.413 11.3887 163.739 11.3887C164.251 11.3887 164.793 11.449 165.336 11.5997V12.9258C164.763 12.7148 164.1 12.6846 163.648 12.6846C162.714 12.6545 161.99 12.8655 161.509 13.1669ZM173.865 16.5121H166.631V16.5422C166.631 18.9532 168.32 20.3698 170.188 20.3698C171.544 20.3698 172.478 20.0081 173.442 19.2546V20.6108C172.599 21.2739 171.363 21.5452 170.188 21.5452C167.415 21.5452 165.306 19.6163 165.306 16.4217C165.306 13.4683 167.265 11.2983 169.856 11.2983C172.267 11.2983 173.865 12.7751 173.865 15.5779V16.5121ZM166.722 15.3669H172.569C172.478 13.3176 171.394 12.5038 169.796 12.5038C168.289 12.5038 167.085 13.5286 166.722 15.3669ZM174.86 20.7615V19.2245C175.673 19.978 176.516 20.3998 177.542 20.3998C178.747 20.3998 179.501 19.9177 179.501 18.8328C179.501 17.6573 178.657 17.356 177.15 16.8436C175.463 16.2711 174.739 15.5477 174.739 13.9805C174.739 12.2627 176.004 11.3284 177.753 11.3284C178.687 11.3284 179.621 11.5394 180.375 12.0818V13.5286C179.621 12.8956 178.868 12.4737 177.753 12.4737C176.698 12.4737 176.035 13.0463 176.035 13.9805C176.035 14.8846 176.547 15.3367 178.023 15.819C179.681 16.3314 180.796 16.9943 180.796 18.7725C180.796 20.7012 179.32 21.5753 177.542 21.5753C176.487 21.5452 175.463 21.2438 174.86 20.7615Z" fill="white"/>
</svg>
