<svg width="113" height="45" viewBox="0 0 113 45" fill="none" xmlns="http://www.w3.org/2000/svg">
<path d="M39.1548 21.7856L53.1986 37.8419H48.8042L36.5737 23.8033L31.7252 27.3753V37.8419H28.378V0H31.7252V23.2222L47.4726 11.6971H52.8247L39.1548 21.7856ZM15.6301 0H13.0753L12.9996 0.164267C9.86247 6.98292 5.80471 10.6309 0.230151 11.632L0 11.6738V14.8182L0.321283 14.7701C5.34442 13.9953 9.89799 11.4584 12.2149 8.18548L12.1856 35.0402H0V37.8419H25.1775V35.0402H15.6301V0ZM75.1957 1.29864L75.4399 1.19172L74.9918 0.0294441L74.7337 0.123975C63.0843 4.38719 54.6305 16.0037 54.6305 27.7396C54.6305 34.7132 58.0502 41.1073 63.7794 44.8573L63.9955 45L64.8235 43.9152L64.6181 43.7417C60.6823 40.4253 58.3329 34.6124 58.3329 28.192C58.3329 16.5538 65.1093 5.7447 75.1957 1.29864ZM103.112 0.145671L102.896 0.00464912L102.068 1.08943L102.273 1.26145C106.209 4.57779 108.558 10.3907 108.558 16.8111C108.558 28.4556 101.782 39.2647 91.6954 43.7091L91.4515 43.8176L91.8993 44.9861L92.1574 44.8916C103.807 40.6175 112.261 29.0087 112.261 17.2636C112.261 10.2962 108.841 3.90368 103.112 0.145671ZM75.7719 34.239C74.0511 35.55 74.0511 30.0377 71.0392 30.1895C65.035 30.4576 66.436 38.699 72.0941 38.0279C74.6119 37.8481 77.159 36.1606 81.7296 29.2055L80.9974 27.27C79.0296 30.3228 77.176 32.9991 75.7719 34.2373V34.239ZM96.7557 27.0081L95.242 26.2968C93.7111 29.1729 92.2622 33.2426 89.6271 33.3261C87.6346 33.3881 87.1557 30.2484 86.1996 28.0944C86.1996 28.0944 85.9603 27.4543 85.5819 26.4425H85.5725C85.5725 26.4425 80.8829 14.1828 80.5802 13.6295C77.0122 7.38584 72.1805 18.9652 70.0628 22.7046L71.5766 23.4143C73.1212 20.5908 76.5194 13.3212 79.1454 17.9625C79.5902 18.8303 83.7421 29.9262 83.7546 29.954C85.6884 34.4109 86.6784 37.9489 88.5736 37.9489C91.748 37.9489 94.3861 31.2649 96.6305 27.2561L96.7557 27.0081ZM91.9673 14.8988C93.121 13.8977 93.5119 14.2277 94.051 15.5341C94.4943 16.5182 95.0489 17.7424 96.4977 17.7781C98.2771 17.8509 99.8835 16.2935 99.6843 14.4912C99.4727 12.272 97.6191 11.0942 95.3639 11.3624C92.6686 11.5994 90.2358 13.222 85.2374 20.9797L85.9756 22.9355C88.5784 18.7962 90.3779 16.3834 91.9735 14.8972L91.9673 14.8988ZM85.5725 26.4425C85.0612 25.0897 85.5632 26.4425 85.5632 26.4425H85.5725Z" fill="white"/>
</svg>
